{
DisplayStrings = (
/telephoneReceiver,
""
);
copyright = "Copyright (C) 2012 by original authors @ fontello.com";
date = "2013-05-02 15:09:41 +0000";
familyName = "fontello";
fontMaster = (
{
ascender = 800;
capHeight = 700;
customParameters = (
{
name = TypoAscender;
value = 800;
},
{
name = TypoDescender;
value = "-200";
},
{
name = postscriptUnderlinePosition;
value = "-125";
}
);
descender = "-200";
id = "B718D8F3-CB97-43BD-9E0D-52F1AEE8232C";
weightValue = 500;
widthValue = 5;
xHeight = 500;
}
);
glyphs = (
{
glyphname = informationsource;
layers = (
{
layerId = "B718D8F3-CB97-43BD-9E0D-52F1AEE8232C";
name = Regular;
paths = (
{
closed = 1;
nodes = (
"431 800 OFFCURVE",
"467 758 OFFCURVE",
"467 702 CURVE SMOOTH",
"467 635 OFFCURVE",
"408 576 OFFCURVE",
"333 576 CURVE SMOOTH",
"270 576 OFFCURVE",
"233 615 OFFCURVE",
"234 676 CURVE SMOOTH",
"234 736 OFFCURVE",
"286 800 OFFCURVE",
"367 800 CURVE SMOOTH"
);
},
{
closed = 1;
nodes = (
"121 -200 OFFCURVE",
"100 -186 OFFCURVE",
"92 -134 CURVE SMOOTH",
"88 -108 OFFCURVE",
"93 -71 OFFCURVE",
"106 -24 CURVE",
"166 231 LINE SMOOTH",
"176 269 OFFCURVE",
"176 288 OFFCURVE",
"166 288 CURVE SMOOTH",
"149 288 OFFCURVE",
"80 259 OFFCURVE",
"41 232 CURVE",
"15 276 LINE",
"136 379 OFFCURVE",
"287 449 OFFCURVE",
"355 449 CURVE SMOOTH",
"390 449 OFFCURVE",
"407 421 OFFCURVE",
"405 374 CURVE SMOOTH",
"404 350 OFFCURVE",
"399 321 OFFCURVE",
"390 288 CURVE SMOOTH",
"321 20 LINE SMOOTH",
"310 -22 OFFCURVE",
"312 -43 OFFCURVE",
"326 -43 CURVE SMOOTH",
"346 -43 OFFCURVE",
"398 -20 OFFCURVE",
"445 17 CURVE",
"475 -24 LINE",
"363 -139 OFFCURVE",
"225 -200 OFFCURVE",
"160 -200 CURVE SMOOTH"
);
}
);
width = 490;
}
);
unicode = 2139;
},
{
glyphname = hyphen;
layers = (
{
layerId = "B718D8F3-CB97-43BD-9E0D-52F1AEE8232C";
name = Regular;
paths = (
{
closed = 1;
nodes = (
"565 350 LINE SMOOTH",
"590 350 OFFCURVE",
"595 333 OFFCURVE",
"595 300 CURVE SMOOTH",
"595 277 OFFCURVE",
"594 268 OFFCURVE",
"585 258 CURVE",
"580 253 OFFCURVE",
"574 250 OFFCURVE",
"565 250 CURVE SMOOTH",
"45 250 LINE SMOOTH",
"20 250 OFFCURVE",
"15 267 OFFCURVE",
"15 300 CURVE SMOOTH",
"15 323 OFFCURVE",
"16 333 OFFCURVE",
"25 343 CURVE",
"30 348 OFFCURVE",
"36 350 OFFCURVE",
"45 350 CURVE SMOOTH"
);
}
);
width = 610;
}
);
unicode = 002D;
},
{
glyphname = .notdef;
layers = (
{
layerId = "B718D8F3-CB97-43BD-9E0D-52F1AEE8232C";
name = Regular;
paths = (
{
closed = 1;
nodes = (
"33 0 LINE",
"33 666 LINE",
"298 666 LINE",
"298 0 LINE"
);
},
{
closed = 1;
nodes = (
"66 33 LINE",
"265 33 LINE",
"265 633 LINE",
"66 633 LINE"
);
}
);
width = 364;
}
);
},
{
glyphname = anticlockwiseGappedCircleArrow;
layers = (
{
layerId = "B718D8F3-CB97-43BD-9E0D-52F1AEE8232C";
name = Regular;
paths = (
{
closed = 1;
nodes = (
"771 710 OFFCURVE",
"955 527 OFFCURVE",
"955 300 CURVE SMOOTH",
"955 73 OFFCURVE",
"771 -110 OFFCURVE",
"546 -110 CURVE SMOOTH",
"453 -110 OFFCURVE",
"369 -81 OFFCURVE",
"295 -23 CURVE",
"365 52 LINE",
"420 12 OFFCURVE",
"481 -8 OFFCURVE",
"546 -8 CURVE SMOOTH",
"715 -8 OFFCURVE",
"853 131 OFFCURVE",
"853 300 CURVE SMOOTH",
"853 469 OFFCURVE",
"715 607 OFFCURVE",
"546 607 CURVE SMOOTH",
"381 607 OFFCURVE",
"245 475 OFFCURVE",
"240 310 CURVE",
"383 310 LINE",
"199 105 LINE",
"15 310 LINE",
"138 310 LINE",
"143 533 OFFCURVE",
"325 710 OFFCURVE",
"546 710 CURVE SMOOTH"
);
}
);
width = 970;
}
);
unicode = 27F2;
},
{
glyphname = clockwiseGappedCircleArrow;
layers = (
{
layerId = "B718D8F3-CB97-43BD-9E0D-52F1AEE8232C";
name = Regular;
paths = (
{
closed = 1;
nodes = (
"645 710 OFFCURVE",
"827 533 OFFCURVE",
"832 310 CURVE",
"955 310 LINE",
"771 105 LINE",
"587 310 LINE",
"730 310 LINE",
"725 475 OFFCURVE",
"589 607 OFFCURVE",
"424 607 CURVE SMOOTH",
"255 607 OFFCURVE",
"117 469 OFFCURVE",
"117 300 CURVE SMOOTH",
"117 131 OFFCURVE",
"255 -8 OFFCURVE",
"424 -8 CURVE SMOOTH",
"489 -8 OFFCURVE",
"550 12 OFFCURVE",
"605 52 CURVE",
"675 -23 LINE",
"601 -81 OFFCURVE",
"517 -110 OFFCURVE",
"424 -110 CURVE SMOOTH",
"199 -110 OFFCURVE",
"15 73 OFFCURVE",
"15 300 CURVE SMOOTH",
"15 527 OFFCURVE",
"199 710 OFFCURVE",
"424 710 CURVE SMOOTH"
);
}
);
width = 970;
}
);
unicode = 27F3;
},
{
glyphname = plus;
layers = (
{
layerId = "B718D8F3-CB97-43BD-9E0D-52F1AEE8232C";
name = Regular;
paths = (
{
closed = 1;
nodes = (
"565 350 LINE SMOOTH",
"590 350 OFFCURVE",
"595 333 OFFCURVE",
"595 300 CURVE SMOOTH",
"595 277 OFFCURVE",
"594 268 OFFCURVE",
"585 258 CURVE",
"580 253 OFFCURVE",
"574 250 OFFCURVE",
"565 250 CURVE SMOOTH",
"355 250 LINE",
"355 40 LINE SMOOTH",
"355 15 OFFCURVE",
"338 10 OFFCURVE",
"305 10 CURVE SMOOTH",
"282 10 OFFCURVE",
"273 11 OFFCURVE",
"263 20 CURVE",
"258 25 OFFCURVE",
"255 31 OFFCURVE",
"255 40 CURVE SMOOTH",
"255 250 LINE",
"45 250 LINE SMOOTH",
"20 250 OFFCURVE",
"15 267 OFFCURVE",
"15 300 CURVE SMOOTH",
"15 323 OFFCURVE",
"16 333 OFFCURVE",
"25 343 CURVE",
"30 348 OFFCURVE",
"36 350 OFFCURVE",
"45 350 CURVE SMOOTH",
"255 350 LINE",
"255 560 LINE SMOOTH",
"255 585 OFFCURVE",
"272 590 OFFCURVE",
"305 590 CURVE SMOOTH",
"328 590 OFFCURVE",
"338 589 OFFCURVE",
"348 580 CURVE",
"353 575 OFFCURVE",
"355 569 OFFCURVE",
"355 560 CURVE SMOOTH",
"355 350 LINE"
);
}
);
width = 610;
}
);
unicode = 002B;
},
{
glyphname = arrowdown;
layers = (
{
layerId = "B718D8F3-CB97-43BD-9E0D-52F1AEE8232C";
name = Regular;
paths = (
{
closed = 1;
nodes = (
"675 314 LINE",
"345 -65 LINE",
"15 314 LINE",
"206 314 LINE",
"206 665 LINE",
"484 665 LINE",
"484 314 LINE"
);
}
);
width = 690;
}
);
unicode = 2193;
},
{
glyphname = arrowdowntipright;
layers = (
{
layerId = "B718D8F3-CB97-43BD-9E0D-52F1AEE8232C";
name = Regular;
paths = (
{
closed = 1;
nodes = (
"115 150 LINE SMOOTH",
"60 150 OFFCURVE",
"15 195 OFFCURVE",
"15 250 CURVE SMOOTH",
"15 600 LINE",
"155 600 LINE",
"155 290 LINE",
"520 290 LINE",
"520 440 LINE",
"760 220 LINE",
"520 0 LINE",
"520 150 LINE"
);
}
);
width = 775;
}
);
unicode = 21B3;
},
{
glyphname = arrowleft;
layers = (
{
layerId = "B718D8F3-CB97-43BD-9E0D-52F1AEE8232C";
name = Regular;
paths = (
{
closed = 1;
nodes = (
"394 -30 LINE",
"15 300 LINE",
"394 630 LINE",
"394 439 LINE",
"745 439 LINE",
"745 161 LINE",
"394 161 LINE"
);
}
);
width = 760;
}
);
unicode = 2190;
},
{
glyphname = arrowright;
layers = (
{
layerId = "B718D8F3-CB97-43BD-9E0D-52F1AEE8232C";
name = Regular;
paths = (
{
closed = 1;
nodes = (
"366 630 LINE",
"745 300 LINE",
"366 -30 LINE",
"366 161 LINE",
"15 161 LINE",
"15 439 LINE",
"366 439 LINE"
);
}
);
width = 760;
}
);
unicode = 2192;
},
{
glyphname = arrowup;
layers = (
{
layerId = "B718D8F3-CB97-43BD-9E0D-52F1AEE8232C";
name = Regular;
paths = (
{
closed = 1;
nodes = (
"675 286 LINE",
"484 286 LINE",
"484 -65 LINE",
"206 -65 LINE",
"206 286 LINE",
"15 286 LINE",
"345 665 LINE"
);
}
);
width = 690;
}
);
unicode = 2191;
},
{
glyphname = blackdownTriangle;
layers = (
{
layerId = "B718D8F3-CB97-43BD-9E0D-52F1AEE8232C";
name = Regular;
paths = (
{
closed = 1;
nodes = (
"475 500 LINE",
"245 100 LINE",
"15 500 LINE"
);
}
);
width = 490;
}
);
unicode = 25BE;
},
{
glyphname = blackleftTriangleSmall;
layers = (
{
layerId = "B718D8F3-CB97-43BD-9E0D-52F1AEE8232C";
name = Regular;
paths = (
{
closed = 1;
nodes = (
"415 530 LINE",
"415 70 LINE",
"15 300 LINE"
);
}
);
width = 430;
}
);
unicode = 25C2;
},
{
glyphname = blackrightTriangle;
layers = (
{
layerId = "B718D8F3-CB97-43BD-9E0D-52F1AEE8232C";
name = Regular;
paths = (
{
closed = 1;
nodes = (
"500 326 LINE",
"510 319 OFFCURVE",
"515 310 OFFCURVE",
"515 300 CURVE SMOOTH",
"515 291 OFFCURVE",
"509 281 OFFCURVE",
"504 277 CURVE SMOOTH",
"500 274 LINE",
"72 9 LINE SMOOTH",
"41 -11 OFFCURVE",
"15 4 OFFCURVE",
"15 43 CURVE SMOOTH",
"15 557 LINE SMOOTH",
"15 596 OFFCURVE",
"41 611 OFFCURVE",
"72 591 CURVE SMOOTH"
);
}
);
width = 530;
}
);
unicode = 25B6;
},
{
glyphname = blackrightTriangleSmall;
layers = (
{
layerId = "B718D8F3-CB97-43BD-9E0D-52F1AEE8232C";
name = Regular;
paths = (
{
closed = 1;
nodes = (
"15 530 LINE",
"415 300 LINE",
"15 70 LINE"
);
}
);
width = 430;
}
);
unicode = 25B8;
},
{
glyphname = blacksmallsquare;
layers = (
{
layerId = "B718D8F3-CB97-43BD-9E0D-52F1AEE8232C";
name = Regular;
paths = (
{
closed = 1;
nodes = (
"540 600 LINE SMOOTH",
"592 600 OFFCURVE",
"615 583 OFFCURVE",
"615 535 CURVE SMOOTH",
"615 65 LINE SMOOTH",
"615 17 OFFCURVE",
"592 0 OFFCURVE",
"540 0 CURVE SMOOTH",
"90 0 LINE SMOOTH",
"38 0 OFFCURVE",
"15 17 OFFCURVE",
"15 65 CURVE SMOOTH",
"15 535 LINE SMOOTH",
"15 583 OFFCURVE",
"38 600 OFFCURVE",
"90 600 CURVE SMOOTH"
);
}
);
width = 630;
}
);
unicode = 25AA;
},
{
glyphname = blackupsmallTriangle;
layers = (
{
layerId = "B718D8F3-CB97-43BD-9E0D-52F1AEE8232C";
name = Regular;
paths = (
{
closed = 1;
nodes = (
"15 100 LINE",
"245 500 LINE",
"475 100 LINE"
);
}
);
width = 490;
}
);
unicode = 25B4;
},
{
glyphname = airplane;
layers = (
{
layerId = "B718D8F3-CB97-43BD-9E0D-52F1AEE8232C";
name = Regular;
paths = (
{
closed = 1;
nodes = (
"282 -170 LINE",
"407 230 LINE",
"228 230 LINE",
"115 130 LINE",
"15 130 LINE",
"95 300 LINE",
"15 470 LINE",
"115 470 LINE",
"228 370 LINE",
"407 370 LINE",
"282 770 LINE",
"382 770 LINE",
"607 370 LINE",
"865 370 LINE SMOOTH",
"869 370 OFFCURVE",
"874 370 OFFCURVE",
"881 370 CURVE",
"894 369 OFFCURVE",
"936 364 OFFCURVE",
"963 355 CURVE SMOOTH",
"990 346 OFFCURVE",
"1015 327 OFFCURVE",
"1015 300 CURVE SMOOTH",
"1015 259 OFFCURVE",
"953 235 OFFCURVE",
"902 232 CURVE SMOOTH",
"865 230 LINE",
"607 230 LINE",
"382 -170 LINE"
);
}
);
width = 1030;
}
);
unicode = 2708;
},
{
glyphname = artistPalette;
layers = (
{
layerId = "B718D8F3-CB97-43BD-9E0D-52F1AEE8232C";
name = Regular;
paths = (
{
closed = 1;
nodes = (
"933 531 OFFCURVE",
"973 479 OFFCURVE",
"986 436 CURVE SMOOTH",
"998 392 OFFCURVE",
"997 352 OFFCURVE",
"984 328 CURVE SMOOTH",
"971 304 OFFCURVE",
"954 301 OFFCURVE",
"918 312 CURVE SMOOTH",
"867 326 LINE SMOOTH",
"835 335 OFFCURVE",
"785 326 OFFCURVE",
"745 282 CURVE",
"710 249 OFFCURVE",
"719 202 OFFCURVE",
"738 173 CURVE SMOOTH",
"768 127 LINE SMOOTH",
"788 95 OFFCURVE",
"788 82 OFFCURVE",
"759 47 CURVE SMOOTH",
"730 11 OFFCURVE",
"680 -32 OFFCURVE",
"576 -60 CURVE SMOOTH",
"524 -74 OFFCURVE",
"466 -81 OFFCURVE",
"402 -81 CURVE SMOOTH",
"154 -81 OFFCURVE",
"1 71 OFFCURVE",
"16 263 CURVE SMOOTH",
"27 422 OFFCURVE",
"176 605 OFFCURVE",
"336 650 CURVE SMOOTH",
"531 705 OFFCURVE",
"710 679 OFFCURVE",
"873 571 CURVE SMOOTH"
);
},
{
closed = 1;
nodes = (
"516 112 OFFCURVE",
"533 105 OFFCURVE",
"554 105 CURVE SMOOTH",
"595 105 OFFCURVE",
"629 139 OFFCURVE",
"629 180 CURVE SMOOTH",
"629 221 OFFCURVE",
"595 255 OFFCURVE",
"554 255 CURVE SMOOTH",
"513 255 OFFCURVE",
"479 221 OFFCURVE",
"479 180 CURVE SMOOTH",
"479 159 OFFCURVE",
"486 142 OFFCURVE",
"501 127 CURVE SMOOTH"
);
}
);
width = 1010;
}
);
unicode = 1F3A8;
},
{
glyphname = at;
layers = (
{
layerId = "B718D8F3-CB97-43BD-9E0D-52F1AEE8232C";
name = Regular;
paths = (
{
closed = 1;
nodes = (
"866 473 OFFCURVE",
"874 427 OFFCURVE",
"874 378 CURVE SMOOTH",
"874 309 OFFCURVE",
"859 249 OFFCURVE",
"828 196 CURVE",
"789 135 OFFCURVE",
"734 104 OFFCURVE",
"665 104 CURVE SMOOTH",
"608 104 OFFCURVE",
"577 133 OFFCURVE",
"565 161 CURVE",
"536 124 OFFCURVE",
"498 106 OFFCURVE",
"451 106 CURVE SMOOTH",
"397 106 OFFCURVE",
"356 125 OFFCURVE",
"329 164 CURVE",
"302 199 OFFCURVE",
"288 246 OFFCURVE",
"288 305 CURVE SMOOTH",
"288 426 OFFCURVE",
"359 516 OFFCURVE",
"478 516 CURVE SMOOTH",
"513 516 OFFCURVE",
"543 504 OFFCURVE",
"568 479 CURVE",
"575 505 LINE",
"660 505 LINE",
"642 246 LINE SMOOTH",
"641 225 OFFCURVE",
"644 210 OFFCURVE",
"651 202 CURVE",
"656 197 OFFCURVE",
"662 195 OFFCURVE",
"671 195 CURVE SMOOTH",
"718 195 OFFCURVE",
"753 251 OFFCURVE",
"765 303 CURVE SMOOTH",
"771 329 OFFCURVE",
"774 354 OFFCURVE",
"774 378 CURVE SMOOTH",
"774 522 OFFCURVE",
"675 630 OFFCURVE",
"498 630 CURVE SMOOTH",
"327 630 OFFCURVE",
"182 513 OFFCURVE",
"182 309 CURVE SMOOTH",
"182 132 OFFCURVE",
"308 6 OFFCURVE",
"472 6 CURVE SMOOTH",
"563 6 OFFCURVE",
"644 21 OFFCURVE",
"714 52 CURVE",
"729 60 LINE",
"729 -36 LINE",
"722 -39 LINE",
"655 -72 OFFCURVE",
"571 -89 OFFCURVE",
"471 -89 CURVE SMOOTH",
"251 -89 OFFCURVE",
"79 55 OFFCURVE",
"79 316 CURVE SMOOTH",
"79 437 OFFCURVE",
"118 535 OFFCURVE",
"195 610 CURVE SMOOTH",
"233 647 OFFCURVE",
"277 675 OFFCURVE",
"328 694 CURVE SMOOTH",
"379 715 OFFCURVE",
"435 725 OFFCURVE",
"496 725 CURVE SMOOTH",
"615 725 OFFCURVE",
"709 690 OFFCURVE",
"780 619 CURVE SMOOTH",
"811 590 OFFCURVE",
"834 555 OFFCURVE",
"849 516 CURVE SMOOTH"
);
},
{
closed = 1;
nodes = (
"526 199 OFFCURVE",
"551 252 OFFCURVE",
"551 324 CURVE SMOOTH",
"551 354 OFFCURVE",
"546 379 OFFCURVE",
"535 398 CURVE",
"522 417 OFFCURVE",
"502 426 OFFCURVE",
"475 426 CURVE SMOOTH",
"416 426 OFFCURVE",
"392 372 OFFCURVE",
"392 305 CURVE SMOOTH",
"392 274 OFFCURVE",
"394 248 OFFCURVE",
"418 220 CURVE",
"429 206 OFFCURVE",
"445 199 OFFCURVE",
"465 199 CURVE SMOOTH"
);
}
);
width = 923;
}
);
unicode = 0040;
},
{
glyphname = ballotBoxWithCheck;
layers = (
{
layerId = "B718D8F3-CB97-43BD-9E0D-52F1AEE8232C";
name = Regular;
paths = (
{
closed = 1;
nodes = (
"0 566 LINE SMOOTH",
"0 609 OFFCURVE",
"18 649 OFFCURVE",
"46 677 CURVE SMOOTH",
"74 705 OFFCURVE",
"114 724 OFFCURVE",
"158 724 CURVE SMOOTH",
"711 724 LINE SMOOTH",
"720 724 OFFCURVE",
"728 723 OFFCURVE",
"737 721 CURVE",
"641 625 LINE",
"158 625 LINE SMOOTH",
"126 625 OFFCURVE",
"99 598 OFFCURVE",
"99 566 CURVE SMOOTH",
"99 92 LINE SMOOTH",
"99 60 OFFCURVE",
"126 33 OFFCURVE",
"158 33 CURVE SMOOTH",
"711 33 LINE SMOOTH",
"743 33 OFFCURVE",
"769 60 OFFCURVE",
"769 92 CURVE SMOOTH",
"769 259 LINE",
"868 358 LINE",
"868 92 LINE SMOOTH",
"868 48 OFFCURVE",
"850 10 OFFCURVE",
"822 -19 CURVE SMOOTH",
"793 -48 OFFCURVE",
"754 -66 OFFCURVE",
"711 -66 CURVE SMOOTH",
"158 -66 LINE SMOOTH",
"114 -66 OFFCURVE",
"74 -48 OFFCURVE",
"46 -19 CURVE SMOOTH",
"18 10 OFFCURVE",
"0 48 OFFCURVE",
"0 92 CURVE SMOOTH"
);
},
{
closed = 1;
nodes = (
"209 403 LINE SMOOTH",
"202 410 OFFCURVE",
"198 420 OFFCURVE",
"198 431 CURVE SMOOTH",
"198 442 OFFCURVE",
"202 452 OFFCURVE",
"209 459 CURVE SMOOTH",
"260 510 LINE SMOOTH",
"268 518 OFFCURVE",
"278 522 OFFCURVE",
"289 522 CURVE SMOOTH",
"300 522 OFFCURVE",
"309 518 OFFCURVE",
"317 510 CURVE SMOOTH",
"492 335 LINE",
"827 672 LINE SMOOTH",
"835 680 OFFCURVE",
"845 684 OFFCURVE",
"857 684 CURVE SMOOTH",
"868 684 OFFCURVE",
"878 680 OFFCURVE",
"885 672 CURVE",
"936 622 LINE",
"943 614 OFFCURVE",
"947 604 OFFCURVE",
"947 593 CURVE SMOOTH",
"947 582 OFFCURVE",
"943 572 OFFCURVE",
"936 565 CURVE SMOOTH",
"571 199 LINE",
"520 149 LINE SMOOTH",
"512 141 OFFCURVE",
"503 137 OFFCURVE",
"492 137 CURVE SMOOTH",
"481 137 OFFCURVE",
"471 141 OFFCURVE",
"463 149 CURVE SMOOTH",
"412 199 LINE"
);
}
);
width = 947;
}
);
unicode = 2611;
},
{
glyphname = bell;
layers = (
{
layerId = "B718D8F3-CB97-43BD-9E0D-52F1AEE8232C";
name = Regular;
paths = (
{
closed = 1;
nodes = (
"669 330 OFFCURVE",
"706 306 OFFCURVE",
"734 301 CURVE SMOOTH",
"761 296 OFFCURVE",
"794 272 OFFCURVE",
"811 224 CURVE SMOOTH",
"840 141 OFFCURVE",
"693 -18 OFFCURVE",
"485 -95 CURVE SMOOTH",
"346 -147 OFFCURVE",
"200 -154 OFFCURVE",
"113 -125 CURVE SMOOTH",
"26 -97 OFFCURVE",
"19 -38 OFFCURVE",
"27 0 CURVE",
"30 19 OFFCURVE",
"37 34 OFFCURVE",
"46 46 CURVE SMOOTH",
"64 69 OFFCURVE",
"76 110 OFFCURVE",
"64 159 CURVE SMOOTH",
"33 278 OFFCURVE",
"21 335 OFFCURVE",
"16 410 CURVE SMOOTH",
"11 485 OFFCURVE",
"27 529 OFFCURVE",
"60 578 CURVE SMOOTH",
"76 603 OFFCURVE",
"99 627 OFFCURVE",
"128 651 CURVE SMOOTH",
"151 670 OFFCURVE",
"159 691 OFFCURVE",
"158 704 CURVE SMOOTH",
"157 716 OFFCURVE",
"164 731 OFFCURVE",
"187 739 CURVE",
"204 746 OFFCURVE",
"220 743 OFFCURVE",
"235 730 CURVE SMOOTH",
"249 717 OFFCURVE",
"267 710 OFFCURVE",
"288 710 CURVE SMOOTH",
"363 711 OFFCURVE",
"418 694 OFFCURVE",
"462 666 CURVE SMOOTH",
"505 637 OFFCURVE",
"549 569 OFFCURVE",
"584 505 CURVE SMOOTH",
"601 473 OFFCURVE",
"623 430 OFFCURVE",
"648 375 CURVE SMOOTH"
);
},
{
closed = 1;
nodes = (
"425 -45 OFFCURVE",
"500 -19 OFFCURVE",
"566 20 CURVE SMOOTH",
"632 59 OFFCURVE",
"672 95 OFFCURVE",
"704 130 CURVE SMOOTH",
"719 147 OFFCURVE",
"730 162 OFFCURVE",
"737 174 CURVE SMOOTH",
"744 186 OFFCURVE",
"746 194 OFFCURVE",
"744 199 CURVE SMOOTH",
"739 212 OFFCURVE",
"724 223 OFFCURVE",
"697 230 CURVE SMOOTH",
"643 245 OFFCURVE",
"522 234 OFFCURVE",
"385 183 CURVE SMOOTH",
"301 152 OFFCURVE",
"228 111 OFFCURVE",
"185 78 CURVE SMOOTH",
"142 45 OFFCURVE",
"113 11 OFFCURVE",
"104 -12 CURVE SMOOTH",
"95 -36 OFFCURVE",
"97 -44 OFFCURVE",
"122 -53 CURVE SMOOTH",
"147 -62 OFFCURVE",
"196 -70 OFFCURVE",
"252 -70 CURVE SMOOTH",
"280 -70 OFFCURVE",
"313 -66 OFFCURVE",
"350 -59 CURVE SMOOTH"
);
},
{
closed = 1;
nodes = (
"457 106 OFFCURVE",
"410 41 OFFCURVE",
"333 12 CURVE SMOOTH",
"273 -9 OFFCURVE",
"213 -3 OFFCURVE",
"181 26 CURVE",
"235 71 OFFCURVE",
"308 111 OFFCURVE",
"399 146 CURVE",
"410 151 OFFCURVE",
"423 155 OFFCURVE",
"437 159 CURVE"
);
}
);
width = 830;
}
);
unicode = 1F514;
},
{
glyphname = blackFlag;
layers = (
{
layerId = "B718D8F3-CB97-43BD-9E0D-52F1AEE8232C";
name = Regular;
paths = (
{
closed = 1;
nodes = (
"908 562 OFFCURVE",
"922 551 OFFCURVE",
"911 535 CURVE SMOOTH",
"811 390 OFFCURVE",
"732 298 OFFCURVE",
"680 260 CURVE SMOOTH",
"627 222 OFFCURVE",
"587 215 OFFCURVE",
"556 232 CURVE SMOOTH",
"540 241 OFFCURVE",
"525 251 OFFCURVE",
"511 263 CURVE SMOOTH",
"483 287 OFFCURVE",
"446 309 OFFCURVE",
"403 313 CURVE SMOOTH",
"360 317 OFFCURVE",
"292 286 OFFCURVE",
"209 217 CURVE",
"299 -136 LINE",
"198 -136 LINE",
"15 584 LINE",
"108 618 LINE",
"203 687 OFFCURVE",
"274 718 OFFCURVE",
"320 715 CURVE SMOOTH",
"366 711 OFFCURVE",
"399 686 OFFCURVE",
"428 650 CURVE SMOOTH",
"474 594 LINE SMOOTH",
"505 555 OFFCURVE",
"552 523 OFFCURVE",
"612 508 CURVE SMOOTH",
"671 493 OFFCURVE",
"768 507 OFFCURVE",
"889 555 CURVE SMOOTH"
);
}
);
width = 930;
}
);
unicode = 2691;
},
{
glyphname = blackQuestionOrnament;
layers = (
{
layerId = "B718D8F3-CB97-43BD-9E0D-52F1AEE8232C";
name = Regular;
paths = (
{
closed = 1;
nodes = (
"15 476 LINE",
"22 649 OFFCURVE",
"120 750 OFFCURVE",
"295 750 CURVE SMOOTH",
"466 750 OFFCURVE",
"595 666 OFFCURVE",
"595 505 CURVE SMOOTH",
"595 414 OFFCURVE",
"565 381 OFFCURVE",
"465 302 CURVE",
"419 270 LINE SMOOTH",
"380 241 OFFCURVE",
"364 218 OFFCURVE",
"363 166 CURVE SMOOTH",
"363 157 OFFCURVE",
"358 153 OFFCURVE",
"348 153 CURVE SMOOTH",
"219 153 LINE SMOOTH",
"208 153 OFFCURVE",
"203 157 OFFCURVE",
"203 165 CURVE",
"206 234 OFFCURVE",
"209 266 OFFCURVE",
"230 290 CURVE SMOOTH",
"253 317 OFFCURVE",
"304 357 OFFCURVE",
"336 378 CURVE SMOOTH",
"359 394 LINE",
"400 425 OFFCURVE",
"420 459 OFFCURVE",
"420 496 CURVE SMOOTH",
"420 555 OFFCURVE",
"393 611 OFFCURVE",
"302 611 CURVE SMOOTH",
"213 611 OFFCURVE",
"180 537 OFFCURVE",
"180 476 CURVE"
);
},
{
closed = 1;
nodes = (
"352 51 OFFCURVE",
"394 9 OFFCURVE",
"393 -52 CURVE SMOOTH",
"392 -113 OFFCURVE",
"346 -153 OFFCURVE",
"286 -150 CURVE SMOOTH",
"227 -147 OFFCURVE",
"185 -106 OFFCURVE",
"186 -46 CURVE SMOOTH",
"187 15 OFFCURVE",
"233 57 OFFCURVE",
"292 54 CURVE SMOOTH"
);
}
);
width = 610;
}
);
unicode = 2753;
},
{
glyphname = blackRightwardsArrow;
layers = (
{
layerId = "B718D8F3-CB97-43BD-9E0D-52F1AEE8232C";
name = Regular;
paths = (
{
closed = 1;
nodes = (
"756 50 LINE",
"756 211 LINE",
"15 211 LINE",
"15 389 LINE",
"756 389 LINE",
"756 550 LINE",
"995 300 LINE"
);
}
);
width = 1010;
}
);
unicode = 27A1;
},
{
glyphname = blackstar;
layers = (
{
layerId = "B718D8F3-CB97-43BD-9E0D-52F1AEE8232C";
name = Regular;
paths = (
{
closed = 1;
nodes = (
"455 740 LINE",
"574 404 LINE",
"895 404 LINE",
"633 206 LINE",
"727 -140 LINE",
"455 68 LINE",
"183 -140 LINE",
"277 206 LINE",
"15 404 LINE",
"336 404 LINE"
);
}
);
width = 910;
}
);
unicode = 2B51;
},
{
glyphname = bookmark;
layers = (
{
layerId = "B718D8F3-CB97-43BD-9E0D-52F1AEE8232C";
name = Regular;
paths = (
{
closed = 1;
nodes = (
"325 750 LINE SMOOTH",
"353 750 OFFCURVE",
"375 728 OFFCURVE",
"375 700 CURVE SMOOTH",
"375 -150 LINE",
"195 30 LINE",
"15 -150 LINE",
"15 700 LINE SMOOTH",
"15 733 OFFCURVE",
"28 750 OFFCURVE",
"55 750 CURVE SMOOTH"
);
}
);
width = 390;
}
);
unicode = 1F516;
},
{
glyphname = bustInSilhouette;
layers = (
{
layerId = "B718D8F3-CB97-43BD-9E0D-52F1AEE8232C";
name = Regular;
paths = (
{
closed = 1;
nodes = (
"814 55 OFFCURVE",
"863 33 OFFCURVE",
"900 11 CURVE SMOOTH",
"937 -11 OFFCURVE",
"955 -30 OFFCURVE",
"955 -45 CURVE SMOOTH",
"955 -150 LINE",
"15 -150 LINE",
"15 -45 LINE SMOOTH",
"15 -30 OFFCURVE",
"33 -11 OFFCURVE",
"70 11 CURVE SMOOTH",
"107 33 OFFCURVE",
"156 55 OFFCURVE",
"219 78 CURVE SMOOTH",
"343 123 OFFCURVE",
"382 162 OFFCURVE",
"382 242 CURVE SMOOTH",
"382 255 OFFCURVE",
"379 266 OFFCURVE",
"372 274 CURVE SMOOTH",
"359 289 OFFCURVE",
"336 312 OFFCURVE",
"327 363 CURVE SMOOTH",
"324 379 OFFCURVE",
"314 385 OFFCURVE",
"304 389 CURVE",
"299 390 OFFCURVE",
"294 396 OFFCURVE",
"290 406 CURVE",
"281 425 OFFCURVE",
"280 461 OFFCURVE",
"286 475 CURVE SMOOTH",
"289 482 OFFCURVE",
"291 486 OFFCURVE",
"294 488 CURVE",
"299 491 LINE",
"293 524 OFFCURVE",
"289 554 OFFCURVE",
"286 579 CURVE SMOOTH",
"283 607 OFFCURVE",
"294 643 OFFCURVE",
"320 682 CURVE SMOOTH",
"346 721 OFFCURVE",
"405 750 OFFCURVE",
"485 750 CURVE SMOOTH",
"565 750 OFFCURVE",
"625 721 OFFCURVE",
"651 682 CURVE SMOOTH",
"677 643 OFFCURVE",
"687 607 OFFCURVE",
"684 579 CURVE",
"671 491 LINE",
"683 486 OFFCURVE",
"689 472 OFFCURVE",
"689 449 CURVE",
"688 430 OFFCURVE",
"685 415 OFFCURVE",
"681 406 CURVE",
"676 396 OFFCURVE",
"672 390 OFFCURVE",
"667 389 CURVE",
"657 385 OFFCURVE",
"646 379 OFFCURVE",
"643 363 CURVE SMOOTH",
"634 312 OFFCURVE",
"611 289 OFFCURVE",
"598 274 CURVE SMOOTH",
"591 266 OFFCURVE",
"588 255 OFFCURVE",
"588 242 CURVE SMOOTH",
"588 162 OFFCURVE",
"627 123 OFFCURVE",
"751 78 CURVE SMOOTH"
);
}
);
width = 970;
}
);
unicode = 1F464;
},
{
glyphname = bustsInSilhouette;
layers = (
{
layerId = "B718D8F3-CB97-43BD-9E0D-52F1AEE8232C";
name = Regular;
paths = (
{
closed = 1;
nodes = (
"1015 -125 LINE",
"790 -125 LINE",
"790 19 LINE SMOOTH",
"790 54 OFFCURVE",
"780 80 OFFCURVE",
"760 98 CURVE SMOOTH",
"740 115 OFFCURVE",
"689 144 OFFCURVE",
"606 183 CURVE",
"633 202 OFFCURVE",
"647 229 OFFCURVE",
"647 264 CURVE SMOOTH",
"647 273 OFFCURVE",
"643 284 OFFCURVE",
"634 296 CURVE",
"625 307 OFFCURVE",
"618 324 OFFCURVE",
"615 345 CURVE",
"614 356 OFFCURVE",
"606 360 OFFCURVE",
"601 362 CURVE",
"598 363 OFFCURVE",
"596 366 OFFCURVE",
"593 373 CURVE SMOOTH",
"587 386 OFFCURVE",
"586 410 OFFCURVE",
"590 419 CURVE",
"591 424 OFFCURVE",
"593 427 OFFCURVE",
"595 428 CURVE",
"598 430 LINE",
"594 452 OFFCURVE",
"591 472 OFFCURVE",
"590 489 CURVE SMOOTH",
"589 508 OFFCURVE",
"594 532 OFFCURVE",
"610 558 CURVE SMOOTH",
"626 584 OFFCURVE",
"662 603 OFFCURVE",
"710 603 CURVE SMOOTH",
"758 603 OFFCURVE",
"794 584 OFFCURVE",
"810 558 CURVE SMOOTH",
"825 532 OFFCURVE",
"830 508 OFFCURVE",
"829 489 CURVE",
"822 430 LINE",
"835 422 OFFCURVE",
"833 386 OFFCURVE",
"827 373 CURVE SMOOTH",
"824 366 OFFCURVE",
"821 363 OFFCURVE",
"818 362 CURVE",
"813 360 OFFCURVE",
"805 356 OFFCURVE",
"804 345 CURVE",
"801 324 OFFCURVE",
"795 307 OFFCURVE",
"786 296 CURVE",
"777 284 OFFCURVE",
"772 273 OFFCURVE",
"772 264 CURVE SMOOTH",
"772 211 OFFCURVE",
"795 185 OFFCURVE",
"870 154 CURVE SMOOTH",
"911 137 OFFCURVE",
"941 124 OFFCURVE",
"960 113 CURVE SMOOTH",
"999 92 OFFCURVE",
"1005 86 OFFCURVE",
"1010 19 CURVE SMOOTH",
"1012 -15 OFFCURVE",
"1013 -47 OFFCURVE",
"1014 -78 CURVE SMOOTH"
);
},
{
closed = 1;
nodes = (
"585 103 OFFCURVE",
"631 82 OFFCURVE",
"663 63 CURVE SMOOTH",
"694 44 OFFCURVE",
"710 26 OFFCURVE",
"710 7 CURVE SMOOTH",
"710 -125 LINE",
"15 -125 LINE",
"15 51 LINE SMOOTH",
"15 78 OFFCURVE",
"42 101 OFFCURVE",
"59 110 CURVE",
"68 114 OFFCURVE",
"79 119 OFFCURVE",
"94 125 CURVE",
"96 126 OFFCURVE",
"98 126 OFFCURVE",
"99 127 CURVE",
"199 167 OFFCURVE",
"230 201 OFFCURVE",
"230 273 CURVE SMOOTH",
"230 286 OFFCURVE",
"224 300 OFFCURVE",
"212 315 CURVE",
"199 330 OFFCURVE",
"191 352 OFFCURVE",
"186 381 CURVE",
"183 394 OFFCURVE",
"175 400 OFFCURVE",
"167 403 CURVE",
"163 404 OFFCURVE",
"159 409 OFFCURVE",
"156 418 CURVE SMOOTH",
"153 427 OFFCURVE",
"150 440 OFFCURVE",
"149 457 CURVE",
"149 474 OFFCURVE",
"155 488 OFFCURVE",
"160 492 CURVE",
"164 494 LINE",
"159 524 OFFCURVE",
"155 550 OFFCURVE",
"153 573 CURVE SMOOTH",
"150 598 OFFCURVE",
"159 629 OFFCURVE",
"180 664 CURVE SMOOTH",
"200 699 OFFCURVE",
"249 725 OFFCURVE",
"313 725 CURVE SMOOTH",
"377 725 OFFCURVE",
"425 699 OFFCURVE",
"446 664 CURVE SMOOTH",
"466 629 OFFCURVE",
"475 598 OFFCURVE",
"472 573 CURVE SMOOTH",
"462 494 LINE",
"471 489 OFFCURVE",
"476 477 OFFCURVE",
"476 457 CURVE",
"475 440 OFFCURVE",
"472 427 OFFCURVE",
"469 418 CURVE",
"465 409 OFFCURVE",
"461 404 OFFCURVE",
"458 403 CURVE",
"450 400 OFFCURVE",
"442 394 OFFCURVE",
"439 381 CURVE",
"434 352 OFFCURVE",
"426 330 OFFCURVE",
"414 315 CURVE SMOOTH",
"402 300 OFFCURVE",
"396 286 OFFCURVE",
"396 273 CURVE SMOOTH",
"396 201 OFFCURVE",
"427 167 OFFCURVE",
"526 127 CURVE SMOOTH"
);
}
);
width = 1030;
}
);
unicode = 1F465;
},
{
glyphname = calendar;
layers = (
{
layerId = "B718D8F3-CB97-43BD-9E0D-52F1AEE8232C";
name = Regular;
paths = (
{
closed = 1;
nodes = (
"815 650 LINE SMOOTH",
"870 650 OFFCURVE",
"915 605 OFFCURVE",
"915 550 CURVE SMOOTH",
"915 -50 LINE SMOOTH",
"915 -105 OFFCURVE",
"870 -150 OFFCURVE",
"815 -150 CURVE SMOOTH",
"115 -150 LINE SMOOTH",
"60 -150 OFFCURVE",
"15 -105 OFFCURVE",
"15 -50 CURVE SMOOTH",
"15 550 LINE SMOOTH",
"15 605 OFFCURVE",
"60 650 OFFCURVE",
"115 650 CURVE SMOOTH",
"160 650 LINE",
"160 550 LINE",
"320 550 LINE",
"320 650 LINE",
"610 650 LINE",
"610 550 LINE",
"770 550 LINE",
"770 650 LINE"
);
},
{
closed = 1;
nodes = (
"815 -50 LINE",
"815 350 LINE",
"115 350 LINE",
"115 -50 LINE"
);
},
{
closed = 1;
nodes = (
"275 750 LINE",
"275 580 LINE",
"205 580 LINE",
"205 750 LINE"
);
},
{
closed = 1;
nodes = (
"725 750 LINE",
"725 580 LINE",
"655 580 LINE",
"655 750 LINE"
);
}
);
width = 930;
}
);
unicode = 1F4C5;
},
{
glyphname = camera;
layers = (
{
layerId = "B718D8F3-CB97-43BD-9E0D-52F1AEE8232C";
name = Regular;
paths = (
{
closed = 1;
nodes = (
"438 385 OFFCURVE",
"474 400 OFFCURVE",
"515 400 CURVE SMOOTH",
"598 400 OFFCURVE",
"665 333 OFFCURVE",
"665 250 CURVE SMOOTH",
"665 167 OFFCURVE",
"598 100 OFFCURVE",
"515 100 CURVE SMOOTH",
"432 100 OFFCURVE",
"365 167 OFFCURVE",
"365 250 CURVE SMOOTH",
"365 291 OFFCURVE",
"380 327 OFFCURVE",
"409 356 CURVE SMOOTH"
);
},
{
closed = 1;
nodes = (
"915 550 LINE SMOOTH",
"970 550 OFFCURVE",
"1015 505 OFFCURVE",
"1015 450 CURVE SMOOTH",
"1015 0 LINE SMOOTH",
"1015 -55 OFFCURVE",
"970 -100 OFFCURVE",
"915 -100 CURVE SMOOTH",
"115 -100 LINE SMOOTH",
"60 -100 OFFCURVE",
"15 -55 OFFCURVE",
"15 0 CURVE SMOOTH",
"15 450 LINE SMOOTH",
"15 505 OFFCURVE",
"60 550 OFFCURVE",
"115 550 CURVE SMOOTH",
"235 550 LINE SMOOTH",
"251 550 OFFCURVE",
"269 562 OFFCURVE",
"274 578 CURVE SMOOTH",
"306 671 LINE SMOOTH",
"311 687 OFFCURVE",
"328 700 OFFCURVE",
"345 700 CURVE SMOOTH",
"685 700 LINE SMOOTH",
"701 700 OFFCURVE",
"719 687 OFFCURVE",
"724 671 CURVE SMOOTH",
"756 578 LINE SMOOTH",
"761 562 OFFCURVE",
"778 550 OFFCURVE",
"795 550 CURVE SMOOTH"
);
},
{
closed = 1;
nodes = (
"388 24 OFFCURVE",
"446 0 OFFCURVE",
"515 0 CURVE SMOOTH",
"652 0 OFFCURVE",
"765 111 OFFCURVE",
"765 250 CURVE SMOOTH",
"765 389 OFFCURVE",
"652 500 OFFCURVE",
"515 500 CURVE SMOOTH",
"378 500 OFFCURVE",
"265 389 OFFCURVE",
"265 250 CURVE SMOOTH",
"265 181 OFFCURVE",
"290 122 OFFCURVE",
"339 73 CURVE SMOOTH"
);
},
{
closed = 1;
nodes = (
"863 384 OFFCURVE",
"871 380 OFFCURVE",
"880 380 CURVE SMOOTH",
"899 380 OFFCURVE",
"915 396 OFFCURVE",
"915 415 CURVE SMOOTH",
"915 434 OFFCURVE",
"899 450 OFFCURVE",
"880 450 CURVE SMOOTH",
"861 450 OFFCURVE",
"845 434 OFFCURVE",
"845 415 CURVE SMOOTH",
"845 406 OFFCURVE",
"849 398 OFFCURVE",
"856 391 CURVE SMOOTH"
);
}
);
width = 1030;
}
);
unicode = 1F4F7;
},
{
glyphname = checkmark;
layers = (
{
layerId = "B718D8F3-CB97-43BD-9E0D-52F1AEE8232C";
name = Regular;
paths = (
{
closed = 1;
nodes = (
"240 -50 OFFCURVE",
"222 -41 OFFCURVE",
"208 -22 CURVE SMOOTH",
"29 214 LINE SMOOTH",
"6 245 OFFCURVE",
"12 288 OFFCURVE",
"43 311 CURVE SMOOTH",
"74 334 OFFCURVE",
"117 329 OFFCURVE",
"140 298 CURVE SMOOTH",
"258 143 LINE",
"553 617 LINE SMOOTH",
"573 650 OFFCURVE",
"616 659 OFFCURVE",
"649 639 CURVE SMOOTH",
"682 619 OFFCURVE",
"692 576 OFFCURVE",
"672 543 CURVE SMOOTH",
"323 -17 LINE SMOOTH",
"309 -39 OFFCURVE",
"289 -50 OFFCURVE",
"263 -50 CURVE SMOOTH"
);
}
);
width = 697;
}
);
unicode = 2713;
},
{
glyphname = circledhorizontalbarnotch;
layers = (
{
layerId = "B718D8F3-CB97-43BD-9E0D-52F1AEE8232C";
name = Regular;
paths = (
{
closed = 1;
nodes = (
"365 585 LINE SMOOTH",
"365 628 OFFCURVE",
"395 650 OFFCURVE",
"455 650 CURVE SMOOTH",
"515 650 OFFCURVE",
"545 628 OFFCURVE",
"545 585 CURVE SMOOTH",
"545 15 LINE SMOOTH",
"545 -28 OFFCURVE",
"515 -50 OFFCURVE",
"455 -50 CURVE SMOOTH",
"395 -50 OFFCURVE",
"365 -28 OFFCURVE",
"365 15 CURVE SMOOTH"
);
},
{
closed = 1;
nodes = (
"15 585 LINE SMOOTH",
"15 628 OFFCURVE",
"45 650 OFFCURVE",
"105 650 CURVE SMOOTH",
"165 650 OFFCURVE",
"195 628 OFFCURVE",
"195 585 CURVE SMOOTH",
"195 15 LINE SMOOTH",
"195 -28 OFFCURVE",
"165 -50 OFFCURVE",
"105 -50 CURVE SMOOTH",
"45 -50 OFFCURVE",
"15 -28 OFFCURVE",
"15 15 CURVE SMOOTH"
);
}
);
width = 560;
}
);
unicode = 2389;
},
{
glyphname = clapperBoard;
layers = (
{
layerId = "B718D8F3-CB97-43BD-9E0D-52F1AEE8232C";
name = Regular;
paths = (
{
closed = 1;
nodes = (
"995 550 LINE",
"895 550 LINE",
"895 450 LINE",
"995 450 LINE",
"995 350 LINE",
"895 350 LINE",
"895 250 LINE",
"995 250 LINE",
"995 150 LINE",
"895 150 LINE",
"895 50 LINE",
"995 50 LINE",
"995 -10 LINE SMOOTH",
"995 -31 OFFCURVE",
"978 -50 OFFCURVE",
"955 -50 CURVE SMOOTH",
"55 -50 LINE SMOOTH",
"32 -50 OFFCURVE",
"15 -31 OFFCURVE",
"15 -10 CURVE SMOOTH",
"15 50 LINE",
"115 50 LINE",
"115 150 LINE",
"15 150 LINE",
"15 250 LINE",
"115 250 LINE",
"115 350 LINE",
"15 350 LINE",
"15 450 LINE",
"115 450 LINE",
"115 550 LINE",
"15 550 LINE",
"15 610 LINE SMOOTH",
"15 631 OFFCURVE",
"32 650 OFFCURVE",
"55 650 CURVE SMOOTH",
"955 650 LINE SMOOTH",
"978 650 OFFCURVE",
"995 631 OFFCURVE",
"995 610 CURVE SMOOTH"
);
},
{
closed = 1;
nodes = (
"395 150 LINE",
"645 300 LINE",
"395 450 LINE"
);
}
);
width = 1010;
}
);
unicode = 1F3AC;
},
{
glyphname = clockFaceFiveOclock;
layers = (
{
layerId = "B718D8F3-CB97-43BD-9E0D-52F1AEE8232C";
name = Regular;
paths = (
{
closed = 1;
nodes = (
"315 740 OFFCURVE",
"392 760 OFFCURVE",
"475 760 CURVE SMOOTH",
"642 760 OFFCURVE",
"792 672 OFFCURVE",
"874 531 CURVE SMOOTH",
"915 460 OFFCURVE",
"935 383 OFFCURVE",
"935 300 CURVE SMOOTH",
"935 133 OFFCURVE",
"847 -16 OFFCURVE",
"706 -98 CURVE SMOOTH",
"635 -139 OFFCURVE",
"558 -160 OFFCURVE",
"475 -160 CURVE SMOOTH",
"308 -160 OFFCURVE",
"159 -72 OFFCURVE",
"77 69 CURVE SMOOTH",
"36 140 OFFCURVE",
"15 217 OFFCURVE",
"15 300 CURVE SMOOTH",
"15 467 OFFCURVE",
"103 617 OFFCURVE",
"244 699 CURVE SMOOTH"
);
},
{
closed = 1;
nodes = (
"291 -25 OFFCURVE",
"376 -60 OFFCURVE",
"475 -60 CURVE SMOOTH",
"674 -60 OFFCURVE",
"835 101 OFFCURVE",
"835 300 CURVE SMOOTH",
"835 499 OFFCURVE",
"674 660 OFFCURVE",
"475 660 CURVE SMOOTH",
"276 660 OFFCURVE",
"115 499 OFFCURVE",
"115 300 CURVE SMOOTH",
"115 201 OFFCURVE",
"150 116 OFFCURVE",
"221 46 CURVE SMOOTH"
);
},
{
closed = 1;
nodes = (
"510 560 LINE",
"510 314 LINE",
"660 165 LINE",
"610 115 LINE",
"440 285 LINE",
"440 560 LINE"
);
}
);
width = 950;
}
);
unicode = 1F554;
},
{
glyphname = clockFaceFourOclock;
layers = (
{
layerId = "B718D8F3-CB97-43BD-9E0D-52F1AEE8232C";
name = Regular;
paths = (
{
closed = 1;
nodes = (
"705 722 OFFCURVE",
"888 541 OFFCURVE",
"888 316 CURVE SMOOTH",
"888 93 OFFCURVE",
"705 -90 OFFCURVE",
"481 -90 CURVE SMOOTH",
"256 -90 OFFCURVE",
"75 93 OFFCURVE",
"75 316 CURVE SMOOTH",
"75 541 OFFCURVE",
"256 722 OFFCURVE",
"481 722 CURVE SMOOTH"
);
},
{
closed = 1;
nodes = (
"319 31 OFFCURVE",
"394 0 OFFCURVE",
"481 0 CURVE SMOOTH",
"656 0 OFFCURVE",
"798 142 OFFCURVE",
"798 318 CURVE SMOOTH",
"798 493 OFFCURVE",
"656 634 OFFCURVE",
"481 634 CURVE SMOOTH",
"306 634 OFFCURVE",
"164 493 OFFCURVE",
"164 318 CURVE SMOOTH",
"164 230 OFFCURVE",
"195 155 OFFCURVE",
"257 93 CURVE SMOOTH"
);
},
{
closed = 1;
nodes = (
"589 268 LINE SMOOTH",
"624 268 OFFCURVE",
"643 304 OFFCURVE",
"629 335 CURVE SMOOTH",
"622 350 OFFCURVE",
"608 358 OFFCURVE",
"589 358 CURVE SMOOTH",
"492 358 LINE",
"375 488 LINE",
"335 528 OFFCURVE",
"271 469 OFFCURVE",
"310 426 CURVE SMOOTH",
"441 282 LINE",
"448 273 OFFCURVE",
"459 268 OFFCURVE",
"474 268 CURVE SMOOTH"
);
}
);
width = 962;
}
);
unicode = 1F553;
},
{
glyphname = closedBook;
layers = (
{
layerId = "B718D8F3-CB97-43BD-9E0D-52F1AEE8232C";
name = Regular;
paths = (
{
closed = 1;
nodes = (
"725 584 LINE",
"760 584 LINE",
"760 -88 LINE",
"258 -88 LINE SMOOTH",
"182 -88 OFFCURVE",
"125 -35 OFFCURVE",
"125 40 CURVE SMOOTH",
"125 621 LINE SMOOTH",
"125 662 OFFCURVE",
"159 696 OFFCURVE",
"200 696 CURVE SMOOTH",
"665 696 LINE",
"665 120 LINE",
"258 120 LINE SMOOTH",
"205 120 OFFCURVE",
"170 91 OFFCURVE",
"170 42 CURVE SMOOTH",
"170 40 LINE SMOOTH",
"170 -11 OFFCURVE",
"206 -42 OFFCURVE",
"258 -42 CURVE SMOOTH",
"725 -42 LINE"
);
},
{
closed = 1;
nodes = (
"665 22 LINE",
"665 58 LINE",
"262 58 LINE SMOOTH",
"248 58 OFFCURVE",
"241 52 OFFCURVE",
"241 41 CURVE SMOOTH",
"241 28 OFFCURVE",
"248 22 OFFCURVE",
"262 22 CURVE SMOOTH"
);
}
);
width = 885;
}
);
unicode = 1F4D5;
},
{
glyphname = cloud;
layers = (
{
layerId = "B718D8F3-CB97-43BD-9E0D-52F1AEE8232C";
name = Regular;
paths = (
{
closed = 1;
nodes = (
"908 443 OFFCURVE",
"1015 338 OFFCURVE",
"1015 209 CURVE SMOOTH",
"1015 80 OFFCURVE",
"908 -25 OFFCURVE",
"776 -25 CURVE SMOOTH",
"196 -25 LINE SMOOTH",
"96 -25 OFFCURVE",
"15 55 OFFCURVE",
"15 152 CURVE SMOOTH",
"15 249 OFFCURVE",
"96 329 OFFCURVE",
"196 329 CURVE SMOOTH",
"201 329 OFFCURVE",
"208 328 OFFCURVE",
"217 327 CURVE",
"215 339 OFFCURVE",
"214 352 OFFCURVE",
"214 365 CURVE SMOOTH",
"214 509 OFFCURVE",
"333 625 OFFCURVE",
"480 625 CURVE SMOOTH",
"599 625 OFFCURVE",
"702 548 OFFCURVE",
"735 440 CURVE",
"748 442 OFFCURVE",
"761 443 OFFCURVE",
"776 443 CURVE SMOOTH"
);
}
);
width = 1030;
}
);
unicode = 2601;
},
{
glyphname = cocktailGlass;
layers = (
{
layerId = "B718D8F3-CB97-43BD-9E0D-52F1AEE8232C";
name = Regular;
paths = (
{
closed = 1;
nodes = (
"12 656 LINE SMOOTH",
"-13 681 OFFCURVE",
"6 724 OFFCURVE",
"39 724 CURVE SMOOTH",
"749 724 LINE SMOOTH",
"785 724 OFFCURVE",
"803 681 OFFCURVE",
"778 656 CURVE SMOOTH",
"464 343 LINE",
"464 13 LINE",
"592 13 LINE SMOOTH",
"613 13 OFFCURVE",
"632 -5 OFFCURVE",
"632 -26 CURVE SMOOTH",
"632 -49 OFFCURVE",
"613 -66 OFFCURVE",
"592 -66 CURVE SMOOTH",
"197 -66 LINE SMOOTH",
"176 -66 OFFCURVE",
"158 -49 OFFCURVE",
"158 -26 CURVE SMOOTH",
"158 -5 OFFCURVE",
"176 13 OFFCURVE",
"197 13 CURVE SMOOTH",
"325 13 LINE",
"325 343 LINE"
);
}
);
width = 789;
}
);
unicode = 1F378;
},
{
glyphname = digramForGreaterYin;
layers = (
{
layerId = "B718D8F3-CB97-43BD-9E0D-52F1AEE8232C";
name = Regular;
paths = (
{
closed = 1;
nodes = (
"185 600 LINE SMOOTH",
"238 600 OFFCURVE",
"265 573 OFFCURVE",
"265 520 CURVE SMOOTH",
"265 430 LINE SMOOTH",
"265 377 OFFCURVE",
"238 350 OFFCURVE",
"185 350 CURVE SMOOTH",
"95 350 LINE SMOOTH",
"42 350 OFFCURVE",
"15 377 OFFCURVE",
"15 430 CURVE SMOOTH",
"15 520 LINE SMOOTH",
"15 573 OFFCURVE",
"42 600 OFFCURVE",
"95 600 CURVE SMOOTH"
);
},
{
closed = 1;
nodes = (
"535 600 LINE SMOOTH",
"588 600 OFFCURVE",
"615 573 OFFCURVE",
"615 520 CURVE SMOOTH",
"615 430 LINE SMOOTH",
"615 377 OFFCURVE",
"588 350 OFFCURVE",
"535 350 CURVE SMOOTH",
"445 350 LINE SMOOTH",
"392 350 OFFCURVE",
"365 377 OFFCURVE",
"365 430 CURVE SMOOTH",
"365 520 LINE SMOOTH",
"365 573 OFFCURVE",
"392 600 OFFCURVE",
"445 600 CURVE SMOOTH"
);
},
{
closed = 1;
nodes = (
"185 250 LINE SMOOTH",
"238 250 OFFCURVE",
"265 223 OFFCURVE",
"265 170 CURVE SMOOTH",
"265 80 LINE SMOOTH",
"265 27 OFFCURVE",
"238 0 OFFCURVE",
"185 0 CURVE SMOOTH",
"95 0 LINE SMOOTH",
"42 0 OFFCURVE",
"15 27 OFFCURVE",
"15 80 CURVE SMOOTH",
"15 170 LINE SMOOTH",
"15 223 OFFCURVE",
"42 250 OFFCURVE",
"95 250 CURVE SMOOTH"
);
},
{
closed = 1;
nodes = (
"535 250 LINE SMOOTH",
"588 250 OFFCURVE",
"615 223 OFFCURVE",
"615 170 CURVE SMOOTH",
"615 80 LINE SMOOTH",
"615 27 OFFCURVE",
"588 0 OFFCURVE",
"535 0 CURVE SMOOTH",
"445 0 LINE SMOOTH",
"392 0 OFFCURVE",
"365 27 OFFCURVE",
"365 80 CURVE SMOOTH",
"365 170 LINE SMOOTH",
"365 223 OFFCURVE",
"392 250 OFFCURVE",
"445 250 CURVE SMOOTH"
);
}
);
width = 630;
}
);
unicode = 268F;
},
{
glyphname = directHit;
layers = (
{
layerId = "B718D8F3-CB97-43BD-9E0D-52F1AEE8232C";
name = Regular;
paths = (
{
closed = 1;
nodes = (
"225 688 OFFCURVE",
"326 730 OFFCURVE",
"445 730 CURVE SMOOTH",
"682 730 OFFCURVE",
"875 537 OFFCURVE",
"875 300 CURVE SMOOTH",
"875 63 OFFCURVE",
"682 -130 OFFCURVE",
"445 -130 CURVE SMOOTH",
"208 -130 OFFCURVE",
"15 63 OFFCURVE",
"15 300 CURVE SMOOTH",
"15 419 OFFCURVE",
"57 520 OFFCURVE",
"141 604 CURVE SMOOTH"
);
},
{
closed = 1;
nodes = (
"480 -48 LINE",
"645 -32 OFFCURVE",
"777 100 OFFCURVE",
"793 265 CURVE",
"600 265 LINE",
"600 335 LINE",
"793 335 LINE",
"777 500 OFFCURVE",
"645 632 OFFCURVE",
"480 648 CURVE",
"480 455 LINE",
"410 455 LINE",
"410 648 LINE",
"245 632 OFFCURVE",
"113 500 OFFCURVE",
"97 335 CURVE",
"290 335 LINE",
"290 265 LINE",
"97 265 LINE",
"113 100 OFFCURVE",
"245 -32 OFFCURVE",
"410 -48 CURVE",
"410 145 LINE",
"480 145 LINE"
);
}
);
width = 890;
}
);
unicode = 1F3AF;
},
{
glyphname = downBlackArrow;
layers = (
{
layerId = "B718D8F3-CB97-43BD-9E0D-52F1AEE8232C";
name = Regular;
paths = (
{
closed = 1;
nodes = (
"515 49 LINE",
"265 -190 LINE",
"15 49 LINE",
"176 49 LINE",
"176 790 LINE",
"354 790 LINE",
"354 49 LINE"
);
}
);
width = 530;
}
);
unicode = 2B07;
},
{
glyphname = electricLightBulb;
layers = (
{
layerId = "B718D8F3-CB97-43BD-9E0D-52F1AEE8232C";
name = Regular;
paths = (
{
closed = 1;
nodes = (
"208 10 LINE",
"208 89 OFFCURVE",
"175 166 OFFCURVE",
"136 222 CURVE SMOOTH",
"77 308 LINE SMOOTH",
"38 365 OFFCURVE",
"11 440 OFFCURVE",
"16 517 CURVE SMOOTH",
"20 574 OFFCURVE",
"34 625 OFFCURVE",
"67 675 CURVE SMOOTH",
"99 725 OFFCURVE",
"142 760 OFFCURVE",
"214 783 CURVE SMOOTH",
"250 794 OFFCURVE",
"290 800 OFFCURVE",
"335 800 CURVE SMOOTH",
"424 800 OFFCURVE",
"499 775 OFFCURVE",
"545 739 CURVE SMOOTH",
"591 703 OFFCURVE",
"624 650 OFFCURVE",
"640 599 CURVE SMOOTH",
"655 547 OFFCURVE",
"664 476 OFFCURVE",
"642 404 CURVE SMOOTH",
"631 368 OFFCURVE",
"616 335 OFFCURVE",
"598 306 CURVE SMOOTH",
"542 220 LINE SMOOTH",
"503 161 OFFCURVE",
"473 87 OFFCURVE",
"473 10 CURVE"
);
},
{
closed = 1;
nodes = (
"203 -60 LINE",
"467 -60 LINE",
"467 -159 LINE",
"427 -187 OFFCURVE",
"383 -201 OFFCURVE",
"335 -200 CURVE",
"287 -201 OFFCURVE",
"243 -187 OFFCURVE",
"203 -159 CURVE"
);
}
);
width = 670;
}
);
unicode = 1F4A1;
},
{
glyphname = envelope;
layers = (
{
layerId = "B718D8F3-CB97-43BD-9E0D-52F1AEE8232C";
name = Regular;
paths = (
{
closed = 1;
nodes = (
"30 544 OFFCURVE",
"20 555 OFFCURVE",
"17 569 CURVE",
"18 582 OFFCURVE",
"26 589 OFFCURVE",
"42 590 CURVE",
"888 590 LINE SMOOTH",
"932 590 OFFCURVE",
"910 549 OFFCURVE",
"885 536 CURVE",
"885 536 OFFCURVE",
"760 469 OFFCURVE",
"510 334 CURVE SMOOTH",
"497 327 OFFCURVE",
"482 324 OFFCURVE",
"465 324 CURVE SMOOTH",
"448 324 OFFCURVE",
"433 327 OFFCURVE",
"420 334 CURVE",
"420 334 OFFCURVE",
"295 401 OFFCURVE",
"45 536 CURVE SMOOTH"
);
},
{
closed = 1;
nodes = (
"916 441 OFFCURVE",
"915 438 OFFCURVE",
"915 425 CURVE SMOOTH",
"915 58 LINE SMOOTH",
"915 37 OFFCURVE",
"886 10 OFFCURVE",
"865 10 CURVE SMOOTH",
"65 10 LINE SMOOTH",
"44 10 OFFCURVE",
"15 37 OFFCURVE",
"15 58 CURVE SMOOTH",
"15 425 LINE SMOOTH",
"15 438 OFFCURVE",
"14 441 OFFCURVE",
"34 436 CURVE",
"34 436 OFFCURVE",
"163 369 OFFCURVE",
"420 234 CURVE SMOOTH",
"433 227 OFFCURVE",
"448 224 OFFCURVE",
"465 224 CURVE SMOOTH",
"482 224 OFFCURVE",
"497 227 OFFCURVE",
"510 234 CURVE",
"510 234 OFFCURVE",
"639 301 OFFCURVE",
"896 436 CURVE"
);
}
);
width = 930;
}
);
unicode = 2709;
},
{
glyphname = fallenLeaf;
layers = (
{
layerId = "B718D8F3-CB97-43BD-9E0D-52F1AEE8232C";
name = Regular;
paths = (
{
closed = 1;
nodes = (
"16 52 OFFCURVE",
"41 72 OFFCURVE",
"65 92 CURVE SMOOTH",
"85 108 OFFCURVE",
"100 120 OFFCURVE",
"104 135 CURVE",
"105 136 OFFCURVE",
"105 138 OFFCURVE",
"104 141 CURVE",
"103 143 OFFCURVE",
"102 147 OFFCURVE",
"99 152 CURVE",
"98 156 OFFCURVE",
"96 161 OFFCURVE",
"94 166 CURVE SMOOTH",
"92 171 OFFCURVE",
"90 177 OFFCURVE",
"88 184 CURVE",
"72 289 OFFCURVE",
"102 379 OFFCURVE",
"155 451 CURVE SMOOTH",
"208 522 OFFCURVE",
"286 572 OFFCURVE",
"367 601 CURVE SMOOTH",
"420 620 OFFCURVE",
"485 621 OFFCURVE",
"556 622 CURVE SMOOTH",
"595 622 OFFCURVE",
"642 623 OFFCURVE",
"683 629 CURVE SMOOTH",
"723 635 OFFCURVE",
"759 646 OFFCURVE",
"780 669 CURVE",
"787 676 OFFCURVE",
"794 682 OFFCURVE",
"800 689 CURVE SMOOTH",
"811 702 OFFCURVE",
"824 712 OFFCURVE",
"840 719 CURVE",
"848 722 OFFCURVE",
"857 724 OFFCURVE",
"868 724 CURVE SMOOTH",
"885 724 OFFCURVE",
"896 717 OFFCURVE",
"903 702 CURVE SMOOTH",
"990 531 OFFCURVE",
"974 206 OFFCURVE",
"651 38 CURVE SMOOTH",
"574 -2 OFFCURVE",
"496 -22 OFFCURVE",
"419 -22 CURVE SMOOTH",
"368 -22 OFFCURVE",
"316 -14 OFFCURVE",
"267 5 CURVE",
"260 8 OFFCURVE",
"252 11 OFFCURVE",
"245 15 CURVE SMOOTH",
"238 19 OFFCURVE",
"230 23 OFFCURVE",
"222 26 CURVE",
"203 37 OFFCURVE",
"183 48 OFFCURVE",
"171 49 CURVE",
"163 48 OFFCURVE",
"154 36 OFFCURVE",
"145 23 CURVE SMOOTH",
"132 3 LINE",
"121 -13 LINE",
"117 -21 OFFCURVE",
"113 -28 OFFCURVE",
"108 -34 CURVE",
"97 -51 LINE",
"89 -61 OFFCURVE",
"79 -66 OFFCURVE",
"66 -66 CURVE SMOOTH",
"64 -66 LINE",
"25 -63 OFFCURVE",
"13 -34 OFFCURVE",
"8 -23 CURVE",
"-1 -10 OFFCURVE",
"-2 3 OFFCURVE",
"3 16 CURVE SMOOTH"
);
},
{
closed = 1;
nodes = (
"193 213 OFFCURVE",
"196 189 OFFCURVE",
"213 173 CURVE",
"220 167 OFFCURVE",
"228 164 OFFCURVE",
"238 164 CURVE SMOOTH",
"251 164 OFFCURVE",
"260 168 OFFCURVE",
"267 177 CURVE",
"327 245 OFFCURVE",
"387 292 OFFCURVE",
"453 321 CURVE SMOOTH",
"519 350 OFFCURVE",
"591 362 OFFCURVE",
"678 358 CURVE",
"699 355 OFFCURVE",
"718 376 OFFCURVE",
"719 396 CURVE",
"719 419 OFFCURVE",
"703 437 OFFCURVE",
"680 437 CURVE",
"583 442 OFFCURVE",
"498 427 OFFCURVE",
"421 394 CURVE SMOOTH",
"344 361 OFFCURVE",
"276 306 OFFCURVE",
"208 229 CURVE SMOOTH"
);
}
);
width = 947;
}
);
unicode = 1F342;
},
{
glyphname = fileFolder;
layers = (
{
layerId = "B718D8F3-CB97-43BD-9E0D-52F1AEE8232C";
name = Regular;
paths = (
{
closed = 1;
nodes = (
"968 450 LINE SMOOTH",
"1009 450 OFFCURVE",
"1018 432 OFFCURVE",
"1014 400 CURVE SMOOTH",
"973 -50 LINE SMOOTH",
"970 -83 OFFCURVE",
"961 -100 OFFCURVE",
"918 -100 CURVE SMOOTH",
"112 -100 LINE SMOOTH",
"71 -100 OFFCURVE",
"60 -82 OFFCURVE",
"57 -50 CURVE SMOOTH",
"16 400 LINE",
"15 421 OFFCURVE",
"14 433 OFFCURVE",
"29 443 CURVE SMOOTH",
"36 448 OFFCURVE",
"47 450 OFFCURVE",
"62 450 CURVE SMOOTH"
);
},
{
closed = 1;
nodes = (
"945 520 LINE",
"99 520 LINE",
"113 650 LINE SMOOTH",
"116 677 OFFCURVE",
"141 700 OFFCURVE",
"169 700 CURVE SMOOTH",
"332 700 LINE SMOOTH",
"360 700 OFFCURVE",
"398 684 OFFCURVE",
"418 665 CURVE SMOOTH",
"448 635 LINE SMOOTH",
"468 616 OFFCURVE",
"506 600 OFFCURVE",
"534 600 CURVE SMOOTH",
"875 600 LINE SMOOTH",
"903 600 OFFCURVE",
"928 583 OFFCURVE",
"935 560 CURVE"
);
}
);
width = 1030;
}
);
unicode = 1F4C1;
},
{
glyphname = firstQuarterMoon;
layers = (
{
layerId = "B718D8F3-CB97-43BD-9E0D-52F1AEE8232C";
name = Regular;
paths = (
{
closed = 1;
nodes = (
"482 89 OFFCURVE",
"637 244 OFFCURVE",
"663 441 CURVE SMOOTH",
"676 539 OFFCURVE",
"658 629 OFFCURVE",
"611 712 CURVE",
"646 693 OFFCURVE",
"678 668 OFFCURVE",
"707 639 CURVE SMOOTH",
"792 554 OFFCURVE",
"835 451 OFFCURVE",
"835 330 CURVE SMOOTH",
"835 88 OFFCURVE",
"640 -108 OFFCURVE",
"397 -108 CURVE SMOOTH",
"276 -108 OFFCURVE",
"172 -65 OFFCURVE",
"87 20 CURVE SMOOTH",
"59 48 OFFCURVE",
"35 80 OFFCURVE",
"15 116 CURVE",
"98 69 OFFCURVE",
"188 51 OFFCURVE",
"286 64 CURVE SMOOTH"
);
}
);
width = 850;
}
);
unicode = 263D;
},
{
glyphname = gear;
layers = (
{
layerId = "B718D8F3-CB97-43BD-9E0D-52F1AEE8232C";
name = Regular;
paths = (
{
closed = 1;
nodes = (
"801 391 OFFCURVE",
"774 351 OFFCURVE",
"774 300 CURVE SMOOTH",
"774 249 OFFCURVE",
"801 209 OFFCURVE",
"855 178 CURVE",
"846 148 OFFCURVE",
"834 120 OFFCURVE",
"820 94 CURVE",
"724 119 OFFCURVE",
"623 22 OFFCURVE",
"651 -85 CURVE",
"625 -99 OFFCURVE",
"597 -111 OFFCURVE",
"567 -120 CURVE",
"539 -71 OFFCURVE",
"487 -39 OFFCURVE",
"435 -39 CURVE SMOOTH",
"383 -39 OFFCURVE",
"331 -71 OFFCURVE",
"303 -120 CURVE",
"273 -111 OFFCURVE",
"245 -99 OFFCURVE",
"219 -85 CURVE",
"247 22 OFFCURVE",
"157 112 OFFCURVE",
"50 84 CURVE",
"36 110 OFFCURVE",
"24 138 OFFCURVE",
"15 168 CURVE",
"64 196 OFFCURVE",
"96 248 OFFCURVE",
"96 300 CURVE SMOOTH",
"96 351 OFFCURVE",
"69 391 OFFCURVE",
"15 422 CURVE",
"24 452 OFFCURVE",
"36 480 OFFCURVE",
"50 506 CURVE",
"146 481 OFFCURVE",
"247 578 OFFCURVE",
"219 685 CURVE",
"245 699 OFFCURVE",
"273 711 OFFCURVE",
"303 720 CURVE",
"331 671 OFFCURVE",
"383 639 OFFCURVE",
"435 639 CURVE SMOOTH",
"487 639 OFFCURVE",
"539 671 OFFCURVE",
"567 720 CURVE",
"597 711 OFFCURVE",
"625 699 OFFCURVE",
"651 685 CURVE",
"623 578 OFFCURVE",
"724 481 OFFCURVE",
"820 506 CURVE",
"834 480 OFFCURVE",
"846 452 OFFCURVE",
"855 422 CURVE"
);
},
{
closed = 1;
nodes = (
"341 135 OFFCURVE",
"384 117 OFFCURVE",
"435 117 CURVE SMOOTH",
"536 117 OFFCURVE",
"618 199 OFFCURVE",
"618 300 CURVE SMOOTH",
"618 401 OFFCURVE",
"536 483 OFFCURVE",
"435 483 CURVE SMOOTH",
"334 483 OFFCURVE",
"252 401 OFFCURVE",
"252 300 CURVE SMOOTH",
"252 249 OFFCURVE",
"270 206 OFFCURVE",
"306 171 CURVE SMOOTH"
);
}
);
width = 870;
}
);
unicode = 2699;
},
{
glyphname = heartsuitblack;
layers = (
{
layerId = "B718D8F3-CB97-43BD-9E0D-52F1AEE8232C";
name = Regular;
paths = (
{
closed = 1;
nodes = (
"851 548 OFFCURVE",
"874 496 OFFCURVE",
"874 435 CURVE SMOOTH",
"874 374 OFFCURVE",
"851 322 OFFCURVE",
"804 279 CURVE SMOOTH",
"445 -51 LINE",
"86 279 LINE SMOOTH",
"39 322 OFFCURVE",
"16 374 OFFCURVE",
"16 435 CURVE SMOOTH",
"16 556 OFFCURVE",
"120 649 OFFCURVE",
"237 649 CURVE SMOOTH",
"296 649 OFFCURVE",
"346 630 OFFCURVE",
"388 591 CURVE SMOOTH",
"445 539 LINE",
"502 591 LINE SMOOTH",
"544 630 OFFCURVE",
"594 649 OFFCURVE",
"653 649 CURVE SMOOTH",
"712 649 OFFCURVE",
"762 630 OFFCURVE",
"804 591 CURVE SMOOTH"
);
}
);
width = 890;
}
);
unicode = 2665;
},
{
glyphname = heartsuitwhite;
layers = (
{
layerId = "B718D8F3-CB97-43BD-9E0D-52F1AEE8232C";
name = Regular;
paths = (
{
closed = 1;
nodes = (
"842 548 OFFCURVE",
"865 496 OFFCURVE",
"865 435 CURVE SMOOTH",
"865 374 OFFCURVE",
"842 322 OFFCURVE",
"795 279 CURVE SMOOTH",
"440 -51 LINE",
"85 279 LINE SMOOTH",
"38 322 OFFCURVE",
"15 374 OFFCURVE",
"15 435 CURVE SMOOTH",
"15 556 OFFCURVE",
"118 649 OFFCURVE",
"235 649 CURVE SMOOTH",
"293 649 OFFCURVE",
"343 630 OFFCURVE",
"384 591 CURVE SMOOTH",
"440 539 LINE",
"496 591 LINE SMOOTH",
"537 630 OFFCURVE",
"587 649 OFFCURVE",
"646 649 CURVE SMOOTH",
"704 649 OFFCURVE",
"754 630 OFFCURVE",
"795 591 CURVE SMOOTH"
);
},
{
closed = 1;
nodes = (
"743 330 LINE SMOOTH",
"771 355 OFFCURVE",
"785 390 OFFCURVE",
"785 435 CURVE SMOOTH",
"785 524 OFFCURVE",
"726 574 OFFCURVE",
"646 574 CURVE SMOOTH",
"613 574 OFFCURVE",
"579 558 OFFCURVE",
"544 525 CURVE",
"440 434 LINE",
"336 525 LINE",
"301 558 OFFCURVE",
"267 574 OFFCURVE",
"234 574 CURVE SMOOTH",
"154 574 OFFCURVE",
"95 524 OFFCURVE",
"95 435 CURVE SMOOTH",
"95 390 OFFCURVE",
"109 355 OFFCURVE",
"137 330 CURVE SMOOTH",
"440 44 LINE"
);
}
);
width = 880;
}
);
unicode = 2661;
},
{
glyphname = heavyBlackCurvedUpwardsAndRightwardsArrow;
layers = (
{
layerId = "B718D8F3-CB97-43BD-9E0D-52F1AEE8232C";
name = Regular;
paths = (
{
closed = 1;
nodes = (
"554 201 LINE",
"446 201 OFFCURVE",
"383 198 OFFCURVE",
"299 179 CURVE SMOOTH",
"214 160 OFFCURVE",
"157 129 OFFCURVE",
"97 69 CURVE SMOOTH",
"66 39 OFFCURVE",
"39 3 OFFCURVE",
"15 -40 CURVE",
"16 -33 OFFCURVE",
"19 -24 OFFCURVE",
"22 -12 CURVE SMOOTH",
"28 11 OFFCURVE",
"56 91 OFFCURVE",
"89 152 CURVE SMOOTH",
"121 213 OFFCURVE",
"184 298 OFFCURVE",
"255 352 CURVE SMOOTH",
"326 406 OFFCURVE",
"434 447 OFFCURVE",
"554 447 CURVE",
"554 640 LINE",
"915 317 LINE",
"554 -17 LINE"
);
}
);
width = 930;
}
);
unicode = 27A6;
},
{
glyphname = heavyMinusSign;
layers = (
{
layerId = "B718D8F3-CB97-43BD-9E0D-52F1AEE8232C";
name = Regular;
paths = (
{
closed = 1;
nodes = (
"220 679 OFFCURVE",
"319 720 OFFCURVE",
"435 720 CURVE SMOOTH",
"667 720 OFFCURVE",
"855 532 OFFCURVE",
"855 300 CURVE SMOOTH",
"855 68 OFFCURVE",
"667 -120 OFFCURVE",
"435 -120 CURVE SMOOTH",
"203 -120 OFFCURVE",
"15 68 OFFCURVE",
"15 300 CURVE SMOOTH",
"15 416 OFFCURVE",
"56 515 OFFCURVE",
"138 597 CURVE SMOOTH"
);
},
{
closed = 1;
nodes = (
"687 351 LINE",
"182 351 LINE",
"182 249 LINE",
"687 249 LINE"
);
}
);
width = 870;
}
);
unicode = 2796;
},
{
glyphname = heavyMultiplicationX;
layers = (
{
layerId = "B718D8F3-CB97-43BD-9E0D-52F1AEE8232C";
name = Regular;
paths = (
{
closed = 1;
nodes = (
"220 679 OFFCURVE",
"319 720 OFFCURVE",
"435 720 CURVE SMOOTH",
"667 720 OFFCURVE",
"855 532 OFFCURVE",
"855 300 CURVE SMOOTH",
"855 68 OFFCURVE",
"667 -120 OFFCURVE",
"435 -120 CURVE SMOOTH",
"203 -120 OFFCURVE",
"15 68 OFFCURVE",
"15 300 CURVE SMOOTH",
"15 416 OFFCURVE",
"56 515 OFFCURVE",
"138 597 CURVE SMOOTH"
);
},
{
closed = 1;
nodes = (
"521 300 LINE",
"674 453 LINE",
"588 539 LINE",
"435 386 LINE",
"282 539 LINE",
"196 453 LINE",
"349 300 LINE",
"196 147 LINE",
"282 60 LINE",
"435 214 LINE",
"588 61 LINE",
"674 147 LINE"
);
}
);
width = 870;
}
);
unicode = 2716;
},
{
glyphname = heavyPlus;
layers = (
{
layerId = "B718D8F3-CB97-43BD-9E0D-52F1AEE8232C";
name = Regular;
paths = (
{
closed = 1;
nodes = (
"220 679 OFFCURVE",
"319 720 OFFCURVE",
"435 720 CURVE SMOOTH",
"667 720 OFFCURVE",
"855 532 OFFCURVE",
"855 300 CURVE SMOOTH",
"855 68 OFFCURVE",
"667 -120 OFFCURVE",
"435 -120 CURVE SMOOTH",
"203 -120 OFFCURVE",
"15 68 OFFCURVE",
"15 300 CURVE SMOOTH",
"15 416 OFFCURVE",
"56 515 OFFCURVE",
"138 597 CURVE SMOOTH"
);
},
{
closed = 1;
nodes = (
"486 249 LINE",
"688 249 LINE",
"687 351 LINE",
"486 351 LINE",
"486 552 LINE",
"384 552 LINE",
"384 351 LINE",
"182 351 LINE",
"182 249 LINE",
"384 249 LINE",
"384 47 LINE",
"486 47 LINE"
);
}
);
width = 870;
}
);
unicode = 2795;
},
{
glyphname = highBrightnessSymbol;
layers = (
{
layerId = "B718D8F3-CB97-43BD-9E0D-52F1AEE8232C";
name = Regular;
paths = (
{
closed = 1;
nodes = (
"965 340 LINE SMOOTH",
"993 340 OFFCURVE",
"1015 323 OFFCURVE",
"1015 300 CURVE SMOOTH",
"1015 277 OFFCURVE",
"993 260 OFFCURVE",
"965 260 CURVE SMOOTH",
"916 260 LINE SMOOTH",
"888 260 OFFCURVE",
"866 277 OFFCURVE",
"866 300 CURVE SMOOTH",
"866 323 OFFCURVE",
"888 340 OFFCURVE",
"916 340 CURVE SMOOTH"
);
},
{
closed = 1;
nodes = (
"373 548 OFFCURVE",
"438 575 OFFCURVE",
"515 575 CURVE SMOOTH",
"668 575 OFFCURVE",
"790 453 OFFCURVE",
"790 300 CURVE SMOOTH",
"790 147 OFFCURVE",
"668 25 OFFCURVE",
"515 25 CURVE SMOOTH",
"362 25 OFFCURVE",
"240 147 OFFCURVE",
"240 300 CURVE SMOOTH",
"240 377 OFFCURVE",
"267 442 OFFCURVE",
"320 495 CURVE SMOOTH"
);
},
{
closed = 1;
nodes = (
"413 120 OFFCURVE",
"460 100 OFFCURVE",
"515 100 CURVE SMOOTH",
"626 100 OFFCURVE",
"715 191 OFFCURVE",
"715 300 CURVE SMOOTH",
"715 409 OFFCURVE",
"626 500 OFFCURVE",
"515 500 CURVE SMOOTH",
"404 500 OFFCURVE",
"315 411 OFFCURVE",
"315 300 CURVE SMOOTH",
"315 245 OFFCURVE",
"335 198 OFFCURVE",
"374 159 CURVE SMOOTH"
);
},
{
closed = 1;
nodes = (
"159 321 OFFCURVE",
"164 311 OFFCURVE",
"164 300 CURVE SMOOTH",
"164 277 OFFCURVE",
"143 260 OFFCURVE",
"115 260 CURVE SMOOTH",
"65 260 LINE SMOOTH",
"37 260 OFFCURVE",
"15 277 OFFCURVE",
"15 300 CURVE SMOOTH",
"15 323 OFFCURVE",
"37 340 OFFCURVE",
"65 340 CURVE SMOOTH",
"115 340 LINE SMOOTH",
"129 340 OFFCURVE",
"141 336 OFFCURVE",
"150 329 CURVE"
);
},
{
closed = 1;
nodes = (
"536 655 OFFCURVE",
"526 650 OFFCURVE",
"515 650 CURVE SMOOTH",
"492 650 OFFCURVE",
"475 672 OFFCURVE",
"475 700 CURVE SMOOTH",
"475 750 LINE SMOOTH",
"475 778 OFFCURVE",
"492 800 OFFCURVE",
"515 800 CURVE SMOOTH",
"538 800 OFFCURVE",
"555 778 OFFCURVE",
"555 750 CURVE SMOOTH",
"555 700 LINE SMOOTH",
"555 686 OFFCURVE",
"551 674 OFFCURVE",
"544 665 CURVE SMOOTH"
);
},
{
closed = 1;
nodes = (
"494 -55 OFFCURVE",
"504 -50 OFFCURVE",
"515 -50 CURVE SMOOTH",
"538 -50 OFFCURVE",
"555 -72 OFFCURVE",
"555 -100 CURVE SMOOTH",
"555 -150 LINE SMOOTH",
"555 -178 OFFCURVE",
"538 -200 OFFCURVE",
"515 -200 CURVE SMOOTH",
"492 -200 OFFCURVE",
"475 -178 OFFCURVE",
"475 -150 CURVE SMOOTH",
"475 -100 LINE SMOOTH",
"475 -86 OFFCURVE",
"479 -74 OFFCURVE",
"487 -64 CURVE SMOOTH"
);
},
{
closed = 1;
nodes = (
"848 577 LINE SMOOTH",
"828 557 OFFCURVE",
"801 554 OFFCURVE",
"785 570 CURVE SMOOTH",
"769 586 OFFCURVE",
"772 613 OFFCURVE",
"792 633 CURVE SMOOTH",
"827 668 LINE SMOOTH",
"847 688 OFFCURVE",
"874 691 OFFCURVE",
"890 675 CURVE SMOOTH",
"906 659 OFFCURVE",
"903 632 OFFCURVE",
"883 612 CURVE SMOOTH"
);
},
{
closed = 1;
nodes = (
"182 23 LINE SMOOTH",
"202 43 OFFCURVE",
"229 46 OFFCURVE",
"245 30 CURVE SMOOTH",
"261 14 OFFCURVE",
"258 -13 OFFCURVE",
"238 -33 CURVE SMOOTH",
"203 -68 LINE SMOOTH",
"183 -88 OFFCURVE",
"156 -91 OFFCURVE",
"140 -75 CURVE SMOOTH",
"124 -59 OFFCURVE",
"127 -32 OFFCURVE",
"147 -12 CURVE SMOOTH"
);
},
{
closed = 1;
nodes = (
"238 633 LINE SMOOTH",
"258 613 OFFCURVE",
"261 586 OFFCURVE",
"245 570 CURVE SMOOTH",
"229 554 OFFCURVE",
"202 557 OFFCURVE",
"182 577 CURVE SMOOTH",
"147 612 LINE SMOOTH",
"127 632 OFFCURVE",
"124 659 OFFCURVE",
"140 675 CURVE SMOOTH",
"156 691 OFFCURVE",
"183 688 OFFCURVE",
"203 668 CURVE SMOOTH"
);
},
{
closed = 1;
nodes = (
"792 -33 LINE SMOOTH",
"772 -13 OFFCURVE",
"769 14 OFFCURVE",
"785 30 CURVE SMOOTH",
"801 46 OFFCURVE",
"828 43 OFFCURVE",
"848 23 CURVE SMOOTH",
"883 -12 LINE SMOOTH",
"903 -32 OFFCURVE",
"906 -59 OFFCURVE",
"890 -75 CURVE SMOOTH",
"874 -91 OFFCURVE",
"847 -88 OFFCURVE",
"827 -68 CURVE SMOOTH"
);
}
);
width = 1030;
}
);
unicode = 1F506;
},
{
glyphname = highVoltageSign;
layers = (
{
layerId = "B718D8F3-CB97-43BD-9E0D-52F1AEE8232C";
name = Regular;
paths = (
{
closed = 1;
nodes = (
"52 -148 OFFCURVE",
"64 -117 OFFCURVE",
"90 -58 CURVE SMOOTH",
"169 124 LINE SMOOTH",
"222 248 OFFCURVE",
"236 216 OFFCURVE",
"113 268 CURVE SMOOTH",
"-11 320 OFFCURVE",
"-18 298 OFFCURVE",
"99 443 CURVE SMOOTH",
"158 515 OFFCURVE",
"218 585 OFFCURVE",
"279 653 CURVE SMOOTH",
"401 788 OFFCURVE",
"407 807 OFFCURVE",
"301 564 CURVE SMOOTH",
"248 443 OFFCURVE",
"222 380 OFFCURVE",
"223 376 CURVE",
"224 374 OFFCURVE",
"255 360 OFFCURVE",
"318 334 CURVE SMOOTH",
"381 307 OFFCURVE",
"413 288 OFFCURVE",
"415 277 CURVE SMOOTH",
"419 250 OFFCURVE",
"67 -157 OFFCURVE",
"55 -150 CURVE"
);
}
);
width = 430;
}
);
unicode = 26A1;
},
{
glyphname = house;
layers = (
{
layerId = "B718D8F3-CB97-43BD-9E0D-52F1AEE8232C";
name = Regular;
paths = (
{
closed = 1;
nodes = (
"903 285 LINE SMOOTH",
"924 264 OFFCURVE",
"917 246 OFFCURVE",
"886 246 CURVE SMOOTH",
"803 246 LINE",
"803 -62 LINE SMOOTH",
"803 -81 OFFCURVE",
"802 -88 OFFCURVE",
"793 -96 CURVE",
"788 -101 OFFCURVE",
"781 -103 OFFCURVE",
"771 -103 CURVE SMOOTH",
"567 -103 LINE",
"567 207 LINE",
"363 207 LINE",
"363 -103 LINE",
"168 -103 LINE SMOOTH",
"143 -103 OFFCURVE",
"131 -92 OFFCURVE",
"129 -83 CURVE SMOOTH",
"128 -78 OFFCURVE",
"127 -71 OFFCURVE",
"127 -62 CURVE SMOOTH",
"127 246 LINE",
"44 246 LINE SMOOTH",
"13 246 OFFCURVE",
"6 264 OFFCURVE",
"27 285 CURVE SMOOTH",
"428 686 LINE SMOOTH",
"439 697 OFFCURVE",
"451 702 OFFCURVE",
"465 702 CURVE SMOOTH",
"479 702 OFFCURVE",
"491 697 OFFCURVE",
"502 686 CURVE SMOOTH"
);
}
);
width = 930;
}
);
unicode = 2302;
},
{
glyphname = inboxTray;
layers = (
{
layerId = "B718D8F3-CB97-43BD-9E0D-52F1AEE8232C";
name = Regular;
paths = (
{
closed = 1;
nodes = (
"785 479 LINE",
"515 225 LINE",
"245 479 LINE",
"395 479 LINE",
"395 725 LINE",
"635 725 LINE",
"635 479 LINE"
);
},
{
closed = 1;
nodes = (
"982 148 LINE",
"1006 135 OFFCURVE",
"1020 102 OFFCURVE",
"1013 75 CURVE",
"985 -78 LINE SMOOTH",
"980 -103 OFFCURVE",
"951 -125 OFFCURVE",
"923 -125 CURVE SMOOTH",
"107 -125 LINE SMOOTH",
"79 -125 OFFCURVE",
"50 -103 OFFCURVE",
"45 -78 CURVE SMOOTH",
"17 75 LINE",
"10 102 OFFCURVE",
"24 135 OFFCURVE",
"48 148 CURVE",
"207 255 LINE",
"305 255 LINE",
"135 124 LINE",
"313 124 LINE SMOOTH",
"319 124 OFFCURVE",
"323 122 OFFCURVE",
"325 118 CURVE",
"365 6 LINE",
"665 6 LINE",
"705 118 LINE",
"707 122 OFFCURVE",
"711 124 OFFCURVE",
"717 124 CURVE SMOOTH",
"895 124 LINE",
"725 255 LINE",
"823 255 LINE"
);
}
);
width = 1030;
}
);
unicode = 1F4E5;
},
{
glyphname = keyboard;
layers = (
{
layerId = "B718D8F3-CB97-43BD-9E0D-52F1AEE8232C";
name = Regular;
paths = (
{
closed = 1;
nodes = (
"945 600 LINE SMOOTH",
"984 600 OFFCURVE",
"1015 567 OFFCURVE",
"1015 530 CURVE SMOOTH",
"1015 70 LINE SMOOTH",
"1015 33 OFFCURVE",
"984 0 OFFCURVE",
"945 0 CURVE SMOOTH",
"85 0 LINE SMOOTH",
"46 0 OFFCURVE",
"15 33 OFFCURVE",
"15 70 CURVE SMOOTH",
"15 530 LINE SMOOTH",
"15 567 OFFCURVE",
"46 600 OFFCURVE",
"85 600 CURVE SMOOTH"
);
},
{
closed = 1;
nodes = (
"565 500 LINE",
"565 400 LINE",
"665 400 LINE",
"665 500 LINE"
);
},
{
closed = 1;
nodes = (
"715 350 LINE",
"615 350 LINE",
"615 250 LINE",
"715 250 LINE"
);
},
{
closed = 1;
nodes = (
"415 500 LINE",
"415 400 LINE",
"515 400 LINE",
"515 500 LINE"
);
},
{
closed = 1;
nodes = (
"565 350 LINE",
"465 350 LINE",
"465 250 LINE",
"565 250 LINE"
);
},
{
closed = 1;
nodes = (
"265 500 LINE",
"265 400 LINE",
"365 400 LINE",
"365 500 LINE"
);
},
{
closed = 1;
nodes = (
"415 350 LINE",
"315 350 LINE",
"315 250 LINE",
"415 250 LINE"
);
},
{
closed = 1;
nodes = (
"115 500 LINE",
"115 400 LINE",
"215 400 LINE",
"215 500 LINE"
);
},
{
closed = 1;
nodes = (
"265 350 LINE",
"165 350 LINE",
"165 250 LINE",
"265 250 LINE"
);
},
{
closed = 1;
nodes = (
"215 100 LINE",
"215 200 LINE",
"115 200 LINE",
"115 100 LINE"
);
},
{
closed = 1;
nodes = (
"765 100 LINE",
"765 200 LINE",
"265 200 LINE",
"265 100 LINE"
);
},
{
closed = 1;
nodes = (
"915 100 LINE",
"915 200 LINE",
"815 200 LINE",
"815 100 LINE"
);
},
{
closed = 1;
nodes = (
"765 250 LINE",
"865 250 LINE",
"865 350 LINE",
"765 350 LINE"
);
},
{
closed = 1;
nodes = (
"915 400 LINE",
"915 500 LINE",
"715 500 LINE",
"715 400 LINE"
);
}
);
width = 1030;
}
);
unicode = 2328;
},
{
glyphname = leftBlackArrow;
layers = (
{
layerId = "B718D8F3-CB97-43BD-9E0D-52F1AEE8232C";
name = Regular;
paths = (
{
closed = 1;
nodes = (
"254 50 LINE",
"15 300 LINE",
"254 550 LINE",
"254 389 LINE",
"995 389 LINE",
"995 211 LINE",
"254 211 LINE"
);
}
);
width = 1010;
}
);
unicode = 2B05;
},
{
glyphname = leftPointingMagnifyingGlass;
layers = (
{
layerId = "B718D8F3-CB97-43BD-9E0D-52F1AEE8232C";
name = Regular;
paths = (
{
closed = 1;
nodes = (
"787 27 LINE SMOOTH",
"810 4 OFFCURVE",
"812 -16 OFFCURVE",
"794 -34 CURVE SMOOTH",
"747 -81 LINE SMOOTH",
"738 -90 OFFCURVE",
"727 -95 OFFCURVE",
"714 -95 CURVE SMOOTH",
"701 -95 OFFCURVE",
"689 -90 OFFCURVE",
"680 -81 CURVE SMOOTH",
"490 109 LINE",
"442 81 OFFCURVE",
"390 67 OFFCURVE",
"334 67 CURVE SMOOTH",
"163 67 OFFCURVE",
"15 215 OFFCURVE",
"15 386 CURVE SMOOTH",
"15 557 OFFCURVE",
"153 695 OFFCURVE",
"324 695 CURVE SMOOTH",
"495 695 OFFCURVE",
"643 547 OFFCURVE",
"643 376 CURVE SMOOTH",
"643 320 OFFCURVE",
"628 267 OFFCURVE",
"598 216 CURVE"
);
},
{
closed = 1;
nodes = (
"131 495 OFFCURVE",
"110 445 OFFCURVE",
"110 386 CURVE SMOOTH",
"110 269 OFFCURVE",
"217 162 OFFCURVE",
"334 162 CURVE SMOOTH",
"451 162 OFFCURVE",
"548 259 OFFCURVE",
"548 376 CURVE SMOOTH",
"548 493 OFFCURVE",
"441 600 OFFCURVE",
"324 600 CURVE SMOOTH",
"265 600 OFFCURVE",
"215 579 OFFCURVE",
"173 537 CURVE SMOOTH"
);
}
);
width = 820;
}
);
unicode = 1F50D;
},
{
glyphname = linkSymbol;
layers = (
{
layerId = "B718D8F3-CB97-43BD-9E0D-52F1AEE8232C";
name = Regular;
paths = (
{
closed = 1;
nodes = (
"308 64 LINE SMOOTH",
"317 73 OFFCURVE",
"329 78 OFFCURVE",
"343 78 CURVE SMOOTH",
"371 78 OFFCURVE",
"392 57 OFFCURVE",
"392 29 CURVE SMOOTH",
"392 15 OFFCURVE",
"387 3 OFFCURVE",
"378 -6 CURVE SMOOTH",
"337 -46 LINE SMOOTH",
"300 -83 OFFCURVE",
"256 -101 OFFCURVE",
"204 -101 CURVE SMOOTH",
"99 -101 OFFCURVE",
"15 -20 OFFCURVE",
"15 87 CURVE SMOOTH",
"15 140 OFFCURVE",
"33 185 OFFCURVE",
"70 220 CURVE SMOOTH",
"219 367 LINE SMOOTH",
"312 459 OFFCURVE",
"418 472 OFFCURVE",
"490 401 CURVE SMOOTH",
"509 382 OFFCURVE",
"510 350 OFFCURVE",
"491 331 CURVE SMOOTH",
"482 322 OFFCURVE",
"470 317 OFFCURVE",
"456 317 CURVE SMOOTH",
"442 317 OFFCURVE",
"430 322 OFFCURVE",
"421 331 CURVE SMOOTH",
"388 364 OFFCURVE",
"344 352 OFFCURVE",
"289 297 CURVE SMOOTH",
"140 149 LINE SMOOTH",
"123 132 OFFCURVE",
"114 111 OFFCURVE",
"114 87 CURVE SMOOTH",
"114 38 OFFCURVE",
"153 -2 OFFCURVE",
"204 -2 CURVE SMOOTH",
"229 -2 OFFCURVE",
"251 7 OFFCURVE",
"268 24 CURVE SMOOTH"
);
},
{
closed = 1;
nodes = (
"797 601 OFFCURVE",
"815 557 OFFCURVE",
"815 506 CURVE SMOOTH",
"815 454 OFFCURVE",
"797 410 OFFCURVE",
"760 373 CURVE SMOOTH",
"601 215 LINE SMOOTH",
"552 166 OFFCURVE",
"502 142 OFFCURVE",
"451 142 CURVE SMOOTH",
"410 142 OFFCURVE",
"373 158 OFFCURVE",
"340 191 CURVE SMOOTH",
"321 210 OFFCURVE",
"320 242 OFFCURVE",
"339 261 CURVE SMOOTH",
"348 270 OFFCURVE",
"360 275 OFFCURVE",
"374 275 CURVE SMOOTH",
"388 275 OFFCURVE",
"400 270 OFFCURVE",
"409 261 CURVE SMOOTH",
"421 249 OFFCURVE",
"427 245 OFFCURVE",
"448 241 CURVE SMOOTH",
"468 237 OFFCURVE",
"496 252 OFFCURVE",
"531 285 CURVE SMOOTH",
"690 443 LINE SMOOTH",
"707 460 OFFCURVE",
"716 481 OFFCURVE",
"716 506 CURVE SMOOTH",
"716 554 OFFCURVE",
"673 593 OFFCURVE",
"633 599 CURVE SMOOTH",
"612 602 OFFCURVE",
"592 595 OFFCURVE",
"572 578 CURVE",
"522 528 LINE SMOOTH",
"513 519 OFFCURVE",
"501 514 OFFCURVE",
"487 514 CURVE SMOOTH",
"459 514 OFFCURVE",
"438 535 OFFCURVE",
"438 563 CURVE SMOOTH",
"438 577 OFFCURVE",
"443 589 OFFCURVE",
"452 598 CURVE SMOOTH",
"503 648 LINE SMOOTH",
"575 719 OFFCURVE",
"683 715 OFFCURVE",
"760 638 CURVE SMOOTH"
);
}
);
width = 830;
}
);
unicode = 1F517;
},
{
glyphname = lock;
layers = (
{
layerId = "B718D8F3-CB97-43BD-9E0D-52F1AEE8232C";
name = Regular;
paths = (
{
closed = 1;
nodes = (
"655 425 LINE SMOOTH",
"683 425 OFFCURVE",
"715 393 OFFCURVE",
"715 365 CURVE SMOOTH",
"715 -25 LINE SMOOTH",
"715 -53 OFFCURVE",
"694 -82 OFFCURVE",
"667 -90 CURVE",
"608 -110 LINE SMOOTH",
"575 -120 OFFCURVE",
"543 -125 OFFCURVE",
"510 -125 CURVE SMOOTH",
"220 -125 LINE SMOOTH",
"187 -125 OFFCURVE",
"155 -120 OFFCURVE",
"122 -110 CURVE SMOOTH",
"63 -90 LINE",
"36 -82 OFFCURVE",
"15 -53 OFFCURVE",
"15 -25 CURVE SMOOTH",
"15 365 LINE SMOOTH",
"15 394 OFFCURVE",
"38 425 OFFCURVE",
"65 425 CURVE SMOOTH",
"165 425 LINE",
"165 495 LINE SMOOTH",
"165 642 OFFCURVE",
"234 725 OFFCURVE",
"365 725 CURVE SMOOTH",
"496 725 OFFCURVE",
"565 642 OFFCURVE",
"565 495 CURVE SMOOTH",
"565 425 LINE"
);
},
{
closed = 1;
nodes = (
"265 425 LINE",
"465 425 LINE",
"465 515 LINE SMOOTH",
"465 586 OFFCURVE",
"426 625 OFFCURVE",
"365 625 CURVE SMOOTH",
"304 625 OFFCURVE",
"265 586 OFFCURVE",
"265 515 CURVE SMOOTH"
);
}
);
width = 730;
}
);
unicode = 1F512;
},
{
glyphname = lowBrightnessSymbol;
layers = (
{
layerId = "B718D8F3-CB97-43BD-9E0D-52F1AEE8232C";
name = Regular;
paths = (
{
closed = 1;
nodes = (
"283 445 OFFCURVE",
"320 460 OFFCURVE",
"365 460 CURVE SMOOTH",
"454 460 OFFCURVE",
"525 389 OFFCURVE",
"525 300 CURVE SMOOTH",
"525 211 OFFCURVE",
"454 140 OFFCURVE",
"365 140 CURVE SMOOTH",
"276 140 OFFCURVE",
"205 211 OFFCURVE",
"205 300 CURVE SMOOTH",
"205 345 OFFCURVE",
"221 383 OFFCURVE",
"252 414 CURVE SMOOTH"
);
},
{
closed = 1;
nodes = (
"312 207 OFFCURVE",
"336 197 OFFCURVE",
"365 197 CURVE SMOOTH",
"422 197 OFFCURVE",
"468 243 OFFCURVE",
"468 300 CURVE SMOOTH",
"468 357 OFFCURVE",
"422 402 OFFCURVE",
"365 402 CURVE SMOOTH",
"308 402 OFFCURVE",
"262 357 OFFCURVE",
"262 300 CURVE SMOOTH",
"262 271 OFFCURVE",
"272 247 OFFCURVE",
"292 227 CURVE SMOOTH"
);
},
{
closed = 1;
nodes = (
"39 336 OFFCURVE",
"51 340 OFFCURVE",
"65 340 CURVE SMOOTH",
"93 340 OFFCURVE",
"114 323 OFFCURVE",
"114 300 CURVE SMOOTH",
"114 277 OFFCURVE",
"93 260 OFFCURVE",
"65 260 CURVE SMOOTH",
"37 260 OFFCURVE",
"15 277 OFFCURVE",
"15 300 CURVE SMOOTH",
"15 311 OFFCURVE",
"20 321 OFFCURVE",
"30 329 CURVE SMOOTH"
);
},
{
closed = 1;
nodes = (
"604 558 OFFCURVE",
"623 539 OFFCURVE",
"620 515 CURVE SMOOTH",
"617 491 OFFCURVE",
"594 468 OFFCURVE",
"570 465 CURVE SMOOTH",
"546 462 OFFCURVE",
"527 481 OFFCURVE",
"530 505 CURVE SMOOTH",
"533 529 OFFCURVE",
"556 552 OFFCURVE",
"580 555 CURVE SMOOTH"
);
},
{
closed = 1;
nodes = (
"639 336 OFFCURVE",
"651 340 OFFCURVE",
"665 340 CURVE SMOOTH",
"693 340 OFFCURVE",
"715 323 OFFCURVE",
"715 300 CURVE SMOOTH",
"715 277 OFFCURVE",
"693 260 OFFCURVE",
"665 260 CURVE SMOOTH",
"637 260 OFFCURVE",
"616 277 OFFCURVE",
"616 300 CURVE SMOOTH",
"616 311 OFFCURVE",
"621 321 OFFCURVE",
"630 329 CURVE"
);
},
{
closed = 1;
nodes = (
"344 45 OFFCURVE",
"354 50 OFFCURVE",
"365 50 CURVE SMOOTH",
"388 50 OFFCURVE",
"405 28 OFFCURVE",
"405 0 CURVE SMOOTH",
"405 -28 OFFCURVE",
"388 -50 OFFCURVE",
"365 -50 CURVE SMOOTH",
"342 -50 OFFCURVE",
"325 -28 OFFCURVE",
"325 0 CURVE SMOOTH",
"325 14 OFFCURVE",
"329 26 OFFCURVE",
"337 36 CURVE SMOOTH"
);
},
{
closed = 1;
nodes = (
"113 104 OFFCURVE",
"136 127 OFFCURVE",
"160 130 CURVE SMOOTH",
"184 133 OFFCURVE",
"203 114 OFFCURVE",
"200 90 CURVE SMOOTH",
"197 66 OFFCURVE",
"174 43 OFFCURVE",
"150 40 CURVE SMOOTH",
"126 37 OFFCURVE",
"107 56 OFFCURVE",
"110 80 CURVE SMOOTH"
);
},
{
closed = 1;
nodes = (
"104 537 OFFCURVE",
"123 556 OFFCURVE",
"148 553 CURVE SMOOTH",
"172 550 OFFCURVE",
"195 527 OFFCURVE",
"198 503 CURVE SMOOTH",
"201 478 OFFCURVE",
"182 459 OFFCURVE",
"158 462 CURVE SMOOTH",
"133 465 OFFCURVE",
"110 488 OFFCURVE",
"107 513 CURVE SMOOTH"
);
},
{
closed = 1;
nodes = (
"558 45 OFFCURVE",
"535 68 OFFCURVE",
"532 93 CURVE SMOOTH",
"529 117 OFFCURVE",
"548 136 OFFCURVE",
"573 133 CURVE SMOOTH",
"597 130 OFFCURVE",
"620 107 OFFCURVE",
"623 83 CURVE SMOOTH",
"626 58 OFFCURVE",
"607 39 OFFCURVE",
"583 42 CURVE SMOOTH"
);
},
{
closed = 1;
nodes = (
"386 555 OFFCURVE",
"376 550 OFFCURVE",
"365 550 CURVE SMOOTH",
"342 550 OFFCURVE",
"325 572 OFFCURVE",
"325 600 CURVE SMOOTH",
"325 628 OFFCURVE",
"342 650 OFFCURVE",
"365 650 CURVE SMOOTH",
"388 650 OFFCURVE",
"405 628 OFFCURVE",
"405 600 CURVE SMOOTH",
"405 586 OFFCURVE",
"401 574 OFFCURVE",
"394 565 CURVE SMOOTH"
);
}
);
width = 730;
}
);
unicode = 1F505;
},
{
glyphname = lowerRightPencil;
layers = (
{
layerId = "B718D8F3-CB97-43BD-9E0D-52F1AEE8232C";
name = Regular;
paths = (
{
closed = 1;
nodes = (
"776 585 OFFCURVE",
"796 538 OFFCURVE",
"795 518 CURVE SMOOTH",
"794 502 LINE",
"794 502 OFFCURVE",
"704 412 OFFCURVE",
"524 231 CURVE SMOOTH",
"253 -40 LINE",
"15 -90 LINE",
"66 148 LINE",
"607 689 LINE",
"608 689 OFFCURVE",
"610 689 OFFCURVE",
"613 690 CURVE",
"618 690 OFFCURVE",
"639 688 OFFCURVE",
"658 681 CURVE",
"677 673 OFFCURVE",
"706 655 OFFCURVE",
"733 628 CURVE SMOOTH"
);
},
{
closed = 1;
nodes = (
"239 -11 LINE",
"262 13 LINE",
"262 42 OFFCURVE",
"245 74 OFFCURVE",
"212 107 CURVE SMOOTH",
"183 136 OFFCURVE",
"147 153 OFFCURVE",
"130 156 CURVE",
"118 157 LINE",
"94 134 LINE",
"77 53 LINE",
"109 36 OFFCURVE",
"141 4 OFFCURVE",
"158 -28 CURVE"
);
}
);
width = 810;
}
);
unicode = 270E;
},
{
glyphname = mediumBlackCircle;
layers = (
{
layerId = "B718D8F3-CB97-43BD-9E0D-52F1AEE8232C";
name = Regular;
paths = (
{
closed = 1;
nodes = (
"186 616 OFFCURVE",
"268 650 OFFCURVE",
"365 650 CURVE SMOOTH",
"558 650 OFFCURVE",
"715 493 OFFCURVE",
"715 300 CURVE SMOOTH",
"715 107 OFFCURVE",
"558 -50 OFFCURVE",
"365 -50 CURVE SMOOTH",
"172 -50 OFFCURVE",
"15 107 OFFCURVE",
"15 300 CURVE SMOOTH",
"15 397 OFFCURVE",
"49 479 OFFCURVE",
"118 548 CURVE SMOOTH"
);
}
);
width = 730;
}
);
unicode = 26AB;
},
{
glyphname = microphone;
layers = (
{
layerId = "B718D8F3-CB97-43BD-9E0D-52F1AEE8232C";
name = Regular;
paths = (
{
closed = 1;
nodes = (
"635 438 LINE SMOOTH",
"646 438 OFFCURVE",
"655 429 OFFCURVE",
"655 418 CURVE SMOOTH",
"655 280 LINE SMOOTH",
"655 156 OFFCURVE",
"561 47 OFFCURVE",
"385 32 CURVE",
"385 -100 LINE",
"515 -100 LINE SMOOTH",
"526 -100 OFFCURVE",
"535 -109 OFFCURVE",
"535 -120 CURVE SMOOTH",
"535 -180 LINE SMOOTH",
"535 -191 OFFCURVE",
"526 -200 OFFCURVE",
"515 -200 CURVE SMOOTH",
"155 -200 LINE SMOOTH",
"144 -200 OFFCURVE",
"135 -191 OFFCURVE",
"135 -180 CURVE SMOOTH",
"135 -120 LINE SMOOTH",
"135 -109 OFFCURVE",
"144 -100 OFFCURVE",
"155 -100 CURVE SMOOTH",
"285 -100 LINE",
"285 32 LINE",
"109 47 OFFCURVE",
"15 156 OFFCURVE",
"15 280 CURVE SMOOTH",
"15 418 LINE SMOOTH",
"15 429 OFFCURVE",
"24 438 OFFCURVE",
"35 438 CURVE SMOOTH",
"65 438 LINE SMOOTH",
"76 438 OFFCURVE",
"85 429 OFFCURVE",
"85 418 CURVE SMOOTH",
"85 280 LINE SMOOTH",
"85 243 OFFCURVE",
"100 204 OFFCURVE",
"136 165 CURVE SMOOTH",
"171 126 OFFCURVE",
"242 100 OFFCURVE",
"335 100 CURVE SMOOTH",
"428 100 OFFCURVE",
"499 126 OFFCURVE",
"535 165 CURVE SMOOTH",
"570 204 OFFCURVE",
"585 243 OFFCURVE",
"585 280 CURVE SMOOTH",
"585 418 LINE SMOOTH",
"585 429 OFFCURVE",
"594 438 OFFCURVE",
"605 438 CURVE SMOOTH"
);
},
{
closed = 1;
nodes = (
"426 208 OFFCURVE",
"388 200 OFFCURVE",
"335 200 CURVE SMOOTH",
"282 200 OFFCURVE",
"244 208 OFFCURVE",
"221 225 CURVE SMOOTH",
"197 242 OFFCURVE",
"185 260 OFFCURVE",
"185 280 CURVE SMOOTH",
"185 438 LINE",
"485 438 LINE",
"485 280 LINE SMOOTH",
"485 260 OFFCURVE",
"473 242 OFFCURVE",
"450 225 CURVE SMOOTH"
);
},
{
closed = 1;
nodes = (
"485 508 LINE",
"185 508 LINE",
"185 720 LINE SMOOTH",
"185 740 OFFCURVE",
"197 758 OFFCURVE",
"221 775 CURVE SMOOTH",
"244 792 OFFCURVE",
"282 800 OFFCURVE",
"335 800 CURVE SMOOTH",
"388 800 OFFCURVE",
"426 792 OFFCURVE",
"450 775 CURVE SMOOTH",
"473 758 OFFCURVE",
"485 740 OFFCURVE",
"485 720 CURVE SMOOTH"
);
}
);
width = 670;
}
);
unicode = 1F3A4;
},
{
glyphname = multiplicationX;
layers = (
{
layerId = "B718D8F3-CB97-43BD-9E0D-52F1AEE8232C";
name = Regular;
paths = (
{
closed = 1;
nodes = (
"467 142 LINE",
"478 131 OFFCURVE",
"484 117 OFFCURVE",
"484 100 CURVE SMOOTH",
"484 67 OFFCURVE",
"458 41 OFFCURVE",
"425 41 CURVE SMOOTH",
"408 41 OFFCURVE",
"394 47 OFFCURVE",
"383 58 CURVE",
"250 209 LINE",
"117 58 LINE",
"106 47 OFFCURVE",
"92 41 OFFCURVE",
"75 41 CURVE SMOOTH",
"42 41 OFFCURVE",
"16 67 OFFCURVE",
"16 100 CURVE SMOOTH",
"16 117 OFFCURVE",
"22 131 OFFCURVE",
"33 142 CURVE",
"170 300 LINE",
"33 458 LINE",
"22 469 OFFCURVE",
"16 483 OFFCURVE",
"16 500 CURVE SMOOTH",
"16 533 OFFCURVE",
"42 559 OFFCURVE",
"75 559 CURVE SMOOTH",
"92 559 OFFCURVE",
"106 553 OFFCURVE",
"117 542 CURVE",
"250 391 LINE",
"383 542 LINE",
"394 553 OFFCURVE",
"408 559 OFFCURVE",
"425 559 CURVE SMOOTH",
"458 559 OFFCURVE",
"484 533 OFFCURVE",
"484 500 CURVE SMOOTH",
"484 483 OFFCURVE",
"478 469 OFFCURVE",
"467 458 CURVE",
"330 300 LINE"
);
}
);
width = 500;
}
);
unicode = 2715;
},
{
glyphname = openBook;
layers = (
{
layerId = "B718D8F3-CB97-43BD-9E0D-52F1AEE8232C";
name = Regular;
paths = (
{
closed = 1;
nodes = (
"355 186 LINE",
"355 119 LINE",
"155 199 LINE",
"155 266 LINE"
);
},
{
closed = 1;
nodes = (
"355 394 LINE",
"355 326 LINE",
"155 406 LINE",
"155 474 LINE"
);
},
{
closed = 1;
nodes = (
"846 746 LINE SMOOTH",
"881 759 OFFCURVE",
"915 732 OFFCURVE",
"915 700 CURVE SMOOTH",
"915 60 LINE SMOOTH",
"915 38 OFFCURVE",
"905 23 OFFCURVE",
"884 14 CURVE SMOOTH",
"484 -146 LINE",
"483 -146 OFFCURVE",
"481 -146 OFFCURVE",
"479 -147 CURVE",
"474 -149 OFFCURVE",
"469 -150 OFFCURVE",
"465 -150 CURVE SMOOTH",
"461 -150 OFFCURVE",
"456 -149 OFFCURVE",
"452 -147 CURVE",
"449 -146 OFFCURVE",
"447 -146 OFFCURVE",
"446 -146 CURVE",
"46 14 LINE SMOOTH",
"25 23 OFFCURVE",
"15 38 OFFCURVE",
"15 60 CURVE SMOOTH",
"15 700 LINE SMOOTH",
"15 732 OFFCURVE",
"49 759 OFFCURVE",
"84 746 CURVE SMOOTH",
"465 594 LINE"
);
},
{
closed = 1;
nodes = (
"415 -48 LINE",
"415 513 LINE",
"95 641 LINE",
"95 80 LINE"
);
},
{
closed = 1;
nodes = (
"835 80 LINE",
"835 641 LINE",
"515 513 LINE",
"515 -48 LINE"
);
},
{
closed = 1;
nodes = (
"775 266 LINE",
"775 199 LINE",
"575 119 LINE",
"575 186 LINE"
);
},
{
closed = 1;
nodes = (
"775 474 LINE",
"775 406 LINE",
"575 326 LINE",
"575 394 LINE"
);
}
);
width = 930;
}
);
unicode = 1F4D6;
},
{
glyphname = openFileFolder;
layers = (
{
layerId = "B718D8F3-CB97-43BD-9E0D-52F1AEE8232C";
name = Regular;
paths = (
{
closed = 1;
nodes = (
"0 129 LINE",
"0 665 LINE SMOOTH",
"0 697 OFFCURVE",
"27 724 OFFCURVE",
"59 724 CURVE SMOOTH",
"415 724 LINE SMOOTH",
"447 724 OFFCURVE",
"474 697 OFFCURVE",
"474 665 CURVE SMOOTH",
"474 633 OFFCURVE",
"500 606 OFFCURVE",
"533 606 CURVE SMOOTH",
"760 606 LINE SMOOTH",
"792 606 OFFCURVE",
"819 578 OFFCURVE",
"819 546 CURVE SMOOTH",
"819 432 LINE",
"187 432 LINE SMOOTH",
"162 432 OFFCURVE",
"138 423 OFFCURVE",
"117 408 CURVE SMOOTH",
"96 393 OFFCURVE",
"80 373 OFFCURVE",
"72 349 CURVE SMOOTH"
);
},
{
closed = 1;
nodes = (
"22 -66 LINE",
"148 325 LINE SMOOTH",
"153 340 OFFCURVE",
"173 353 OFFCURVE",
"188 353 CURVE SMOOTH",
"947 353 LINE",
"814 -36 LINE",
"810 -52 OFFCURVE",
"789 -66 OFFCURVE",
"774 -66 CURVE SMOOTH"
);
}
);
width = 947;
}
);
unicode = 1F4C2;
},
{
glyphname = openLock;
layers = (
{
layerId = "B718D8F3-CB97-43BD-9E0D-52F1AEE8232C";
name = Regular;
paths = (
{
closed = 1;
nodes = (
"655 400 LINE SMOOTH",
"683 400 OFFCURVE",
"715 368 OFFCURVE",
"715 340 CURVE SMOOTH",
"715 -50 LINE SMOOTH",
"715 -78 OFFCURVE",
"694 -107 OFFCURVE",
"667 -115 CURVE",
"608 -135 LINE SMOOTH",
"575 -145 OFFCURVE",
"543 -150 OFFCURVE",
"510 -150 CURVE SMOOTH",
"220 -150 LINE SMOOTH",
"187 -150 OFFCURVE",
"155 -145 OFFCURVE",
"122 -135 CURVE SMOOTH",
"63 -115 LINE",
"36 -107 OFFCURVE",
"15 -78 OFFCURVE",
"15 -50 CURVE SMOOTH",
"15 340 LINE SMOOTH",
"15 369 OFFCURVE",
"38 400 OFFCURVE",
"65 400 CURVE SMOOTH",
"465 400 LINE",
"465 540 LINE SMOOTH",
"465 611 OFFCURVE",
"426 650 OFFCURVE",
"365 650 CURVE SMOOTH",
"304 650 OFFCURVE",
"265 611 OFFCURVE",
"265 540 CURVE SMOOTH",
"265 500 LINE",
"165 500 LINE",
"165 520 LINE SMOOTH",
"165 667 OFFCURVE",
"234 750 OFFCURVE",
"365 750 CURVE SMOOTH",
"496 750 OFFCURVE",
"565 667 OFFCURVE",
"565 520 CURVE SMOOTH",
"565 400 LINE"
);
}
);
width = 730;
}
);
unicode = 1F513;
},
{
glyphname = opticalDisc;
layers = (
{
layerId = "B718D8F3-CB97-43BD-9E0D-52F1AEE8232C";
name = Regular;
paths = (
{
closed = 1;
nodes = (
"315 740 OFFCURVE",
"392 760 OFFCURVE",
"475 760 CURVE SMOOTH",
"642 760 OFFCURVE",
"792 672 OFFCURVE",
"874 531 CURVE SMOOTH",
"915 460 OFFCURVE",
"935 383 OFFCURVE",
"935 300 CURVE SMOOTH",
"935 133 OFFCURVE",
"847 -16 OFFCURVE",
"706 -98 CURVE SMOOTH",
"635 -139 OFFCURVE",
"558 -160 OFFCURVE",
"475 -160 CURVE SMOOTH",
"308 -160 OFFCURVE",
"159 -72 OFFCURVE",
"77 69 CURVE SMOOTH",
"36 140 OFFCURVE",
"15 217 OFFCURVE",
"15 300 CURVE SMOOTH",
"15 467 OFFCURVE",
"103 617 OFFCURVE",
"244 699 CURVE SMOOTH"
);
},
{
closed = 1;
nodes = (
"398 165 OFFCURVE",
"434 150 OFFCURVE",
"475 150 CURVE SMOOTH",
"558 150 OFFCURVE",
"625 217 OFFCURVE",
"625 300 CURVE SMOOTH",
"625 383 OFFCURVE",
"558 450 OFFCURVE",
"475 450 CURVE SMOOTH",
"392 450 OFFCURVE",
"325 383 OFFCURVE",
"325 300 CURVE SMOOTH",
"325 259 OFFCURVE",
"340 223 OFFCURVE",
"369 194 CURVE SMOOTH"
);
}
);
width = 950;
}
);
unicode = 1F4BF;
},
{
glyphname = outboxTray;
layers = (
{
layerId = "B718D8F3-CB97-43BD-9E0D-52F1AEE8232C";
name = Regular;
paths = (
{
closed = 1;
nodes = (
"515 725 LINE",
"785 471 LINE",
"635 471 LINE",
"635 225 LINE",
"395 225 LINE",
"395 471 LINE",
"245 471 LINE"
);
},
{
closed = 1;
nodes = (
"982 148 LINE",
"1006 135 OFFCURVE",
"1020 102 OFFCURVE",
"1013 75 CURVE",
"985 -78 LINE SMOOTH",
"980 -103 OFFCURVE",
"951 -125 OFFCURVE",
"923 -125 CURVE SMOOTH",
"107 -125 LINE SMOOTH",
"79 -125 OFFCURVE",
"50 -103 OFFCURVE",
"45 -78 CURVE SMOOTH",
"17 75 LINE",
"10 102 OFFCURVE",
"24 135 OFFCURVE",
"48 148 CURVE",
"207 255 LINE",
"305 255 LINE",
"135 125 LINE",
"313 125 LINE SMOOTH",
"319 125 OFFCURVE",
"323 123 OFFCURVE",
"325 118 CURVE",
"365 6 LINE",
"665 6 LINE",
"705 118 LINE",
"707 123 OFFCURVE",
"711 125 OFFCURVE",
"717 125 CURVE SMOOTH",
"895 125 LINE",
"725 255 LINE",
"823 255 LINE"
);
}
);
width = 1030;
}
);
unicode = 1F4E4;
},
{
glyphname = pageFacingUp;
layers = (
{
layerId = "B718D8F3-CB97-43BD-9E0D-52F1AEE8232C";
name = Regular;
paths = (
{
closed = 1;
nodes = (
"226 256 LINE",
"226 346 LINE",
"506 346 LINE",
"506 256 LINE"
);
},
{
closed = 1;
nodes = (
"615 750 LINE SMOOTH",
"670 750 OFFCURVE",
"715 705 OFFCURVE",
"715 650 CURVE SMOOTH",
"715 -50 LINE SMOOTH",
"715 -105 OFFCURVE",
"670 -150 OFFCURVE",
"615 -150 CURVE SMOOTH",
"115 -150 LINE SMOOTH",
"60 -150 OFFCURVE",
"15 -105 OFFCURVE",
"15 -50 CURVE SMOOTH",
"15 650 LINE SMOOTH",
"15 705 OFFCURVE",
"60 750 OFFCURVE",
"115 750 CURVE SMOOTH"
);
},
{
closed = 1;
nodes = (
"615 -50 LINE",
"615 650 LINE",
"115 650 LINE",
"115 -50 LINE"
);
},
{
closed = 1;
nodes = (
"505 541 LINE",
"505 454 LINE",
"225 454 LINE",
"225 541 LINE"
);
},
{
closed = 1;
nodes = (
"505 149 LINE",
"505 61 LINE",
"225 61 LINE",
"225 149 LINE"
);
}
);
width = 730;
}
);
unicode = 1F4C4;
},
{
glyphname = paperclip;
layers = (
{
layerId = "B718D8F3-CB97-43BD-9E0D-52F1AEE8232C";
name = Regular;
paths = (
{
closed = 1;
nodes = (
"182 -192 OFFCURVE",
"108 -154 OFFCURVE",
"65 -93 CURVE SMOOTH",
"21 -33 OFFCURVE",
"0 41 OFFCURVE",
"26 123 CURVE SMOOTH",
"39 164 OFFCURVE",
"63 202 OFFCURVE",
"98 237 CURVE",
"98 237 OFFCURVE",
"172 311 OFFCURVE",
"320 459 CURVE SMOOTH",
"593 733 LINE SMOOTH",
"642 782 OFFCURVE",
"708 802 OFFCURVE",
"769 786 CURVE SMOOTH",
"829 770 OFFCURVE",
"878 721 OFFCURVE",
"894 661 CURVE SMOOTH",
"910 600 OFFCURVE",
"890 534 OFFCURVE",
"841 485 CURVE SMOOTH",
"367 12 LINE SMOOTH",
"335 -20 OFFCURVE",
"298 -39 OFFCURVE",
"255 -35 CURVE SMOOTH",
"212 -31 OFFCURVE",
"182 2 OFFCURVE",
"174 38 CURVE SMOOTH",
"165 74 OFFCURVE",
"179 121 OFFCURVE",
"218 160 CURVE SMOOTH",
"551 492 LINE SMOOTH",
"558 499 OFFCURVE",
"567 502 OFFCURVE",
"576 502 CURVE SMOOTH",
"595 502 OFFCURVE",
"610 487 OFFCURVE",
"610 468 CURVE SMOOTH",
"610 459 OFFCURVE",
"607 450 OFFCURVE",
"600 443 CURVE SMOOTH",
"268 110 LINE SMOOTH",
"240 82 OFFCURVE",
"235 53 OFFCURVE",
"248 42 CURVE",
"254 36 OFFCURVE",
"262 34 OFFCURVE",
"271 35 CURVE SMOOTH",
"288 37 OFFCURVE",
"303 46 OFFCURVE",
"318 61 CURVE SMOOTH",
"791 535 LINE SMOOTH",
"824 570 OFFCURVE",
"836 606 OFFCURVE",
"826 643 CURVE SMOOTH",
"815 679 OFFCURVE",
"787 707 OFFCURVE",
"751 718 CURVE SMOOTH",
"713 729 OFFCURVE",
"677 717 OFFCURVE",
"643 683 CURVE",
"643 683 OFFCURVE",
"552 592 OFFCURVE",
"369 410 CURVE SMOOTH",
"147 188 LINE SMOOTH",
"88 129 OFFCURVE",
"74 58 OFFCURVE",
"92 3 CURVE SMOOTH",
"110 -52 OFFCURVE",
"155 -97 OFFCURVE",
"210 -115 CURVE SMOOTH",
"265 -133 OFFCURVE",
"336 -119 OFFCURVE",
"395 -60 CURVE SMOOTH",
"890 436 LINE SMOOTH",
"897 443 OFFCURVE",
"905 446 OFFCURVE",
"915 446 CURVE SMOOTH",
"935 446 OFFCURVE",
"950 431 OFFCURVE",
"950 411 CURVE SMOOTH",
"950 401 OFFCURVE",
"947 393 OFFCURVE",
"940 386 CURVE SMOOTH",
"444 -109 LINE SMOOTH",
"389 -164 OFFCURVE",
"327 -192 OFFCURVE",
"259 -192 CURVE SMOOTH"
);
}
);
width = 965;
}
);
unicode = 1F4CE;
},
{
glyphname = pencil;
layers = (
{
layerId = "B718D8F3-CB97-43BD-9E0D-52F1AEE8232C";
name = Regular;
paths = (
{
closed = 1;
nodes = (
"811 767 OFFCURVE",
"912 666 OFFCURVE",
"912 544 CURVE SMOOTH",
"912 483 OFFCURVE",
"890 430 OFFCURVE",
"846 386 CURVE SMOOTH",
"334 -127 LINE",
"18 -127 LINE",
"19 190 LINE",
"530 701 LINE SMOOTH",
"574 745 OFFCURVE",
"627 767 OFFCURVE",
"688 767 CURVE SMOOTH"
);
},
{
closed = 1;
nodes = (
"287 -15 LINE",
"308 6 OFFCURVE",
"319 33 OFFCURVE",
"319 64 CURVE SMOOTH",
"319 127 OFFCURVE",
"270 176 OFFCURVE",
"208 176 CURVE SMOOTH",
"177 176 OFFCURVE",
"150 165 OFFCURVE",
"128 143 CURVE",
"128 -15 LINE"
);
},
{
closed = 1;
nodes = (
"764 464 LINE",
"786 485 OFFCURVE",
"797 512 OFFCURVE",
"797 543 CURVE SMOOTH",
"797 606 OFFCURVE",
"747 654 OFFCURVE",
"686 654 CURVE SMOOTH",
"655 654 OFFCURVE",
"629 643 OFFCURVE",
"607 622 CURVE"
);
}
);
width = 928;
}
);
unicode = 270F;
},
{
glyphname = personalComputer;
layers = (
{
layerId = "B718D8F3-CB97-43BD-9E0D-52F1AEE8232C";
name = Regular;
paths = (
{
closed = 1;
nodes = (
"915 740 LINE SMOOTH",
"970 740 OFFCURVE",
"1015 695 OFFCURVE",
"1015 640 CURVE SMOOTH",
"1015 90 LINE SMOOTH",
"1015 35 OFFCURVE",
"970 -19 OFFCURVE",
"917 -30 CURVE SMOOTH",
"698 -73 LINE",
"698 -73 OFFCURVE",
"721 -82 OFFCURVE",
"766 -101 CURVE",
"820 -127 OFFCURVE",
"820 -140 OFFCURVE",
"765 -140 CURVE SMOOTH",
"265 -140 LINE SMOOTH",
"148 -140 OFFCURVE",
"253 -105 OFFCURVE",
"332 -73 CURVE",
"113 -30 LINE SMOOTH",
"60 -19 OFFCURVE",
"15 35 OFFCURVE",
"15 90 CURVE SMOOTH",
"15 640 LINE SMOOTH",
"15 695 OFFCURVE",
"60 740 OFFCURVE",
"115 740 CURVE SMOOTH"
);
},
{
closed = 1;
nodes = (
"915 95 LINE",
"915 650 LINE",
"115 650 LINE",
"115 95 LINE"
);
}
);
width = 1030;
}
);
unicode = 1F4BB;
},
{
glyphname = pushpin;
layers = (
{
layerId = "B718D8F3-CB97-43BD-9E0D-52F1AEE8232C";
name = Regular;
paths = (
{
closed = 1;
nodes = (
"307 28 LINE",
"502 238 LINE",
"481 264 LINE",
"471 271 OFFCURVE",
"456 284 OFFCURVE",
"435 305 CURVE SMOOTH",
"370 370 OFFCURVE",
"338 405 OFFCURVE",
"338 412 CURVE SMOOTH",
"338 419 OFFCURVE",
"348 422 OFFCURVE",
"368 422 CURVE SMOOTH",
"389 422 LINE",
"410 422 LINE",
"425 422 LINE SMOOTH",
"493 422 OFFCURVE",
"541 429 OFFCURVE",
"568 443 CURVE",
"572 446 OFFCURVE",
"587 453 OFFCURVE",
"614 464 CURVE SMOOTH",
"631 471 OFFCURVE",
"650 479 OFFCURVE",
"671 489 CURVE",
"674 492 OFFCURVE",
"680 497 OFFCURVE",
"688 504 CURVE SMOOTH",
"712 525 LINE",
"725 545 OFFCURVE",
"732 562 OFFCURVE",
"732 576 CURVE",
"729 589 OFFCURVE",
"727 600 OFFCURVE",
"727 607 CURVE SMOOTH",
"727 638 OFFCURVE",
"732 653 OFFCURVE",
"743 653 CURVE SMOOTH",
"753 653 OFFCURVE",
"790 620 OFFCURVE",
"855 555 CURVE",
"926 490 OFFCURVE",
"962 451 OFFCURVE",
"962 438 CURVE",
"952 427 OFFCURVE",
"940 422 OFFCURVE",
"927 422 CURVE SMOOTH",
"916 422 LINE",
"901 422 LINE",
"886 422 LINE SMOOTH",
"872 422 OFFCURVE",
"855 415 OFFCURVE",
"835 402 CURVE",
"818 385 OFFCURVE",
"806 371 OFFCURVE",
"799 361 CURVE",
"788 340 OFFCURVE",
"780 322 OFFCURVE",
"773 305 CURVE",
"770 294 OFFCURVE",
"765 284 OFFCURVE",
"758 274 CURVE",
"752 264 LINE",
"742 250 OFFCURVE",
"737 233 OFFCURVE",
"737 212 CURVE",
"730 185 OFFCURVE",
"727 170 OFFCURVE",
"727 167 CURVE SMOOTH",
"727 151 LINE",
"727 110 LINE",
"732 64 LINE",
"732 47 OFFCURVE",
"725 38 OFFCURVE",
"712 38 CURVE SMOOTH",
"705 38 OFFCURVE",
"682 57 OFFCURVE",
"645 95 CURVE SMOOTH",
"599 141 LINE",
"553 187 LINE",
"527 212 LINE"
);
}
);
width = 1228;
}
);
unicode = 1F4CC;
},
{
glyphname = sunriseOverMountains;
layers = (
{
layerId = "B718D8F3-CB97-43BD-9E0D-52F1AEE8232C";
name = Regular;
paths = (
{
closed = 1;
nodes = (
"871 466 LINE",
"771 466 LINE",
"647 617 LINE",
"433 466 LINE",
"253 466 LINE SMOOTH",
"182 466 OFFCURVE",
"125 408 OFFCURVE",
"125 336 CURVE SMOOTH",
"125 177 LINE",
"18 474 LINE SMOOTH",
"10 495 OFFCURVE",
"20 518 OFFCURVE",
"40 525 CURVE SMOOTH",
"720 773 LINE SMOOTH",
"740 780 OFFCURVE",
"761 769 OFFCURVE",
"769 748 CURVE SMOOTH"
);
},
{
closed = 1;
nodes = (
"977 376 LINE SMOOTH",
"998 376 OFFCURVE",
"1015 359 OFFCURVE",
"1015 336 CURVE SMOOTH",
"1015 -135 LINE SMOOTH",
"1015 -158 OFFCURVE",
"998 -175 OFFCURVE",
"977 -175 CURVE SMOOTH",
"253 -175 LINE SMOOTH",
"232 -175 OFFCURVE",
"215 -158 OFFCURVE",
"215 -135 CURVE SMOOTH",
"215 336 LINE SMOOTH",
"215 359 OFFCURVE",
"232 376 OFFCURVE",
"253 376 CURVE SMOOTH"
);
},
{
closed = 1;
nodes = (
"922 -75 LINE",
"922 86 LINE",
"849 247 LINE",
"682 187 LINE",
"553 54 LINE",
"414 226 LINE",
"322 11 LINE",
"322 -75 LINE"
);
}
);
width = 1030;
}
);
unicode = 1F304;
},
{
glyphname = telephoneReceiver;
lastChange = "2013-05-02 21:10:05 +0600";
layers = (
{
layerId = "B718D8F3-CB97-43BD-9E0D-52F1AEE8232C";
name = Regular;
paths = (
{
closed = 1;
nodes = (
"253 130 LINE SMOOTH",
"309 74 OFFCURVE",
"615 380 OFFCURVE",
"559 436 CURVE SMOOTH",
"533 462 OFFCURVE",
"517 480 OFFCURVE",
"512 490 CURVE SMOOTH",
"496 521 OFFCURVE",
"508 561 OFFCURVE",
"547 612 CURVE",
"549 615 OFFCURVE",
"551 618 OFFCURVE",
"554 621 CURVE",
"575 646 OFFCURVE",
"597 662 OFFCURVE",
"613 670 CURVE",
"629 677 OFFCURVE",
"652 672 OFFCURVE",
"664 669 CURVE",
"676 665 OFFCURVE",
"699 645 OFFCURVE",
"707 638 CURVE",
"711 634 OFFCURVE",
"718 627 OFFCURVE",
"727 618 CURVE SMOOTH",
"745 599 LINE SMOOTH",
"775 569 OFFCURVE",
"773 509 OFFCURVE",
"739 418 CURVE SMOOTH",
"670 237 OFFCURVE",
"452 19 OFFCURVE",
"271 -49 CURVE SMOOTH",
"180 -84 OFFCURVE",
"120 -86 OFFCURVE",
"90 -56 CURVE",
"90 -56 OFFCURVE",
"59 -26 OFFCURVE",
"52 -18 CURVE",
"44 -10 OFFCURVE",
"24 13 OFFCURVE",
"21 25 CURVE",
"17 37 OFFCURVE",
"12 60 OFFCURVE",
"20 76 CURVE",
"27 92 OFFCURVE",
"43 114 OFFCURVE",
"68 135 CURVE SMOOTH",
"116 174 OFFCURVE",
"150 191 OFFCURVE",
"179 184 CURVE",
"207 176 OFFCURVE",
"216 168 OFFCURVE",
"244 139 CURVE SMOOTH"
);
}
);
width = 780;
}
);
unicode = 1F4DE;
},
{
glyphname = thumbsDownSign;
layers = (
{
layerId = "B718D8F3-CB97-43BD-9E0D-52F1AEE8232C";
name = Regular;
paths = (
{
closed = 1;
nodes = (
"107 477 OFFCURVE",
"122 520 OFFCURVE",
"155 544 CURVE",
"103 704 OFFCURVE",
"345 701 OFFCURVE",
"548 638 CURVE SMOOTH",
"583 627 OFFCURVE",
"604 618 OFFCURVE",
"611 611 CURVE",
"611 669 LINE SMOOTH",
"611 685 OFFCURVE",
"625 699 OFFCURVE",
"640 699 CURVE SMOOTH",
"844 699 LINE SMOOTH",
"860 699 OFFCURVE",
"874 685 OFFCURVE",
"874 669 CURVE SMOOTH",
"874 188 LINE SMOOTH",
"874 172 OFFCURVE",
"860 159 OFFCURVE",
"844 159 CURVE SMOOTH",
"640 159 LINE SMOOTH",
"625 159 OFFCURVE",
"611 172 OFFCURVE",
"611 188 CURVE SMOOTH",
"611 220 LINE",
"554 181 OFFCURVE",
"497 87 OFFCURVE",
"479 39 CURVE SMOOTH",
"470 14 OFFCURVE",
"464 -2 OFFCURVE",
"462 -10 CURVE SMOOTH",
"446 -78 OFFCURVE",
"410 -112 OFFCURVE",
"355 -112 CURVE SMOOTH",
"294 -112 OFFCURVE",
"234 -49 OFFCURVE",
"234 59 CURVE SMOOTH",
"234 96 OFFCURVE",
"243 132 OFFCURVE",
"262 166 CURVE",
"244 166 LINE SMOOTH",
"157 166 OFFCURVE",
"90 211 OFFCURVE",
"114 308 CURVE",
"90 359 OFFCURVE",
"101 406 OFFCURVE",
"128 430 CURVE"
);
},
{
closed = 1;
nodes = (
"247 428 OFFCURVE",
"252 421 OFFCURVE",
"248 416 CURVE",
"246 413 OFFCURVE",
"243 412 OFFCURVE",
"238 412 CURVE SMOOTH",
"193 412 OFFCURVE",
"171 382 OFFCURVE",
"187 356 CURVE",
"194 343 OFFCURVE",
"208 336 OFFCURVE",
"229 335 CURVE",
"237 335 OFFCURVE",
"241 329 OFFCURVE",
"238 324 CURVE",
"236 321 OFFCURVE",
"233 320 OFFCURVE",
"229 320 CURVE SMOOTH",
"177 320 OFFCURVE",
"171 265 OFFCURVE",
"212 245 CURVE",
"221 240 OFFCURVE",
"232 238 OFFCURVE",
"244 238 CURVE SMOOTH",
"319 238 LINE SMOOTH",
"344 238 OFFCURVE",
"356 224 OFFCURVE",
"356 205 CURVE SMOOTH",
"356 196 OFFCURVE",
"348 175 OFFCURVE",
"331 140 CURVE SMOOTH",
"314 105 OFFCURVE",
"305 79 OFFCURVE",
"305 60 CURVE SMOOTH",
"305 1 OFFCURVE",
"332 -41 OFFCURVE",
"355 -41 CURVE SMOOTH",
"376 -41 OFFCURVE",
"388 -28 OFFCURVE",
"391 -2 CURVE SMOOTH",
"406 101 OFFCURVE",
"519 265 OFFCURVE",
"611 305 CURVE",
"611 531 LINE",
"518 577 OFFCURVE",
"416 601 OFFCURVE",
"304 604 CURVE SMOOTH",
"264 605 OFFCURVE",
"236 595 OFFCURVE",
"221 574 CURVE SMOOTH",
"208 557 OFFCURVE",
"214 542 OFFCURVE",
"239 529 CURVE",
"246 526 OFFCURVE",
"255 523 OFFCURVE",
"264 521 CURVE",
"284 518 OFFCURVE",
"282 502 OFFCURVE",
"266 502 CURVE SMOOTH",
"225 502 OFFCURVE",
"202 491 OFFCURVE",
"195 470 CURVE SMOOTH",
"189 453 OFFCURVE",
"197 441 OFFCURVE",
"219 432 CURVE",
"225 430 OFFCURVE",
"231 429 OFFCURVE",
"238 428 CURVE"
);
}
);
width = 998;
}
);
unicode = 1F44E;
},
{
glyphname = thumbsUpSign;
layers = (
{
layerId = "B718D8F3-CB97-43BD-9E0D-52F1AEE8232C";
name = Regular;
paths = (
{
closed = 1;
nodes = (
"15 329 LINE SMOOTH",
"15 353 OFFCURVE",
"29 375 OFFCURVE",
"58 375 CURVE SMOOTH",
"215 375 LINE",
"215 -25 LINE",
"60 -25 LINE SMOOTH",
"30 -25 OFFCURVE",
"15 -9 OFFCURVE",
"15 23 CURVE SMOOTH"
);
},
{
closed = 1;
nodes = (
"876 435 OFFCURVE",
"915 386 OFFCURVE",
"915 288 CURVE SMOOTH",
"915 47 LINE SMOOTH",
"915 -33 OFFCURVE",
"800 -125 OFFCURVE",
"696 -125 CURVE SMOOTH",
"485 -125 LINE SMOOTH",
"446 -125 OFFCURVE",
"416 -109 OFFCURVE",
"395 -90 CURVE SMOOTH",
"362 -60 LINE SMOOTH",
"341 -41 OFFCURVE",
"308 -25 OFFCURVE",
"265 -25 CURVE",
"265 375 LINE",
"281 375 LINE SMOOTH",
"356 375 OFFCURVE",
"472 502 OFFCURVE",
"496 579 CURVE SMOOTH",
"501 594 OFFCURVE",
"504 616 OFFCURVE",
"506 644 CURVE SMOOTH",
"509 700 OFFCURVE",
"516 725 OFFCURVE",
"555 725 CURVE SMOOTH",
"606 725 OFFCURVE",
"625 683 OFFCURVE",
"625 586 CURVE",
"615 430 LINE",
"700 433 OFFCURVE",
"761 435 OFFCURVE",
"799 435 CURVE SMOOTH"
);
}
);
width = 930;
}
);
unicode = 1F44D;
},
{
glyphname = trigramForHeaven;
layers = (
{
layerId = "B718D8F3-CB97-43BD-9E0D-52F1AEE8232C";
name = Regular;
paths = (
{
closed = 1;
nodes = (
"665 350 LINE SMOOTH",
"693 350 OFFCURVE",
"715 328 OFFCURVE",
"715 300 CURVE SMOOTH",
"715 272 OFFCURVE",
"693 250 OFFCURVE",
"665 250 CURVE SMOOTH",
"65 250 LINE SMOOTH",
"37 250 OFFCURVE",
"15 272 OFFCURVE",
"15 300 CURVE SMOOTH",
"15 328 OFFCURVE",
"37 350 OFFCURVE",
"65 350 CURVE SMOOTH"
);
},
{
closed = 1;
nodes = (
"65 450 LINE SMOOTH",
"37 450 OFFCURVE",
"15 472 OFFCURVE",
"15 500 CURVE SMOOTH",
"15 528 OFFCURVE",
"37 550 OFFCURVE",
"65 550 CURVE SMOOTH",
"665 550 LINE SMOOTH",
"693 550 OFFCURVE",
"715 528 OFFCURVE",
"715 500 CURVE SMOOTH",
"715 472 OFFCURVE",
"693 450 OFFCURVE",
"665 450 CURVE SMOOTH"
);
},
{
closed = 1;
nodes = (
"665 150 LINE SMOOTH",
"693 150 OFFCURVE",
"715 128 OFFCURVE",
"715 100 CURVE SMOOTH",
"715 72 OFFCURVE",
"693 50 OFFCURVE",
"665 50 CURVE SMOOTH",
"65 50 LINE SMOOTH",
"37 50 OFFCURVE",
"15 72 OFFCURVE",
"15 100 CURVE SMOOTH",
"15 128 OFFCURVE",
"37 150 OFFCURVE",
"65 150 CURVE SMOOTH"
);
}
);
width = 730;
}
);
unicode = 2630;
},
{
glyphname = trophy;
layers = (
{
layerId = "B718D8F3-CB97-43BD-9E0D-52F1AEE8232C";
name = Regular;
paths = (
{
closed = 1;
nodes = (
"524 17 LINE",
"619 6 OFFCURVE",
"687 -29 OFFCURVE",
"687 -70 CURVE SMOOTH",
"687 -95 OFFCURVE",
"665 -116 OFFCURVE",
"622 -133 CURVE SMOOTH",
"579 -151 OFFCURVE",
"526 -160 OFFCURVE",
"465 -160 CURVE SMOOTH",
"404 -160 OFFCURVE",
"351 -151 OFFCURVE",
"308 -133 CURVE SMOOTH",
"265 -116 OFFCURVE",
"243 -95 OFFCURVE",
"243 -70 CURVE SMOOTH",
"243 -29 OFFCURVE",
"311 6 OFFCURVE",
"406 17 CURVE",
"406 82 LINE SMOOTH",
"406 149 OFFCURVE",
"366 185 OFFCURVE",
"261 254 CURVE SMOOTH",
"201 294 OFFCURVE",
"181 307 OFFCURVE",
"129 356 CURVE SMOOTH",
"76 405 OFFCURVE",
"54 445 OFFCURVE",
"32 517 CURVE SMOOTH",
"21 552 OFFCURVE",
"15 591 OFFCURVE",
"15 632 CURVE SMOOTH",
"15 651 OFFCURVE",
"30 667 OFFCURVE",
"50 667 CURVE SMOOTH",
"222 667 LINE",
"250 719 OFFCURVE",
"330 760 OFFCURVE",
"465 760 CURVE SMOOTH",
"600 760 OFFCURVE",
"680 719 OFFCURVE",
"708 667 CURVE",
"880 667 LINE SMOOTH",
"900 667 OFFCURVE",
"915 651 OFFCURVE",
"915 632 CURVE SMOOTH",
"915 549 OFFCURVE",
"889 475 OFFCURVE",
"862 428 CURVE SMOOTH",
"834 381 OFFCURVE",
"770 325 OFFCURVE",
"738 302 CURVE SMOOTH",
"722 290 OFFCURVE",
"699 274 OFFCURVE",
"669 254 CURVE SMOOTH",
"564 185 OFFCURVE",
"524 149 OFFCURVE",
"524 82 CURVE SMOOTH"
);
},
{
closed = 1;
nodes = (
"770 407 OFFCURVE",
"832 474 OFFCURVE",
"843 597 CURVE",
"717 597 LINE",
"714 492 OFFCURVE",
"696 405 OFFCURVE",
"663 335 CURVE"
);
},
{
closed = 1;
nodes = (
"515 697 OFFCURVE",
"491 699 OFFCURVE",
"465 699 CURVE SMOOTH",
"413 699 OFFCURVE",
"367 690 OFFCURVE",
"339 678 CURVE SMOOTH",
"311 666 OFFCURVE",
"290 650 OFFCURVE",
"282 638 CURVE",
"277 632 OFFCURVE",
"275 627 OFFCURVE",
"275 622 CURVE SMOOTH",
"275 613 OFFCURVE",
"283 601 OFFCURVE",
"303 586 CURVE SMOOTH",
"323 571 OFFCURVE",
"349 559 OFFCURVE",
"393 551 CURVE SMOOTH",
"415 547 OFFCURVE",
"439 545 OFFCURVE",
"465 545 CURVE SMOOTH",
"517 545 OFFCURVE",
"563 554 OFFCURVE",
"591 566 CURVE SMOOTH",
"619 578 OFFCURVE",
"640 594 OFFCURVE",
"649 606 CURVE",
"653 612 OFFCURVE",
"655 617 OFFCURVE",
"655 622 CURVE SMOOTH",
"655 631 OFFCURVE",
"647 643 OFFCURVE",
"627 658 CURVE SMOOTH",
"607 673 OFFCURVE",
"581 685 OFFCURVE",
"537 693 CURVE SMOOTH"
);
},
{
closed = 1;
nodes = (
"87 597 LINE",
"98 474 OFFCURVE",
"160 407 OFFCURVE",
"267 335 CURVE",
"234 405 OFFCURVE",
"216 492 OFFCURVE",
"213 597 CURVE"
);
}
);
width = 930;
}
);
unicode = 1F3C6;
},
{
glyphname = twistedRightwardsArrows;
layers = (
{
layerId = "B718D8F3-CB97-43BD-9E0D-52F1AEE8232C";
name = Regular;
paths = (
{
closed = 1;
nodes = (
"770 466 LINE SMOOTH",
"715 466 OFFCURVE",
"669 448 OFFCURVE",
"621 403 CURVE SMOOTH",
"597 380 OFFCURVE",
"578 360 OFFCURVE",
"563 342 CURVE SMOOTH",
"500 263 LINE SMOOTH",
"451 198 OFFCURVE",
"435 177 OFFCURVE",
"381 122 CURVE SMOOTH",
"327 67 OFFCURVE",
"289 45 OFFCURVE",
"223 23 CURVE SMOOTH",
"190 12 OFFCURVE",
"155 6 OFFCURVE",
"120 6 CURVE SMOOTH",
"15 6 LINE",
"15 146 LINE",
"120 146 LINE SMOOTH",
"164 146 OFFCURVE",
"209 165 OFFCURVE",
"240 185 CURVE SMOOTH",
"271 204 OFFCURVE",
"316 256 OFFCURVE",
"339 284 CURVE SMOOTH",
"389 348 LINE",
"389 348 OFFCURVE",
"443 419 OFFCURVE",
"487 468 CURVE SMOOTH",
"530 516 OFFCURVE",
"560 536 OFFCURVE",
"609 565 CURVE SMOOTH",
"657 594 OFFCURVE",
"710 606 OFFCURVE",
"770 606 CURVE SMOOTH",
"805 606 LINE",
"805 725 LINE",
"1015 545 LINE",
"805 365 LINE",
"805 466 LINE"
);
},
{
closed = 1;
nodes = (
"324 428 LINE",
"305 402 OFFCURVE",
"292 385 OFFCURVE",
"286 378 CURVE",
"233 430 OFFCURVE",
"177 456 OFFCURVE",
"120 456 CURVE SMOOTH",
"15 456 LINE",
"15 596 LINE",
"120 596 LINE SMOOTH",
"212 596 OFFCURVE",
"296 560 OFFCURVE",
"372 489 CURVE"
);
},
{
closed = 1;
nodes = (
"528 135 OFFCURVE",
"557 172 OFFCURVE",
"595 223 CURVE",
"651 165 OFFCURVE",
"709 136 OFFCURVE",
"770 136 CURVE SMOOTH",
"805 136 LINE",
"805 236 LINE",
"1015 56 LINE",
"805 -124 LINE",
"805 -4 LINE",
"770 -4 LINE SMOOTH",
"675 -4 OFFCURVE",
"588 35 OFFCURVE",
"508 112 CURVE"
);
}
);
width = 1030;
}
);
unicode = 1F500;
},
{
glyphname = umbrella;
layers = (
{
layerId = "B718D8F3-CB97-43BD-9E0D-52F1AEE8232C";
name = Regular;
paths = (
{
closed = 1;
nodes = (
"236 722 OFFCURVE",
"342 766 OFFCURVE",
"465 766 CURVE SMOOTH",
"711 766 OFFCURVE",
"911 565 OFFCURVE",
"911 320 CURVE",
"799 320 LINE",
"799 341 OFFCURVE",
"780 362 OFFCURVE",
"757 362 CURVE SMOOTH",
"734 362 OFFCURVE",
"715 341 OFFCURVE",
"715 320 CURVE",
"604 320 LINE",
"604 341 OFFCURVE",
"584 362 OFFCURVE",
"562 362 CURVE SMOOTH",
"540 362 OFFCURVE",
"521 341 OFFCURVE",
"521 320 CURVE SMOOTH",
"521 41 LINE SMOOTH",
"521 -51 OFFCURVE",
"445 -127 OFFCURVE",
"353 -127 CURVE SMOOTH",
"260 -127 OFFCURVE",
"186 -51 OFFCURVE",
"186 41 CURVE",
"298 41 LINE",
"298 9 OFFCURVE",
"322 -15 OFFCURVE",
"353 -15 CURVE SMOOTH",
"385 -15 OFFCURVE",
"409 9 OFFCURVE",
"409 41 CURVE SMOOTH",
"409 320 LINE SMOOTH",
"409 341 OFFCURVE",
"390 362 OFFCURVE",
"367 362 CURVE SMOOTH",
"344 362 OFFCURVE",
"325 341 OFFCURVE",
"325 320 CURVE",
"214 320 LINE",
"214 341 OFFCURVE",
"194 362 OFFCURVE",
"172 362 CURVE SMOOTH",
"150 362 OFFCURVE",
"130 341 OFFCURVE",
"130 320 CURVE",
"18 320 LINE",
"18 443 OFFCURVE",
"62 548 OFFCURVE",
"149 635 CURVE SMOOTH"
);
}
);
width = 928;
}
);
unicode = 2602;
},
{
glyphname = upBlackArrow;
layers = (
{
layerId = "B718D8F3-CB97-43BD-9E0D-52F1AEE8232C";
name = Regular;
paths = (
{
closed = 1;
nodes = (
"515 551 LINE",
"354 551 LINE",
"354 -190 LINE",
"176 -190 LINE",
"176 551 LINE",
"15 551 LINE",
"265 790 LINE"
);
}
);
width = 530;
}
);
unicode = 2B06;
},
{
glyphname = warningSign;
layers = (
{
layerId = "B718D8F3-CB97-43BD-9E0D-52F1AEE8232C";
name = Regular;
paths = (
{
closed = 1;
nodes = (
"971 -74 LINE",
"986 -98 OFFCURVE",
"964 -125 OFFCURVE",
"940 -125 CURVE SMOOTH",
"50 -125 LINE SMOOTH",
"26 -125 OFFCURVE",
"4 -98 OFFCURVE",
"19 -74 CURVE",
"465 708 LINE SMOOTH",
"471 719 OFFCURVE",
"481 725 OFFCURVE",
"495 725 CURVE SMOOTH",
"509 725 OFFCURVE",
"519 719 OFFCURVE",
"525 708 CURVE SMOOTH"
);
},
{
closed = 1;
nodes = (
"556 -25 LINE",
"556 75 LINE",
"434 75 LINE",
"434 -25 LINE"
);
},
{
closed = 1;
nodes = (
"556 150 LINE",
"556 450 LINE",
"434 450 LINE",
"434 150 LINE"
);
}
);
width = 990;
}
);
unicode = 26A0;
},
{
glyphname = whitestar;
layers = (
{
layerId = "B718D8F3-CB97-43BD-9E0D-52F1AEE8232C";
name = Regular;
paths = (
{
closed = 1;
nodes = (
"895 404 LINE",
"633 206 LINE",
"727 -140 LINE",
"455 68 LINE",
"183 -140 LINE",
"277 206 LINE",
"15 404 LINE",
"336 404 LINE",
"455 740 LINE",
"574 404 LINE"
);
},
{
closed = 1;
nodes = (
"455 166 LINE",
"606 41 LINE",
"544 219 LINE",
"686 334 LINE",
"510 329 LINE",
"455 531 LINE",
"400 329 LINE",
"224 334 LINE",
"366 219 LINE",
"304 41 LINE"
);
}
);
width = 910;
}
);
unicode = 2B52;
},
{
glyphname = wrappedPresent;
layers = (
{
layerId = "B718D8F3-CB97-43BD-9E0D-52F1AEE8232C";
name = Regular;
paths = (
{
closed = 1;
nodes = (
"0 428 LINE SMOOTH",
"0 439 OFFCURVE",
"9 448 OFFCURVE",
"20 448 CURVE SMOOTH",
"292 448 LINE",
"253 448 OFFCURVE",
"219 463 OFFCURVE",
"194 488 CURVE SMOOTH",
"169 513 OFFCURVE",
"153 548 OFFCURVE",
"153 586 CURVE SMOOTH",
"153 624 OFFCURVE",
"169 659 OFFCURVE",
"194 684 CURVE SMOOTH",
"219 708 OFFCURVE",
"253 724 OFFCURVE",
"292 724 CURVE SMOOTH",
"332 724 OFFCURVE",
"371 707 OFFCURVE",
"395 676 CURVE SMOOTH",
"474 574 LINE",
"553 676 LINE SMOOTH",
"577 707 OFFCURVE",
"615 724 OFFCURVE",
"656 724 CURVE SMOOTH",
"693 724 OFFCURVE",
"729 708 OFFCURVE",
"754 684 CURVE SMOOTH",
"779 659 OFFCURVE",
"795 624 OFFCURVE",
"795 586 CURVE SMOOTH",
"795 548 OFFCURVE",
"779 513 OFFCURVE",
"754 488 CURVE SMOOTH",
"729 463 OFFCURVE",
"693 448 OFFCURVE",
"656 448 CURVE",
"927 448 LINE SMOOTH",
"939 448 OFFCURVE",
"947 439 OFFCURVE",
"947 428 CURVE SMOOTH",
"947 230 LINE SMOOTH",
"947 219 OFFCURVE",
"939 211 OFFCURVE",
"927 211 CURVE SMOOTH",
"868 211 LINE",
"868 -7 LINE SMOOTH",
"868 -39 OFFCURVE",
"842 -66 OFFCURVE",
"809 -66 CURVE SMOOTH",
"138 -66 LINE SMOOTH",
"106 -66 OFFCURVE",
"79 -39 OFFCURVE",
"79 -7 CURVE SMOOTH",
"79 211 LINE",
"20 211 LINE SMOOTH",
"9 211 OFFCURVE",
"0 219 OFFCURVE",
"0 230 CURVE SMOOTH"
);
},
{
closed = 1;
nodes = (
"238 616 OFFCURVE",
"232 602 OFFCURVE",
"232 586 CURVE SMOOTH",
"232 554 OFFCURVE",
"259 527 OFFCURVE",
"292 527 CURVE SMOOTH",
"411 527 LINE",
"334 626 LINE",
"326 633 OFFCURVE",
"312 645 OFFCURVE",
"292 645 CURVE SMOOTH",
"275 645 OFFCURVE",
"261 639 OFFCURVE",
"250 628 CURVE SMOOTH"
);
},
{
closed = 1;
nodes = (
"375 45 LINE SMOOTH",
"375 24 OFFCURVE",
"392 6 OFFCURVE",
"415 6 CURVE SMOOTH",
"533 6 LINE SMOOTH",
"554 6 OFFCURVE",
"573 24 OFFCURVE",
"573 45 CURVE SMOOTH",
"573 448 LINE",
"375 448 LINE"
);
},
{
closed = 1;
nodes = (
"536 527 LINE",
"656 527 LINE SMOOTH",
"688 527 OFFCURVE",
"716 554 OFFCURVE",
"716 586 CURVE SMOOTH",
"716 618 OFFCURVE",
"688 645 OFFCURVE",
"656 645 CURVE SMOOTH",
"635 645 OFFCURVE",
"621 633 OFFCURVE",
"614 626 CURVE"
);
}
);
width = 947;
}
);
unicode = 1F381;
},
{
glyphname = wrench;
layers = (
{
layerId = "B718D8F3-CB97-43BD-9E0D-52F1AEE8232C";
name = Regular;
paths = (
{
closed = 1;
nodes = (
"986 420 LINE SMOOTH",
"1002 404 OFFCURVE",
"1002 387 OFFCURVE",
"986 370 CURVE SMOOTH",
"919 301 LINE",
"903 286 OFFCURVE",
"886 286 OFFCURVE",
"869 301 CURVE",
"854 318 LINE",
"842 327 OFFCURVE",
"837 347 OFFCURVE",
"844 355 CURVE",
"855 362 OFFCURVE",
"850 385 OFFCURVE",
"830 405 CURVE",
"802 436 OFFCURVE",
"759 440 OFFCURVE",
"746 421 CURVE",
"720 395 LINE",
"628 486 LINE",
"642 501 LINE SMOOTH",
"645 504 OFFCURVE",
"649 508 OFFCURVE",
"654 514 CURVE SMOOTH",
"662 524 OFFCURVE",
"666 534 OFFCURVE",
"666 543 CURVE SMOOTH",
"666 552 OFFCURVE",
"664 559 OFFCURVE",
"660 565 CURVE",
"652 575 LINE",
"604 622 OFFCURVE",
"529 649 OFFCURVE",
"488 652 CURVE SMOOTH",
"458 654 LINE",
"456 682 LINE",
"543 705 OFFCURVE",
"624 702 OFFCURVE",
"668 693 CURVE SMOOTH",
"711 684 OFFCURVE",
"765 647 OFFCURVE",
"776 637 CURVE",
"781 632 OFFCURVE",
"790 623 OFFCURVE",
"802 610 CURVE",
"869 544 LINE SMOOTH",
"874 539 OFFCURVE",
"877 525 OFFCURVE",
"878 503 CURVE SMOOTH",
"879 480 OFFCURVE",
"884 464 OFFCURVE",
"892 455 CURVE",
"903 444 OFFCURVE",
"916 439 OFFCURVE",
"930 439 CURVE",
"943 448 OFFCURVE",
"963 447 OFFCURVE",
"972 435 CURVE"
);
},
{
closed = 1;
nodes = (
"580 251 LINE",
"800 54 LINE",
"832 22 OFFCURVE",
"830 -27 OFFCURVE",
"799 -60 CURVE SMOOTH",
"767 -92 OFFCURVE",
"717 -90 OFFCURVE",
"685 -59 CURVE",
"484 154 LINE",
"296 -72 LINE",
"287 -81 OFFCURVE",
"275 -86 OFFCURVE",
"262 -86 CURVE SMOOTH",
"249 -86 OFFCURVE",
"238 -81 OFFCURVE",
"229 -72 CURVE SMOOTH",
"180 -22 LINE",
"171 -14 OFFCURVE",
"166 -3 OFFCURVE",
"166 11 CURVE SMOOTH",
"166 24 OFFCURVE",
"171 36 OFFCURVE",
"180 45 CURVE",
"395 245 LINE",
"291 345 LINE SMOOTH",
"260 375 OFFCURVE",
"233 386 OFFCURVE",
"210 379 CURVE",
"141 354 OFFCURVE",
"78 403 OFFCURVE",
"54 451 CURVE SMOOTH",
"42 474 OFFCURVE",
"36 494 OFFCURVE",
"35 511 CURVE",
"35 536 LINE",
"41 546 LINE",
"88 516 OFFCURVE",
"114 499 OFFCURVE",
"120 496 CURVE",
"131 488 OFFCURVE",
"144 482 OFFCURVE",
"170 492 CURVE SMOOTH",
"196 502 OFFCURVE",
"221 541 OFFCURVE",
"222 570 CURVE SMOOTH",
"222 599 OFFCURVE",
"212 610 OFFCURVE",
"201 618 CURVE",
"122 669 LINE",
"129 679 LINE",
"135 682 OFFCURVE",
"143 686 OFFCURVE",
"154 690 CURVE",
"164 693 OFFCURVE",
"183 695 OFFCURVE",
"211 695 CURVE SMOOTH",
"238 695 OFFCURVE",
"263 688 OFFCURVE",
"286 675 CURVE",
"286 674 OFFCURVE",
"288 673 OFFCURVE",
"291 670 CURVE SMOOTH",
"294 667 OFFCURVE",
"298 665 OFFCURVE",
"303 662 CURVE SMOOTH",
"308 659 OFFCURVE",
"311 657 OFFCURVE",
"312 655 CURVE",
"351 621 OFFCURVE",
"364 577 OFFCURVE",
"352 522 CURVE",
"347 487 OFFCURVE",
"352 477 OFFCURVE",
"381 442 CURVE",
"485 339 LINE",
"609 465 LINE",
"699 372 LINE"
);
},
{
closed = 1;
nodes = (
"780 -25 OFFCURVE",
"784 -15 OFFCURVE",
"784 -3 CURVE SMOOTH",
"784 21 OFFCURVE",
"765 40 OFFCURVE",
"742 40 CURVE SMOOTH",
"731 40 OFFCURVE",
"720 36 OFFCURVE",
"711 28 CURVE",
"704 19 OFFCURVE",
"700 9 OFFCURVE",
"700 -2 CURVE SMOOTH",
"700 -26 OFFCURVE",
"719 -44 OFFCURVE",
"742 -44 CURVE",
"753 -45 OFFCURVE",
"763 -41 OFFCURVE",
"771 -32 CURVE"
);
}
);
width = 1052;
}
);
unicode = 1F527;
},
{
glyphname = writingHand;
layers = (
{
layerId = "B718D8F3-CB97-43BD-9E0D-52F1AEE8232C";
name = Regular;
paths = (
{
closed = 1;
nodes = (
"189 620 LINE",
"189 28 LINE",
"632 28 LINE",
"632 289 LINE",
"722 390 LINE",
"722 -62 LINE",
"99 -62 LINE",
"99 698 LINE",
"640 698 LINE",
"565 620 LINE"
);
},
{
closed = 1;
nodes = (
"973 767 OFFCURVE",
"970 713 OFFCURVE",
"935 676 CURVE",
"878 620 LINE",
"895 695 LINE",
"831 759 LINE",
"758 742 LINE",
"814 799 LINE SMOOTH",
"831 816 OFFCURVE",
"852 825 OFFCURVE",
"876 825 CURVE SMOOTH",
"900 825 OFFCURVE",
"921 817 OFFCURVE",
"938 800 CURVE SMOOTH"
);
},
{
closed = 1;
nodes = (
"719 701 LINE",
"719 704 OFFCURVE",
"744 711 OFFCURVE",
"794 724 CURVE",
"795 725 LINE",
"861 656 LINE",
"839 581 LINE",
"468 198 LINE",
"309 161 LINE",
"306 162 LINE",
"348 320 LINE"
);
},
{
closed = 1;
nodes = (
"471 279 LINE",
"426 325 LINE",
"391 319 LINE",
"369 298 LINE",
"359 258 LINE",
"405 212 LINE",
"444 221 LINE",
"466 244 LINE"
);
}
);
width = 1093;
}
);
unicode = 270D;
},
{
glyphname = uni23E9;
layers = (
{
layerId = "B718D8F3-CB97-43BD-9E0D-52F1AEE8232C";
name = Regular;
paths = (
{
closed = 1;
nodes = (
"881 324 LINE",
"890 317 OFFCURVE",
"895 309 OFFCURVE",
"895 300 CURVE SMOOTH",
"895 292 OFFCURVE",
"889 283 OFFCURVE",
"884 279 CURVE",
"881 276 LINE",
"508 28 LINE SMOOTH",
"479 9 OFFCURVE",
"456 24 OFFCURVE",
"456 60 CURVE SMOOTH",
"456 540 LINE SMOOTH",
"456 576 OFFCURVE",
"479 590 OFFCURVE",
"508 571 CURVE SMOOTH"
);
},
{
closed = 1;
nodes = (
"427 324 LINE",
"436 317 OFFCURVE",
"441 309 OFFCURVE",
"441 300 CURVE SMOOTH",
"441 292 OFFCURVE",
"435 283 OFFCURVE",
"430 279 CURVE",
"427 276 LINE",
"67 28 LINE SMOOTH",
"38 9 OFFCURVE",
"15 24 OFFCURVE",
"15 60 CURVE SMOOTH",
"15 540 LINE SMOOTH",
"15 576 OFFCURVE",
"38 590 OFFCURVE",
"67 571 CURVE SMOOTH"
);
}
);
width = 910;
}
);
unicode = 23E9;
},
{
glyphname = uni23EA;
layers = (
{
layerId = "B718D8F3-CB97-43BD-9E0D-52F1AEE8232C";
name = Regular;
paths = (
{
closed = 1;
nodes = (
"15 308 OFFCURVE",
"21 317 OFFCURVE",
"26 321 CURVE",
"29 324 LINE",
"402 571 LINE SMOOTH",
"431 590 OFFCURVE",
"454 576 OFFCURVE",
"454 540 CURVE SMOOTH",
"454 60 LINE SMOOTH",
"454 24 OFFCURVE",
"431 9 OFFCURVE",
"402 28 CURVE SMOOTH",
"29 276 LINE",
"20 283 OFFCURVE",
"15 291 OFFCURVE",
"15 300 CURVE SMOOTH"
);
},
{
closed = 1;
nodes = (
"469 308 OFFCURVE",
"475 317 OFFCURVE",
"480 321 CURVE",
"483 324 LINE",
"843 571 LINE SMOOTH",
"872 590 OFFCURVE",
"895 576 OFFCURVE",
"895 540 CURVE SMOOTH",
"895 60 LINE SMOOTH",
"895 24 OFFCURVE",
"872 9 OFFCURVE",
"843 28 CURVE SMOOTH",
"483 276 LINE",
"474 283 OFFCURVE",
"469 291 OFFCURVE",
"469 300 CURVE SMOOTH"
);
}
);
width = 910;
}
);
unicode = 23EA;
},
{
glyphname = uni23ED;
layers = (
{
layerId = "B718D8F3-CB97-43BD-9E0D-52F1AEE8232C";
name = Regular;
paths = (
{
closed = 1;
nodes = (
"428 322 LINE SMOOTH",
"437 316 OFFCURVE",
"441 309 OFFCURVE",
"441 300 CURVE SMOOTH",
"441 292 OFFCURVE",
"435 284 OFFCURVE",
"431 280 CURVE",
"428 278 LINE",
"64 49 LINE SMOOTH",
"37 32 OFFCURVE",
"15 45 OFFCURVE",
"15 78 CURVE SMOOTH",
"15 522 LINE SMOOTH",
"15 555 OFFCURVE",
"37 568 OFFCURVE",
"64 551 CURVE SMOOTH"
);
},
{
closed = 1;
nodes = (
"465 532 LINE SMOOTH",
"465 571 OFFCURVE",
"490 590 OFFCURVE",
"540 590 CURVE SMOOTH",
"590 590 OFFCURVE",
"615 571 OFFCURVE",
"615 532 CURVE SMOOTH",
"615 68 LINE SMOOTH",
"615 29 OFFCURVE",
"590 10 OFFCURVE",
"540 10 CURVE SMOOTH",
"490 10 OFFCURVE",
"465 29 OFFCURVE",
"465 68 CURVE SMOOTH"
);
}
);
width = 630;
}
);
unicode = 23ED;
},
{
glyphname = uni23EE;
layers = (
{
layerId = "B718D8F3-CB97-43BD-9E0D-52F1AEE8232C";
name = Regular;
paths = (
{
closed = 1;
nodes = (
"189 308 OFFCURVE",
"195 316 OFFCURVE",
"199 320 CURVE",
"202 322 LINE",
"566 551 LINE SMOOTH",
"593 568 OFFCURVE",
"615 555 OFFCURVE",
"615 522 CURVE SMOOTH",
"615 78 LINE SMOOTH",
"615 45 OFFCURVE",
"593 32 OFFCURVE",
"566 49 CURVE SMOOTH",
"202 278 LINE SMOOTH",
"193 284 OFFCURVE",
"189 291 OFFCURVE",
"189 300 CURVE SMOOTH"
);
},
{
closed = 1;
nodes = (
"15 532 LINE SMOOTH",
"15 571 OFFCURVE",
"40 590 OFFCURVE",
"90 590 CURVE SMOOTH",
"140 590 OFFCURVE",
"165 571 OFFCURVE",
"165 532 CURVE SMOOTH",
"165 68 LINE SMOOTH",
"165 29 OFFCURVE",
"140 10 OFFCURVE",
"90 10 CURVE SMOOTH",
"40 10 OFFCURVE",
"15 29 OFFCURVE",
"15 68 CURVE SMOOTH"
);
}
);
width = 630;
}
);
unicode = 23EE;
},
{
glyphname = uni23F3;
layers = (
{
layerId = "B718D8F3-CB97-43BD-9E0D-52F1AEE8232C";
name = Regular;
paths = (
{
closed = 1;
nodes = (
"575 571 LINE SMOOTH",
"575 523 OFFCURVE",
"526 464 OFFCURVE",
"478 424 CURVE SMOOTH",
"430 384 OFFCURVE",
"381 333 OFFCURVE",
"381 300 CURVE SMOOTH",
"381 267 OFFCURVE",
"430 216 OFFCURVE",
"478 176 CURVE SMOOTH",
"526 136 OFFCURVE",
"575 77 OFFCURVE",
"575 29 CURVE SMOOTH",
"575 -89 LINE SMOOTH",
"575 -111 OFFCURVE",
"546 -135 OFFCURVE",
"489 -161 CURVE SMOOTH",
"432 -187 OFFCURVE",
"367 -200 OFFCURVE",
"295 -200 CURVE SMOOTH",
"223 -200 OFFCURVE",
"158 -187 OFFCURVE",
"101 -161 CURVE SMOOTH",
"44 -135 OFFCURVE",
"15 -111 OFFCURVE",
"15 -89 CURVE SMOOTH",
"15 29 LINE SMOOTH",
"15 77 OFFCURVE",
"64 136 OFFCURVE",
"112 176 CURVE SMOOTH",
"160 216 OFFCURVE",
"209 267 OFFCURVE",
"209 300 CURVE SMOOTH",
"209 333 OFFCURVE",
"160 384 OFFCURVE",
"112 424 CURVE SMOOTH",
"64 464 OFFCURVE",
"15 523 OFFCURVE",
"15 571 CURVE SMOOTH",
"15 689 LINE SMOOTH",
"15 711 OFFCURVE",
"44 735 OFFCURVE",
"101 761 CURVE SMOOTH",
"158 787 OFFCURVE",
"223 800 OFFCURVE",
"295 800 CURVE SMOOTH",
"367 800 OFFCURVE",
"432 787 OFFCURVE",
"489 761 CURVE SMOOTH",
"546 735 OFFCURVE",
"575 711 OFFCURVE",
"575 689 CURVE SMOOTH"
);
},
{
closed = 1;
nodes = (
"92 684 OFFCURVE",
"87 680 OFFCURVE",
"77 673 CURVE",
"71 666 OFFCURVE",
"72 660 OFFCURVE",
"79 656 CURVE SMOOTH",
"140 620 OFFCURVE",
"212 602 OFFCURVE",
"295 602 CURVE SMOOTH",
"384 602 OFFCURVE",
"457 619 OFFCURVE",
"514 653 CURVE SMOOTH",
"539 668 OFFCURVE",
"493 687 OFFCURVE",
"469 699 CURVE SMOOTH",
"444 711 OFFCURVE",
"361 738 OFFCURVE",
"298 738 CURVE SMOOTH",
"218 738 OFFCURVE",
"149 720 OFFCURVE",
"92 684 CURVE"
);
},
{
closed = 1;
nodes = (
"322 280 OFFCURVE",
"320 290 OFFCURVE",
"320 300 CURVE SMOOTH",
"320 320 OFFCURVE",
"329 341 OFFCURVE",
"335 354 CURVE SMOOTH",
"341 366 OFFCURVE",
"364 392 OFFCURVE",
"372 400 CURVE SMOOTH",
"398 425 LINE",
"423 449 LINE SMOOTH",
"484 506 OFFCURVE",
"514 547 OFFCURVE",
"514 571 CURVE",
"517 621 LINE",
"452 585 OFFCURVE",
"378 567 OFFCURVE",
"295 567 CURVE SMOOTH",
"213 567 OFFCURVE",
"139 585 OFFCURVE",
"74 621 CURVE",
"76 571 LINE",
"76 547 OFFCURVE",
"106 506 OFFCURVE",
"167 449 CURVE",
"167 449 OFFCURVE",
"175 441 OFFCURVE",
"192 425 CURVE SMOOTH",
"218 400 LINE SMOOTH",
"226 392 OFFCURVE",
"250 366 OFFCURVE",
"256 354 CURVE SMOOTH",
"262 341 OFFCURVE",
"270 320 OFFCURVE",
"270 300 CURVE SMOOTH",
"270 280 OFFCURVE",
"262 259 OFFCURVE",
"256 247 CURVE SMOOTH",
"250 234 OFFCURVE",
"226 208 OFFCURVE",
"218 200 CURVE SMOOTH",
"192 175 LINE",
"167 151 LINE SMOOTH",
"106 94 OFFCURVE",
"76 53 OFFCURVE",
"76 29 CURVE SMOOTH",
"76 -38 LINE",
"81 -36 OFFCURVE",
"103 -28 OFFCURVE",
"143 -15 CURVE SMOOTH",
"222 12 OFFCURVE",
"270 43 OFFCURVE",
"270 88 CURVE SMOOTH",
"270 112 OFFCURVE",
"291 125 OFFCURVE",
"308 114 CURVE SMOOTH",
"316 109 OFFCURVE",
"320 100 OFFCURVE",
"320 88 CURVE SMOOTH",
"320 43 OFFCURVE",
"368 12 OFFCURVE",
"448 -15 CURVE SMOOTH",
"487 -28 OFFCURVE",
"509 -36 OFFCURVE",
"514 -38 CURVE",
"514 29 LINE SMOOTH",
"514 53 OFFCURVE",
"484 94 OFFCURVE",
"423 151 CURVE SMOOTH",
"398 175 LINE",
"372 200 LINE SMOOTH",
"364 208 OFFCURVE",
"341 234 OFFCURVE",
"335 247 CURVE SMOOTH",
"332 253 OFFCURVE",
"328 261 OFFCURVE",
"325 271 CURVE SMOOTH"
);
}
);
width = 590;
}
);
unicode = 23F3;
},
{
glyphname = uniE003;
layers = (
{
layerId = "B718D8F3-CB97-43BD-9E0D-52F1AEE8232C";
name = Regular;
paths = (
{
closed = 1;
nodes = (
"365 350 LINE SMOOTH",
"393 350 OFFCURVE",
"415 328 OFFCURVE",
"415 300 CURVE SMOOTH",
"415 272 OFFCURVE",
"393 250 OFFCURVE",
"365 250 CURVE SMOOTH",
"65 250 LINE SMOOTH",
"37 250 OFFCURVE",
"15 272 OFFCURVE",
"15 300 CURVE SMOOTH",
"15 328 OFFCURVE",
"37 350 OFFCURVE",
"65 350 CURVE SMOOTH"
);
},
{
closed = 1;
nodes = (
"365 150 LINE SMOOTH",
"393 150 OFFCURVE",
"415 128 OFFCURVE",
"415 100 CURVE SMOOTH",
"415 72 OFFCURVE",
"393 50 OFFCURVE",
"365 50 CURVE SMOOTH",
"65 50 LINE SMOOTH",
"37 50 OFFCURVE",
"15 72 OFFCURVE",
"15 100 CURVE SMOOTH",
"15 128 OFFCURVE",
"37 150 OFFCURVE",
"65 150 CURVE SMOOTH"
);
},
{
closed = 1;
nodes = (
"985 350 LINE SMOOTH",
"1010 350 OFFCURVE",
"1015 333 OFFCURVE",
"1015 300 CURVE SMOOTH",
"1015 277 OFFCURVE",
"1014 268 OFFCURVE",
"1005 258 CURVE",
"1000 253 OFFCURVE",
"994 250 OFFCURVE",
"985 250 CURVE SMOOTH",
"815 250 LINE",
"815 80 LINE SMOOTH",
"815 55 OFFCURVE",
"798 50 OFFCURVE",
"765 50 CURVE SMOOTH",
"742 50 OFFCURVE",
"733 51 OFFCURVE",
"723 60 CURVE",
"718 65 OFFCURVE",
"715 71 OFFCURVE",
"715 80 CURVE SMOOTH",
"715 250 LINE",
"550 250 LINE SMOOTH",
"525 250 OFFCURVE",
"520 267 OFFCURVE",
"520 300 CURVE SMOOTH",
"520 323 OFFCURVE",
"521 333 OFFCURVE",
"530 343 CURVE",
"535 348 OFFCURVE",
"541 350 OFFCURVE",
"550 350 CURVE SMOOTH",
"715 350 LINE",
"715 520 LINE SMOOTH",
"715 545 OFFCURVE",
"732 550 OFFCURVE",
"765 550 CURVE SMOOTH",
"788 550 OFFCURVE",
"798 549 OFFCURVE",
"808 540 CURVE",
"813 535 OFFCURVE",
"815 529 OFFCURVE",
"815 520 CURVE SMOOTH",
"815 350 LINE"
);
},
{
closed = 1;
nodes = (
"365 550 LINE SMOOTH",
"393 550 OFFCURVE",
"415 528 OFFCURVE",
"415 500 CURVE SMOOTH",
"415 472 OFFCURVE",
"393 450 OFFCURVE",
"365 450 CURVE SMOOTH",
"65 450 LINE SMOOTH",
"37 450 OFFCURVE",
"15 472 OFFCURVE",
"15 500 CURVE SMOOTH",
"15 528 OFFCURVE",
"37 550 OFFCURVE",
"65 550 CURVE SMOOTH"
);
}
);
width = 1030;
}
);
unicode = E003;
},
{
glyphname = uniE4AD;
layers = (
{
layerId = "B718D8F3-CB97-43BD-9E0D-52F1AEE8232C";
name = Regular;
paths = (
{
closed = 1;
nodes = (
"394 -80 LINE",
"15 300 LINE",
"394 680 LINE",
"394 489 LINE",
"745 489 LINE",
"745 111 LINE",
"394 111 LINE"
);
}
);
width = 760;
}
);
unicode = E4AD;
},
{
glyphname = uniE4AE;
layers = (
{
layerId = "B718D8F3-CB97-43BD-9E0D-52F1AEE8232C";
name = Regular;
paths = (
{
closed = 1;
nodes = (
"366 680 LINE",
"745 300 LINE",
"366 -80 LINE",
"366 111 LINE",
"15 111 LINE",
"15 489 LINE",
"366 489 LINE"
);
}
);
width = 760;
}
);
unicode = E4AE;
},
{
glyphname = uniE4AF;
layers = (
{
layerId = "B718D8F3-CB97-43BD-9E0D-52F1AEE8232C";
name = Regular;
paths = (
{
closed = 1;
nodes = (
"775 286 LINE",
"584 286 LINE",
"584 -65 LINE",
"206 -65 LINE",
"206 286 LINE",
"15 286 LINE",
"395 665 LINE"
);
}
);
width = 790;
}
);
unicode = E4AF;
},
{
glyphname = uniE4B0;
layers = (
{
layerId = "B718D8F3-CB97-43BD-9E0D-52F1AEE8232C";
name = Regular;
paths = (
{
closed = 1;
nodes = (
"775 314 LINE",
"395 -65 LINE",
"15 314 LINE",
"206 314 LINE",
"206 665 LINE",
"584 665 LINE",
"584 314 LINE"
);
}
);
width = 790;
}
);
unicode = E4B0;
},
{
glyphname = uniE700;
layers = (
{
layerId = "B718D8F3-CB97-43BD-9E0D-52F1AEE8232C";
name = Regular;
paths = (
{
closed = 1;
nodes = (
"693 57 OFFCURVE",
"738 35 OFFCURVE",
"769 13 CURVE SMOOTH",
"800 -9 OFFCURVE",
"815 -28 OFFCURVE",
"815 -45 CURVE SMOOTH",
"815 -150 LINE",
"15 -150 LINE",
"15 51 LINE",
"32 59 OFFCURVE",
"56 67 OFFCURVE",
"77 73 CURVE SMOOTH",
"87 76 OFFCURVE",
"93 77 OFFCURVE",
"96 78 CURVE SMOOTH",
"221 123 OFFCURVE",
"261 162 OFFCURVE",
"261 242 CURVE SMOOTH",
"261 255 OFFCURVE",
"258 266 OFFCURVE",
"251 274 CURVE SMOOTH",
"238 289 OFFCURVE",
"215 312 OFFCURVE",
"206 363 CURVE SMOOTH",
"203 379 OFFCURVE",
"191 385 OFFCURVE",
"182 389 CURVE",
"177 390 OFFCURVE",
"173 396 OFFCURVE",
"168 406 CURVE SMOOTH",
"159 425 OFFCURVE",
"158 461 OFFCURVE",
"164 475 CURVE SMOOTH",
"167 482 OFFCURVE",
"169 486 OFFCURVE",
"172 488 CURVE",
"177 491 LINE",
"171 524 OFFCURVE",
"167 554 OFFCURVE",
"164 579 CURVE SMOOTH",
"161 607 OFFCURVE",
"170 643 OFFCURVE",
"197 682 CURVE SMOOTH",
"224 721 OFFCURVE",
"284 750 OFFCURVE",
"365 750 CURVE SMOOTH",
"446 750 OFFCURVE",
"506 721 OFFCURVE",
"533 682 CURVE SMOOTH",
"560 643 OFFCURVE",
"569 607 OFFCURVE",
"566 579 CURVE",
"553 491 LINE",
"565 486 OFFCURVE",
"571 472 OFFCURVE",
"571 449 CURVE",
"570 430 OFFCURVE",
"567 415 OFFCURVE",
"562 406 CURVE",
"557 396 OFFCURVE",
"553 390 OFFCURVE",
"548 389 CURVE",
"539 385 OFFCURVE",
"527 379 OFFCURVE",
"524 363 CURVE SMOOTH",
"515 312 OFFCURVE",
"492 289 OFFCURVE",
"479 274 CURVE SMOOTH",
"472 266 OFFCURVE",
"469 255 OFFCURVE",
"469 242 CURVE SMOOTH",
"469 162 OFFCURVE",
"509 123 OFFCURVE",
"634 78 CURVE SMOOTH"
);
},
{
closed = 1;
nodes = (
"865 350 LINE",
"1015 350 LINE",
"1015 250 LINE",
"865 250 LINE",
"865 100 LINE",
"765 100 LINE",
"765 250 LINE",
"615 250 LINE",
"615 350 LINE",
"765 350 LINE",
"765 500 LINE",
"865 500 LINE"
);
}
);
width = 1030;
}
);
unicode = E700;
},
{
glyphname = uniE704;
layers = (
{
layerId = "B718D8F3-CB97-43BD-9E0D-52F1AEE8232C";
name = Regular;
paths = (
{
closed = 1;
nodes = (
"403 772 OFFCURVE",
"535 773 OFFCURVE",
"649 726 CURVE SMOOTH",
"763 678 OFFCURVE",
"847 597 OFFCURVE",
"897 485 CURVE SMOOTH",
"947 372 OFFCURVE",
"948 241 OFFCURVE",
"901 127 CURVE SMOOTH",
"853 13 OFFCURVE",
"772 -71 OFFCURVE",
"660 -121 CURVE SMOOTH",
"547 -171 OFFCURVE",
"416 -173 OFFCURVE",
"302 -125 CURVE SMOOTH",
"188 -78 OFFCURVE",
"104 3 OFFCURVE",
"54 116 CURVE SMOOTH",
"4 228 OFFCURVE",
"2 360 OFFCURVE",
"50 474 CURVE SMOOTH",
"97 588 OFFCURVE",
"178 672 OFFCURVE",
"291 722 CURVE SMOOTH"
);
},
{
closed = 1;
nodes = (
"536 125 OFFCURVE",
"508 153 OFFCURVE",
"467 154 CURVE SMOOTH",
"428 154 OFFCURVE",
"400 125 OFFCURVE",
"399 88 CURVE SMOOTH",
"398 48 OFFCURVE",
"426 21 OFFCURVE",
"467 20 CURVE SMOOTH",
"506 20 OFFCURVE",
"534 47 OFFCURVE",
"535 84 CURVE SMOOTH"
);
},
{
closed = 1;
nodes = (
"520 486 OFFCURVE",
"542 464 OFFCURVE",
"542 420 CURVE SMOOTH",
"542 401 OFFCURVE",
"524 374 OFFCURVE",
"507 361 CURVE",
"505 360 OFFCURVE",
"500 357 OFFCURVE",
"491 351 CURVE",
"474 338 OFFCURVE",
"442 313 OFFCURVE",
"427 297 CURVE",
"416 284 OFFCURVE",
"410 255 OFFCURVE",
"409 210 CURVE",
"516 210 LINE",
"516 238 OFFCURVE",
"520 254 OFFCURVE",
"549 278 CURVE",
"577 297 LINE",
"617 328 OFFCURVE",
"630 338 OFFCURVE",
"647 371 CURVE SMOOTH",
"655 387 OFFCURVE",
"659 405 OFFCURVE",
"659 426 CURVE SMOOTH",
"659 525 OFFCURVE",
"579 580 OFFCURVE",
"470 580 CURVE SMOOTH",
"358 580 OFFCURVE",
"299 515 OFFCURVE",
"294 403 CURVE",
"405 403 LINE",
"405 408 LINE SMOOTH",
"405 445 OFFCURVE",
"423 486 OFFCURVE",
"475 486 CURVE SMOOTH"
);
}
);
width = 950;
}
);
unicode = E704;
},
{
glyphname = uniE705;
layers = (
{
layerId = "B718D8F3-CB97-43BD-9E0D-52F1AEE8232C";
name = Regular;
paths = (
{
closed = 1;
nodes = (
"403 772 OFFCURVE",
"535 773 OFFCURVE",
"649 726 CURVE SMOOTH",
"763 678 OFFCURVE",
"847 597 OFFCURVE",
"897 485 CURVE SMOOTH",
"947 372 OFFCURVE",
"948 241 OFFCURVE",
"901 127 CURVE SMOOTH",
"853 13 OFFCURVE",
"772 -71 OFFCURVE",
"660 -121 CURVE SMOOTH",
"547 -171 OFFCURVE",
"416 -173 OFFCURVE",
"302 -125 CURVE SMOOTH",
"188 -78 OFFCURVE",
"104 3 OFFCURVE",
"54 116 CURVE SMOOTH",
"4 228 OFFCURVE",
"2 360 OFFCURVE",
"50 474 CURVE SMOOTH",
"97 588 OFFCURVE",
"178 672 OFFCURVE",
"291 722 CURVE SMOOTH"
);
},
{
closed = 1;
nodes = (
"463 607 OFFCURVE",
"432 569 OFFCURVE",
"432 533 CURVE SMOOTH",
"431 496 OFFCURVE",
"453 474 OFFCURVE",
"496 474 CURVE SMOOTH",
"547 474 OFFCURVE",
"580 507 OFFCURVE",
"580 548 CURVE SMOOTH",
"580 587 OFFCURVE",
"560 607 OFFCURVE",
"520 607 CURVE SMOOTH"
);
},
{
closed = 1;
nodes = (
"440 12 OFFCURVE",
"522 49 OFFCURVE",
"590 117 CURVE",
"572 141 LINE",
"541 117 OFFCURVE",
"517 105 OFFCURVE",
"500 105 CURVE SMOOTH",
"492 105 OFFCURVE",
"491 118 OFFCURVE",
"497 143 CURVE SMOOTH",
"539 302 LINE SMOOTH",
"556 366 OFFCURVE",
"549 398 OFFCURVE",
"518 398 CURVE SMOOTH",
"477 398 OFFCURVE",
"385 356 OFFCURVE",
"312 295 CURVE",
"328 269 LINE",
"351 284 OFFCURVE",
"393 302 OFFCURVE",
"404 302 CURVE SMOOTH",
"409 302 OFFCURVE",
"409 291 OFFCURVE",
"404 268 CURVE SMOOTH",
"367 117 LINE SMOOTH",
"349 47 OFFCURVE",
"360 12 OFFCURVE",
"400 12 CURVE SMOOTH"
);
}
);
width = 950;
}
);
unicode = E705;
},
{
glyphname = uniE706;
layers = (
{
layerId = "B718D8F3-CB97-43BD-9E0D-52F1AEE8232C";
name = Regular;
paths = (
{
closed = 1;
nodes = (
"765 490 LINE SMOOTH",
"820 490 OFFCURVE",
"865 445 OFFCURVE",
"865 390 CURVE SMOOTH",
"865 100 LINE SMOOTH",
"865 45 OFFCURVE",
"820 0 OFFCURVE",
"765 0 CURVE SMOOTH",
"75 0 LINE",
"75 140 LINE",
"725 140 LINE",
"725 350 LINE",
"225 350 LINE",
"225 240 LINE",
"15 420 LINE",
"225 600 LINE",
"225 490 LINE"
);
}
);
width = 880;
}
);
unicode = E706;
},
{
glyphname = uniE707;
layers = (
{
layerId = "B718D8F3-CB97-43BD-9E0D-52F1AEE8232C";
name = Regular;
paths = (
{
closed = 1;
nodes = (
"215 300 LINE",
"215 210 LINE",
"15 370 LINE",
"215 540 LINE",
"215 440 LINE",
"765 440 LINE SMOOTH",
"820 440 OFFCURVE",
"865 395 OFFCURVE",
"865 340 CURVE SMOOTH",
"865 60 LINE",
"725 60 LINE",
"725 300 LINE"
);
}
);
width = 880;
}
);
unicode = E707;
},
{
glyphname = uniE708;
layers = (
{
layerId = "B718D8F3-CB97-43BD-9E0D-52F1AEE8232C";
name = Regular;
paths = (
{
closed = 1;
nodes = (
"0 250 LINE SMOOTH",
"0 273 OFFCURVE",
"17 290 OFFCURVE",
"40 290 CURVE SMOOTH",
"395 290 LINE SMOOTH",
"418 290 OFFCURVE",
"435 273 OFFCURVE",
"435 250 CURVE SMOOTH",
"435 -26 LINE SMOOTH",
"435 -49 OFFCURVE",
"418 -66 OFFCURVE",
"395 -66 CURVE SMOOTH",
"40 -66 LINE SMOOTH",
"17 -66 OFFCURVE",
"0 -49 OFFCURVE",
"0 -26 CURVE SMOOTH"
);
},
{
closed = 1;
nodes = (
"0 685 LINE SMOOTH",
"0 706 OFFCURVE",
"17 724 OFFCURVE",
"40 724 CURVE SMOOTH",
"395 724 LINE SMOOTH",
"418 724 OFFCURVE",
"435 706 OFFCURVE",
"435 685 CURVE SMOOTH",
"435 408 LINE SMOOTH",
"435 385 OFFCURVE",
"418 369 OFFCURVE",
"395 369 CURVE SMOOTH",
"40 369 LINE SMOOTH",
"17 369 OFFCURVE",
"0 385 OFFCURVE",
"0 408 CURVE SMOOTH"
);
},
{
closed = 1;
nodes = (
"514 250 LINE SMOOTH",
"514 273 OFFCURVE",
"530 290 OFFCURVE",
"553 290 CURVE SMOOTH",
"908 290 LINE SMOOTH",
"929 290 OFFCURVE",
"947 273 OFFCURVE",
"947 250 CURVE SMOOTH",
"947 -26 LINE SMOOTH",
"947 -49 OFFCURVE",
"929 -66 OFFCURVE",
"908 -66 CURVE SMOOTH",
"553 -66 LINE SMOOTH",
"530 -66 OFFCURVE",
"514 -49 OFFCURVE",
"514 -26 CURVE SMOOTH"
);
},
{
closed = 1;
nodes = (
"514 685 LINE SMOOTH",
"514 706 OFFCURVE",
"530 724 OFFCURVE",
"553 724 CURVE SMOOTH",
"908 724 LINE SMOOTH",
"929 724 OFFCURVE",
"947 706 OFFCURVE",
"947 685 CURVE SMOOTH",
"947 408 LINE SMOOTH",
"947 385 OFFCURVE",
"929 369 OFFCURVE",
"908 369 CURVE SMOOTH",
"553 369 LINE SMOOTH",
"530 369 OFFCURVE",
"514 385 OFFCURVE",
"514 408 CURVE SMOOTH"
);
}
);
width = 947;
}
);
unicode = E708;
},
{
glyphname = uniE70A;
layers = (
{
layerId = "B718D8F3-CB97-43BD-9E0D-52F1AEE8232C";
name = Regular;
paths = (
{
closed = 1;
nodes = (
"395 572 OFFCURVE",
"454 580 OFFCURVE",
"515 580 CURVE SMOOTH",
"638 580 OFFCURVE",
"758 541 OFFCURVE",
"834 493 CURVE SMOOTH",
"909 444 OFFCURVE",
"968 384 OFFCURVE",
"995 344 CURVE",
"1008 323 OFFCURVE",
"1015 309 OFFCURVE",
"1015 300 CURVE SMOOTH",
"1015 291 OFFCURVE",
"1008 277 OFFCURVE",
"995 257 CURVE SMOOTH",
"968 216 OFFCURVE",
"909 156 OFFCURVE",
"834 108 CURVE SMOOTH",
"758 59 OFFCURVE",
"638 20 OFFCURVE",
"515 20 CURVE SMOOTH",
"392 20 OFFCURVE",
"272 59 OFFCURVE",
"197 108 CURVE SMOOTH",
"121 156 OFFCURVE",
"62 216 OFFCURVE",
"35 257 CURVE SMOOTH",
"22 277 OFFCURVE",
"15 291 OFFCURVE",
"15 300 CURVE SMOOTH",
"15 309 OFFCURVE",
"22 323 OFFCURVE",
"35 344 CURVE",
"62 384 OFFCURVE",
"121 444 OFFCURVE",
"197 493 CURVE SMOOTH",
"234 517 OFFCURVE",
"281 538 OFFCURVE",
"338 555 CURVE SMOOTH"
);
},
{
closed = 1;
nodes = (
"401 106 OFFCURVE",
"454 85 OFFCURVE",
"515 85 CURVE SMOOTH",
"638 85 OFFCURVE",
"737 181 OFFCURVE",
"737 300 CURVE SMOOTH",
"737 419 OFFCURVE",
"638 515 OFFCURVE",
"515 515 CURVE SMOOTH",
"392 515 OFFCURVE",
"293 419 OFFCURVE",
"293 300 CURVE SMOOTH",
"293 241 OFFCURVE",
"315 190 OFFCURVE",
"358 148 CURVE SMOOTH"
);
},
{
closed = 1;
nodes = (
"523 292 OFFCURVE",
"540 295 OFFCURVE",
"561 300 CURVE",
"572 302 OFFCURVE",
"582 304 OFFCURVE",
"592 307 CURVE",
"601 309 OFFCURVE",
"609 310 OFFCURVE",
"616 309 CURVE SMOOTH",
"623 308 OFFCURVE",
"626 305 OFFCURVE",
"626 300 CURVE SMOOTH",
"626 241 OFFCURVE",
"576 192 OFFCURVE",
"515 192 CURVE SMOOTH",
"454 192 OFFCURVE",
"404 241 OFFCURVE",
"404 300 CURVE SMOOTH",
"404 359 OFFCURVE",
"454 408 OFFCURVE",
"515 408 CURVE SMOOTH",
"524 408 OFFCURVE",
"528 400 OFFCURVE",
"525 385 CURVE SMOOTH",
"522 370 OFFCURVE",
"518 354 OFFCURVE",
"513 338 CURVE SMOOTH",
"508 322 OFFCURVE",
"508 309 OFFCURVE",
"515 300 CURVE"
);
}
);
width = 1030;
}
);
unicode = E70A;
},
{
glyphname = uniE70C;
layers = (
{
layerId = "B718D8F3-CB97-43BD-9E0D-52F1AEE8232C";
name = Regular;
paths = (
{
closed = 1;
nodes = (
"1009 639 OFFCURVE",
"935 510 OFFCURVE",
"823 423 CURVE",
"840 398 LINE SMOOTH",
"851 381 OFFCURVE",
"853 364 OFFCURVE",
"847 345 CURVE SMOOTH",
"798 188 LINE SMOOTH",
"793 171 OFFCURVE",
"781 155 OFFCURVE",
"764 142 CURVE",
"299 -188 LINE SMOOTH",
"272 -207 OFFCURVE",
"250 -205 OFFCURVE",
"235 -183 CURVE SMOOTH",
"24 122 LINE SMOOTH",
"8 145 OFFCURVE",
"13 176 OFFCURVE",
"36 192 CURVE SMOOTH",
"501 521 LINE SMOOTH",
"516 532 OFFCURVE",
"534 538 OFFCURVE",
"555 538 CURVE SMOOTH",
"713 539 LINE SMOOTH",
"729 539 OFFCURVE",
"751 527 OFFCURVE",
"760 514 CURVE SMOOTH",
"788 473 LINE",
"819 497 OFFCURVE",
"844 521 OFFCURVE",
"872 559 CURVE SMOOTH",
"900 597 OFFCURVE",
"911 633 OFFCURVE",
"916 684 CURVE SMOOTH",
"918 709 OFFCURVE",
"914 735 OFFCURVE",
"903 760 CURVE",
"898 776 OFFCURVE",
"906 793 OFFCURVE",
"922 798 CURVE SMOOTH",
"938 803 OFFCURVE",
"955 796 OFFCURVE",
"960 780 CURVE SMOOTH"
);
},
{
closed = 1;
nodes = (
"770 331 OFFCURVE",
"781 358 OFFCURVE",
"776 391 CURVE",
"769 387 OFFCURVE",
"758 382 OFFCURVE",
"745 375 CURVE SMOOTH",
"741 373 OFFCURVE",
"737 372 OFFCURVE",
"733 372 CURVE SMOOTH",
"702 372 OFFCURVE",
"692 414 OFFCURVE",
"720 429 CURVE",
"725 431 OFFCURVE",
"733 436 OFFCURVE",
"744 443 CURVE",
"684 487 OFFCURVE",
"627 435 OFFCURVE",
"619 392 CURVE SMOOTH",
"611 348 OFFCURVE",
"640 307 OFFCURVE",
"684 299 CURVE SMOOTH",
"705 295 OFFCURVE",
"725 299 OFFCURVE",
"743 312 CURVE SMOOTH"
);
}
);
width = 990;
}
);
unicode = E70C;
},
{
glyphname = uniE711;
layers = (
{
layerId = "B718D8F3-CB97-43BD-9E0D-52F1AEE8232C";
name = Regular;
paths = (
{
closed = 1;
nodes = (
"908 443 OFFCURVE",
"1015 338 OFFCURVE",
"1015 209 CURVE SMOOTH",
"1015 80 OFFCURVE",
"908 -25 OFFCURVE",
"776 -25 CURVE SMOOTH",
"585 -25 LINE",
"585 165 LINE",
"690 165 LINE",
"515 395 LINE",
"340 165 LINE",
"445 165 LINE",
"445 -25 LINE",
"196 -25 LINE SMOOTH",
"96 -25 OFFCURVE",
"15 55 OFFCURVE",
"15 152 CURVE SMOOTH",
"15 249 OFFCURVE",
"96 329 OFFCURVE",
"196 329 CURVE SMOOTH",
"201 329 OFFCURVE",
"208 328 OFFCURVE",
"217 327 CURVE",
"215 339 OFFCURVE",
"214 352 OFFCURVE",
"214 365 CURVE SMOOTH",
"214 509 OFFCURVE",
"333 625 OFFCURVE",
"480 625 CURVE SMOOTH",
"599 625 OFFCURVE",
"702 548 OFFCURVE",
"735 440 CURVE",
"748 442 OFFCURVE",
"761 443 OFFCURVE",
"776 443 CURVE SMOOTH"
);
}
);
width = 1030;
}
);
unicode = E711;
},
{
glyphname = uniE712;
layers = (
{
layerId = "B718D8F3-CB97-43BD-9E0D-52F1AEE8232C";
name = Regular;
paths = (
{
closed = 1;
nodes = (
"915 -40 LINE",
"867 45 OFFCURVE",
"804 106 OFFCURVE",
"742 140 CURVE SMOOTH",
"680 174 OFFCURVE",
"587 192 OFFCURVE",
"513 197 CURVE SMOOTH",
"476 200 OFFCURVE",
"430 201 OFFCURVE",
"376 201 CURVE",
"376 -17 LINE",
"15 317 LINE",
"376 640 LINE",
"376 447 LINE",
"469 447 OFFCURVE",
"557 424 OFFCURVE",
"621 386 CURVE SMOOTH",
"685 348 OFFCURVE",
"742 298 OFFCURVE",
"782 244 CURVE SMOOTH",
"821 190 OFFCURVE",
"853 135 OFFCURVE",
"873 87 CURVE SMOOTH",
"893 38 OFFCURVE",
"906 -1 OFFCURVE",
"911 -24 CURVE SMOOTH"
);
}
);
width = 930;
}
);
unicode = E712;
},
{
glyphname = uniE713;
layers = (
{
layerId = "B718D8F3-CB97-43BD-9E0D-52F1AEE8232C";
name = Regular;
paths = (
{
closed = 1;
nodes = (
"376 506 LINE",
"165 317 LINE",
"376 122 LINE",
"376 -17 LINE",
"15 317 LINE",
"376 640 LINE"
);
},
{
closed = 1;
nodes = (
"626 447 LINE",
"705 447 OFFCURVE",
"776 424 OFFCURVE",
"825 386 CURVE SMOOTH",
"873 348 OFFCURVE",
"915 298 OFFCURVE",
"941 244 CURVE SMOOTH",
"967 190 OFFCURVE",
"987 135 OFFCURVE",
"997 87 CURVE SMOOTH",
"1007 38 OFFCURVE",
"1013 -1 OFFCURVE",
"1014 -24 CURVE SMOOTH",
"1015 -40 LINE",
"966 47 OFFCURVE",
"917 104 OFFCURVE",
"873 139 CURVE SMOOTH",
"829 174 OFFCURVE",
"769 192 OFFCURVE",
"719 197 CURVE SMOOTH",
"694 200 OFFCURVE",
"663 201 OFFCURVE",
"626 201 CURVE",
"626 -17 LINE",
"265 317 LINE",
"626 640 LINE"
);
}
);
width = 1030;
}
);
unicode = E713;
},
{
glyphname = uniE715;
layers = (
{
layerId = "B718D8F3-CB97-43BD-9E0D-52F1AEE8232C";
name = Regular;
paths = (
{
closed = 1;
nodes = (
"765 10 LINE",
"765 65 LINE",
"865 147 LINE",
"865 -40 LINE SMOOTH",
"865 -68 OFFCURVE",
"843 -90 OFFCURVE",
"815 -90 CURVE SMOOTH",
"65 -90 LINE SMOOTH",
"37 -90 OFFCURVE",
"15 -68 OFFCURVE",
"15 -40 CURVE SMOOTH",
"15 510 LINE SMOOTH",
"15 538 OFFCURVE",
"37 560 OFFCURVE",
"65 560 CURVE SMOOTH",
"353 560 LINE",
"309 528 OFFCURVE",
"269 490 OFFCURVE",
"256 473 CURVE",
"245 460 LINE",
"115 460 LINE",
"115 10 LINE"
);
},
{
closed = 1;
nodes = (
"683 357 LINE",
"531 357 OFFCURVE",
"456 338 OFFCURVE",
"389 277 CURVE SMOOTH",
"356 246 OFFCURVE",
"319 199 OFFCURVE",
"280 135 CURVE",
"280 140 OFFCURVE",
"280 148 OFFCURVE",
"281 158 CURVE",
"282 177 OFFCURVE",
"294 243 OFFCURVE",
"312 293 CURVE SMOOTH",
"330 343 OFFCURVE",
"373 411 OFFCURVE",
"427 455 CURVE SMOOTH",
"481 499 OFFCURVE",
"574 533 OFFCURVE",
"683 533 CURVE",
"683 690 LINE",
"1015 440 LINE",
"683 180 LINE"
);
}
);
width = 1030;
}
);
unicode = E715;
},
{
glyphname = uniE716;
layers = (
{
layerId = "B718D8F3-CB97-43BD-9E0D-52F1AEE8232C";
name = Regular;
paths = (
{
closed = 1;
nodes = (
"80 475 LINE SMOOTH",
"63 475 OFFCURVE",
"56 487 OFFCURVE",
"60 499 CURVE",
"62 504 OFFCURVE",
"65 508 OFFCURVE",
"70 510 CURVE",
"191 553 OFFCURVE",
"258 575 OFFCURVE",
"270 575 CURVE SMOOTH",
"315 575 LINE",
"315 725 LINE",
"695 725 LINE",
"695 575 LINE",
"740 575 LINE SMOOTH",
"752 575 OFFCURVE",
"819 553 OFFCURVE",
"940 510 CURVE",
"949 506 OFFCURVE",
"955 493 OFFCURVE",
"948 483 CURVE",
"945 478 OFFCURVE",
"939 475 OFFCURVE",
"930 475 CURVE SMOOTH"
);
},
{
closed = 1;
nodes = (
"940 420 LINE SMOOTH",
"968 420 OFFCURVE",
"995 388 OFFCURVE",
"995 360 CURVE SMOOTH",
"995 185 LINE SMOOTH",
"995 157 OFFCURVE",
"968 125 OFFCURVE",
"940 125 CURVE SMOOTH",
"841 125 LINE",
"885 -125 LINE",
"125 -125 LINE",
"169 125 LINE",
"70 125 LINE SMOOTH",
"42 125 OFFCURVE",
"15 157 OFFCURVE",
"15 185 CURVE SMOOTH",
"15 360 LINE SMOOTH",
"15 388 OFFCURVE",
"42 420 OFFCURVE",
"70 420 CURVE SMOOTH"
);
},
{
closed = 1;
nodes = (
"225 -25 LINE",
"785 -25 LINE",
"715 300 LINE",
"295 300 LINE"
);
}
);
width = 1010;
}
);
unicode = E716;
},
{
glyphname = uniE717;
layers = (
{
layerId = "B718D8F3-CB97-43BD-9E0D-52F1AEE8232C";
name = Regular;
paths = (
{
closed = 1;
nodes = (
"275 140 LINE",
"497 140 LINE",
"625 0 LINE",
"235 0 LINE SMOOTH",
"180 0 OFFCURVE",
"135 45 OFFCURVE",
"135 100 CURVE SMOOTH",
"135 400 LINE",
"15 400 LINE",
"205 600 LINE",
"395 400 LINE",
"275 400 LINE"
);
},
{
closed = 1;
nodes = (
"895 200 LINE",
"1015 200 LINE",
"825 0 LINE",
"635 200 LINE",
"755 200 LINE",
"755 460 LINE",
"533 460 LINE",
"405 600 LINE",
"795 600 LINE SMOOTH",
"850 600 OFFCURVE",
"895 555 OFFCURVE",
"895 500 CURVE SMOOTH"
);
}
);
width = 1030;
}
);
unicode = E717;
},
{
glyphname = uniE718;
layers = (
{
layerId = "B718D8F3-CB97-43BD-9E0D-52F1AEE8232C";
name = Regular;
paths = (
{
closed = 1;
nodes = (
"715 650 LINE SMOOTH",
"770 650 OFFCURVE",
"815 605 OFFCURVE",
"815 550 CURVE SMOOTH",
"815 200 LINE SMOOTH",
"815 145 OFFCURVE",
"770 100 OFFCURVE",
"715 100 CURVE SMOOTH",
"515 100 LINE",
"515 -50 LINE",
"315 100 LINE",
"115 100 LINE SMOOTH",
"60 100 OFFCURVE",
"15 145 OFFCURVE",
"15 200 CURVE SMOOTH",
"15 550 LINE SMOOTH",
"15 605 OFFCURVE",
"60 650 OFFCURVE",
"115 650 CURVE SMOOTH"
);
}
);
width = 830;
}
);
unicode = E718;
},
{
glyphname = uniE719;
layers = (
{
layerId = "B718D8F3-CB97-43BD-9E0D-52F1AEE8232C";
name = Regular;
paths = (
{
closed = 1;
nodes = (
"18 431 LINE SMOOTH",
"18 584 OFFCURVE",
"143 711 OFFCURVE",
"298 711 CURVE SMOOTH",
"576 711 LINE SMOOTH",
"761 711 OFFCURVE",
"911 560 OFFCURVE",
"911 376 CURVE SMOOTH",
"911 192 OFFCURVE",
"761 41 OFFCURVE",
"576 41 CURVE SMOOTH",
"353 41 LINE SMOOTH",
"292 41 OFFCURVE",
"241 -10 OFFCURVE",
"241 -70 CURVE",
"118 -70 OFFCURVE",
"18 29 OFFCURVE",
"18 153 CURVE SMOOTH"
);
}
);
width = 928;
}
);
unicode = E719;
},
{
glyphname = uniE720;
layers = (
{
layerId = "B718D8F3-CB97-43BD-9E0D-52F1AEE8232C";
name = Regular;
paths = (
{
closed = 1;
nodes = (
"305 190 LINE",
"655 190 LINE SMOOTH",
"660 190 OFFCURVE",
"663 190 OFFCURVE",
"665 191 CURVE",
"665 100 LINE SMOOTH",
"665 45 OFFCURVE",
"620 0 OFFCURVE",
"565 0 CURVE SMOOTH",
"315 0 LINE",
"165 -150 LINE",
"165 0 LINE",
"115 0 LINE SMOOTH",
"60 0 OFFCURVE",
"15 45 OFFCURVE",
"15 100 CURVE SMOOTH",
"15 400 LINE SMOOTH",
"15 455 OFFCURVE",
"60 500 OFFCURVE",
"115 500 CURVE SMOOTH",
"305 500 LINE"
);
},
{
closed = 1;
nodes = (
"915 750 LINE SMOOTH",
"970 750 OFFCURVE",
"1015 705 OFFCURVE",
"1015 650 CURVE SMOOTH",
"1015 350 LINE SMOOTH",
"1015 295 OFFCURVE",
"970 250 OFFCURVE",
"915 250 CURVE SMOOTH",
"865 250 LINE",
"865 100 LINE",
"715 250 LINE",
"365 250 LINE",
"365 650 LINE SMOOTH",
"365 705 OFFCURVE",
"410 750 OFFCURVE",
"465 750 CURVE SMOOTH"
);
}
);
width = 1030;
}
);
unicode = E720;
},
{
glyphname = uniE722;
layers = (
{
layerId = "B718D8F3-CB97-43BD-9E0D-52F1AEE8232C";
name = Regular;
paths = (
{
closed = 1;
nodes = (
"915 700 LINE SMOOTH",
"970 700 OFFCURVE",
"1015 655 OFFCURVE",
"1015 600 CURVE SMOOTH",
"1015 0 LINE SMOOTH",
"1015 -55 OFFCURVE",
"970 -100 OFFCURVE",
"915 -100 CURVE SMOOTH",
"115 -100 LINE SMOOTH",
"60 -100 OFFCURVE",
"15 -55 OFFCURVE",
"15 0 CURVE SMOOTH",
"15 600 LINE SMOOTH",
"15 655 OFFCURVE",
"60 700 OFFCURVE",
"115 700 CURVE SMOOTH"
);
},
{
closed = 1;
nodes = (
"915 0 LINE",
"915 600 LINE",
"115 600 LINE",
"115 0 LINE"
);
},
{
closed = 1;
nodes = (
"465 195 LINE",
"465 105 LINE",
"215 105 LINE",
"215 195 LINE"
);
},
{
closed = 1;
nodes = (
"465 345 LINE",
"465 255 LINE",
"215 255 LINE",
"215 345 LINE"
);
},
{
closed = 1;
nodes = (
"465 495 LINE",
"465 405 LINE",
"215 405 LINE",
"215 495 LINE"
);
},
{
closed = 1;
nodes = (
"810 175 LINE",
"811 175 OFFCURVE",
"813 169 OFFCURVE",
"814 158 CURVE SMOOTH",
"815 146 OFFCURVE",
"815 134 OFFCURVE",
"815 122 CURVE SMOOTH",
"815 105 LINE",
"565 105 LINE",
"565 152 OFFCURVE",
"567 175 OFFCURVE",
"570 175 CURVE",
"577 176 OFFCURVE",
"585 179 OFFCURVE",
"594 182 CURVE SMOOTH",
"613 189 OFFCURVE",
"655 214 OFFCURVE",
"655 241 CURVE SMOOTH",
"655 252 OFFCURVE",
"651 263 OFFCURVE",
"642 276 CURVE",
"624 300 OFFCURVE",
"600 336 OFFCURVE",
"600 385 CURVE SMOOTH",
"600 458 OFFCURVE",
"625 495 OFFCURVE",
"690 495 CURVE SMOOTH",
"755 495 OFFCURVE",
"780 458 OFFCURVE",
"780 385 CURVE SMOOTH",
"780 336 OFFCURVE",
"757 300 OFFCURVE",
"739 276 CURVE",
"730 263 OFFCURVE",
"725 252 OFFCURVE",
"725 241 CURVE SMOOTH",
"725 214 OFFCURVE",
"761 190 OFFCURVE",
"789 182 CURVE"
);
}
);
width = 1030;
}
);
unicode = E722;
},
{
glyphname = uniE723;
layers = (
{
layerId = "B718D8F3-CB97-43BD-9E0D-52F1AEE8232C";
name = Regular;
paths = (
{
closed = 1;
nodes = (
"205 269 LINE",
"307 345 LINE",
"819 345 LINE",
"871 192 LINE",
"307 192 LINE"
);
},
{
closed = 1;
nodes = (
"307 551 LINE",
"871 551 LINE",
"973 474 LINE",
"871 397 LINE",
"358 397 LINE"
);
},
{
closed = 1;
nodes = (
"512 -64 LINE",
"512 141 LINE",
"665 141 LINE",
"665 -64 LINE"
);
},
{
closed = 1;
nodes = (
"512 602 LINE",
"512 704 LINE",
"665 704 LINE",
"665 602 LINE"
);
}
);
width = 1228;
}
);
unicode = E723;
},
{
glyphname = uniE729;
layers = (
{
layerId = "B718D8F3-CB97-43BD-9E0D-52F1AEE8232C";
name = Regular;
paths = (
{
closed = 1;
nodes = (
"226 703 OFFCURVE",
"287 710 OFFCURVE",
"355 710 CURVE SMOOTH",
"491 710 OFFCURVE",
"607 679 OFFCURVE",
"660 640 CURVE SMOOTH",
"686 621 OFFCURVE",
"698 601 OFFCURVE",
"695 582 CURVE",
"623 -11 LINE SMOOTH",
"622 -20 OFFCURVE",
"610 -31 OFFCURVE",
"589 -46 CURVE SMOOTH",
"546 -76 OFFCURVE",
"451 -110 OFFCURVE",
"355 -110 CURVE SMOOTH",
"259 -110 OFFCURVE",
"164 -76 OFFCURVE",
"121 -46 CURVE SMOOTH",
"100 -31 OFFCURVE",
"88 -20 OFFCURVE",
"87 -11 CURVE SMOOTH",
"15 582 LINE",
"12 601 OFFCURVE",
"24 621 OFFCURVE",
"51 640 CURVE SMOOTH",
"77 659 OFFCURVE",
"117 676 OFFCURVE",
"172 690 CURVE SMOOTH"
);
},
{
closed = 1;
nodes = (
"261 500 OFFCURVE",
"307 495 OFFCURVE",
"355 495 CURVE SMOOTH",
"451 495 OFFCURVE",
"547 519 OFFCURVE",
"591 543 CURVE SMOOTH",
"612 554 OFFCURVE",
"623 564 OFFCURVE",
"623 572 CURVE SMOOTH",
"623 580 OFFCURVE",
"612 590 OFFCURVE",
"591 602 CURVE",
"547 625 OFFCURVE",
"451 649 OFFCURVE",
"355 649 CURVE SMOOTH",
"259 649 OFFCURVE",
"163 625 OFFCURVE",
"120 602 CURVE SMOOTH",
"98 590 OFFCURVE",
"87 580 OFFCURVE",
"87 572 CURVE SMOOTH",
"87 564 OFFCURVE",
"98 554 OFFCURVE",
"120 543 CURVE",
"141 531 OFFCURVE",
"174 520 OFFCURVE",
"218 510 CURVE SMOOTH"
);
}
);
width = 710;
}
);
unicode = E729;
},
{
glyphname = uniE730;
layers = (
{
layerId = "B718D8F3-CB97-43BD-9E0D-52F1AEE8232C";
name = Regular;
paths = (
{
closed = 1;
nodes = (
"615 750 LINE SMOOTH",
"670 750 OFFCURVE",
"715 705 OFFCURVE",
"715 650 CURVE SMOOTH",
"715 -50 LINE SMOOTH",
"715 -105 OFFCURVE",
"670 -150 OFFCURVE",
"615 -150 CURVE SMOOTH",
"115 -150 LINE SMOOTH",
"60 -150 OFFCURVE",
"15 -105 OFFCURVE",
"15 -50 CURVE SMOOTH",
"15 650 LINE SMOOTH",
"15 705 OFFCURVE",
"60 750 OFFCURVE",
"115 750 CURVE SMOOTH"
);
},
{
closed = 1;
nodes = (
"615 -50 LINE",
"615 650 LINE",
"115 650 LINE",
"115 -50 LINE"
);
}
);
width = 730;
}
);
unicode = E730;
},
{
glyphname = uniE735;
layers = (
{
layerId = "B718D8F3-CB97-43BD-9E0D-52F1AEE8232C";
name = Regular;
paths = (
{
closed = 1;
nodes = (
"258 680 LINE",
"1084 680 LINE",
"1084 49 LINE SMOOTH",
"1084 -10 OFFCURVE",
"1032 -62 OFFCURVE",
"979 -62 CURVE SMOOTH",
"261 -62 LINE SMOOTH",
"170 -62 OFFCURVE",
"125 -9 OFFCURVE",
"125 96 CURVE SMOOTH",
"125 558 LINE",
"258 558 LINE"
);
},
{
closed = 1;
nodes = (
"258 490 LINE",
"192 490 LINE",
"192 96 LINE SMOOTH",
"192 39 OFFCURVE",
"203 11 OFFCURVE",
"224 11 CURVE SMOOTH",
"247 11 OFFCURVE",
"258 39 OFFCURVE",
"258 96 CURVE SMOOTH"
);
},
{
closed = 1;
nodes = (
"1016 612 LINE",
"325 612 LINE",
"325 96 LINE SMOOTH",
"325 60 OFFCURVE",
"319 30 OFFCURVE",
"306 5 CURVE",
"979 5 LINE SMOOTH",
"1000 5 OFFCURVE",
"1016 29 OFFCURVE",
"1016 49 CURVE SMOOTH"
);
},
{
closed = 1;
nodes = (
"591 184 LINE",
"591 161 LINE",
"432 161 LINE",
"432 184 LINE"
);
},
{
closed = 1;
nodes = (
"591 112 LINE",
"591 90 LINE",
"432 90 LINE",
"432 112 LINE"
);
},
{
closed = 1;
nodes = (
"654 144 LINE",
"654 398 LINE",
"920 398 LINE",
"920 144 LINE"
);
},
{
closed = 1;
nodes = (
"591 324 LINE",
"591 301 LINE",
"432 301 LINE",
"432 324 LINE"
);
},
{
closed = 1;
nodes = (
"591 252 LINE",
"591 230 LINE",
"432 230 LINE",
"432 252 LINE"
);
},
{
closed = 1;
nodes = (
"591 398 LINE",
"591 375 LINE",
"432 375 LINE",
"432 398 LINE"
);
},
{
closed = 1;
nodes = (
"456 470 LINE",
"456 514 LINE",
"872 514 LINE",
"872 470 LINE"
);
}
);
width = 1208;
}
);
unicode = E735;
},
{
glyphname = uniE736;
layers = (
{
layerId = "B718D8F3-CB97-43BD-9E0D-52F1AEE8232C";
name = Regular;
paths = (
{
closed = 1;
nodes = (
"665 550 LINE SMOOTH",
"693 550 OFFCURVE",
"715 528 OFFCURVE",
"715 500 CURVE SMOOTH",
"715 -100 LINE SMOOTH",
"715 -128 OFFCURVE",
"693 -150 OFFCURVE",
"665 -150 CURVE SMOOTH",
"265 -150 LINE SMOOTH",
"237 -150 OFFCURVE",
"215 -128 OFFCURVE",
"215 -100 CURVE SMOOTH",
"215 50 LINE",
"65 50 LINE SMOOTH",
"37 50 OFFCURVE",
"15 72 OFFCURVE",
"15 100 CURVE SMOOTH",
"15 700 LINE SMOOTH",
"15 728 OFFCURVE",
"37 750 OFFCURVE",
"65 750 CURVE SMOOTH",
"465 750 LINE SMOOTH",
"493 750 OFFCURVE",
"515 728 OFFCURVE",
"515 700 CURVE SMOOTH",
"515 550 LINE"
);
},
{
closed = 1;
nodes = (
"115 150 LINE",
"215 150 LINE",
"215 501 LINE SMOOTH",
"215 529 OFFCURVE",
"236 550 OFFCURVE",
"264 550 CURVE SMOOTH",
"415 550 LINE",
"415 650 LINE",
"115 650 LINE"
);
},
{
closed = 1;
nodes = (
"615 -50 LINE",
"615 450 LINE",
"315 450 LINE",
"315 -50 LINE"
);
}
);
width = 730;
}
);
unicode = E736;
},
{
glyphname = uniE737;
layers = (
{
layerId = "B718D8F3-CB97-43BD-9E0D-52F1AEE8232C";
name = Regular;
paths = (
{
closed = 1;
nodes = (
"15 550 LINE SMOOTH",
"15 605 OFFCURVE",
"60 650 OFFCURVE",
"115 650 CURVE SMOOTH",
"915 650 LINE SMOOTH",
"970 650 OFFCURVE",
"1015 605 OFFCURVE",
"1015 550 CURVE SMOOTH",
"1015 50 LINE SMOOTH",
"1015 -5 OFFCURVE",
"970 -50 OFFCURVE",
"915 -50 CURVE SMOOTH",
"115 -50 LINE SMOOTH",
"60 -50 OFFCURVE",
"15 -5 OFFCURVE",
"15 50 CURVE SMOOTH"
);
},
{
closed = 1;
nodes = (
"915 550 LINE",
"115 550 LINE",
"115 50 LINE",
"915 50 LINE"
);
}
);
width = 1030;
}
);
unicode = E737;
},
{
glyphname = uniE738;
layers = (
{
layerId = "B718D8F3-CB97-43BD-9E0D-52F1AEE8232C";
name = Regular;
paths = (
{
closed = 1;
nodes = (
"853 500 LINE",
"157 500 LINE",
"157 550 LINE SMOOTH",
"157 579 OFFCURVE",
"178 597 OFFCURVE",
"194 598 CURVE",
"206 600 LINE",
"804 600 LINE SMOOTH",
"805 600 OFFCURVE",
"807 600 OFFCURVE",
"810 600 CURVE",
"814 599 OFFCURVE",
"827 596 OFFCURVE",
"836 590 CURVE",
"844 584 OFFCURVE",
"853 569 OFFCURVE",
"853 550 CURVE SMOOTH"
);
},
{
closed = 1;
nodes = (
"704 700 LINE SMOOTH",
"705 700 OFFCURVE",
"707 700 OFFCURVE",
"710 700 CURVE",
"714 699 OFFCURVE",
"728 696 OFFCURVE",
"737 690 CURVE",
"745 684 OFFCURVE",
"754 669 OFFCURVE",
"754 650 CURVE",
"256 650 LINE",
"256 679 OFFCURVE",
"277 697 OFFCURVE",
"294 698 CURVE",
"306 700 LINE"
);
},
{
closed = 1;
nodes = (
"953 500 LINE",
"953 500 OFFCURVE",
"975 479 OFFCURVE",
"979 475 CURVE",
"983 470 OFFCURVE",
"993 457 OFFCURVE",
"994 447 CURVE",
"995 442 OFFCURVE",
"995 435 OFFCURVE",
"995 427 CURVE SMOOTH",
"995 419 OFFCURVE",
"994 410 OFFCURVE",
"992 400 CURVE SMOOTH",
"970 274 LINE",
"934 66 LINE SMOOTH",
"921 -7 OFFCURVE",
"915 -45 OFFCURVE",
"914 -50 CURVE",
"909 -81 OFFCURVE",
"885 -98 OFFCURVE",
"866 -99 CURVE SMOOTH",
"853 -100 LINE",
"157 -100 LINE SMOOTH",
"153 -100 OFFCURVE",
"148 -100 OFFCURVE",
"142 -99 CURVE",
"130 -98 OFFCURVE",
"101 -81 OFFCURVE",
"96 -50 CURVE",
"95 -45 OFFCURVE",
"89 -7 OFFCURVE",
"76 66 CURVE SMOOTH",
"40 274 LINE",
"18 400 LINE SMOOTH",
"16 410 OFFCURVE",
"15 419 OFFCURVE",
"15 427 CURVE SMOOTH",
"15 443 OFFCURVE",
"15 451 OFFCURVE",
"23 463 CURVE SMOOTH",
"30 474 OFFCURVE",
"31 475 OFFCURVE",
"44 487 CURVE",
"57 500 LINE",
"87 530 LINE",
"87 450 LINE",
"923 450 LINE",
"923 530 LINE"
);
},
{
closed = 1;
nodes = (
"704 230 LINE",
"704 330 LINE",
"634 330 LINE",
"634 250 LINE",
"376 250 LINE",
"376 330 LINE",
"306 330 LINE",
"306 230 LINE SMOOTH",
"306 229 OFFCURVE",
"306 227 OFFCURVE",
"307 225 CURVE",
"307 220 OFFCURVE",
"311 206 OFFCURVE",
"317 198 CURVE",
"323 189 OFFCURVE",
"337 180 OFFCURVE",
"356 180 CURVE SMOOTH",
"654 180 LINE SMOOTH",
"683 180 OFFCURVE",
"701 201 OFFCURVE",
"702 218 CURVE"
);
}
);
width = 1010;
}
);
unicode = E738;
},
{
glyphname = uniE73A;
layers = (
{
layerId = "B718D8F3-CB97-43BD-9E0D-52F1AEE8232C";
name = Regular;
paths = (
{
closed = 1;
nodes = (
"15 680 LINE",
"222 680 OFFCURVE",
"417 594 OFFCURVE",
"553 458 CURVE SMOOTH",
"689 322 OFFCURVE",
"775 127 OFFCURVE",
"775 -80 CURVE",
"657 -80 LINE",
"657 93 OFFCURVE",
"584 259 OFFCURVE",
"469 374 CURVE SMOOTH",
"354 489 OFFCURVE",
"188 562 OFFCURVE",
"15 562 CURVE"
);
},
{
closed = 1;
nodes = (
"15 443 LINE",
"204 443 OFFCURVE",
"375 343 OFFCURVE",
"468 183 CURVE SMOOTH",
"515 102 OFFCURVE",
"538 15 OFFCURVE",
"538 -80 CURVE",
"420 -80 LINE",
"420 143 OFFCURVE",
"238 325 OFFCURVE",
"15 325 CURVE"
);
},
{
closed = 1;
nodes = (
"70 136 OFFCURVE",
"97 147 OFFCURVE",
"128 147 CURVE SMOOTH",
"191 147 OFFCURVE",
"242 96 OFFCURVE",
"242 33 CURVE SMOOTH",
"242 -30 OFFCURVE",
"191 -80 OFFCURVE",
"128 -80 CURVE SMOOTH",
"65 -80 OFFCURVE",
"15 -30 OFFCURVE",
"15 33 CURVE SMOOTH",
"15 64 OFFCURVE",
"26 91 OFFCURVE",
"48 114 CURVE SMOOTH"
);
}
);
width = 790;
}
);
unicode = E73A;
},
{
glyphname = uniE73D;
layers = (
{
layerId = "B718D8F3-CB97-43BD-9E0D-52F1AEE8232C";
name = Regular;
paths = (
{
closed = 1;
nodes = (
"870 601 OFFCURVE",
"877 581 OFFCURVE",
"874 557 CURVE SMOOTH",
"777 -92 LINE",
"772 -108 OFFCURVE",
"755 -120 OFFCURVE",
"738 -120 CURVE SMOOTH",
"152 -120 LINE SMOOTH",
"135 -120 OFFCURVE",
"118 -108 OFFCURVE",
"113 -92 CURVE",
"113 -92 OFFCURVE",
"81 124 OFFCURVE",
"16 557 CURVE SMOOTH",
"9 605 OFFCURVE",
"30 612 OFFCURVE",
"94 660 CURVE SMOOTH",
"126 684 OFFCURVE",
"144 698 OFFCURVE",
"149 703 CURVE",
"162 714 OFFCURVE",
"181 720 OFFCURVE",
"204 720 CURVE SMOOTH",
"686 720 LINE SMOOTH",
"709 720 OFFCURVE",
"728 714 OFFCURVE",
"741 703 CURVE",
"746 698 OFFCURVE",
"764 684 OFFCURVE",
"796 660 CURVE SMOOTH",
"828 636 OFFCURVE",
"846 622 OFFCURVE",
"851 617 CURVE"
);
},
{
closed = 1;
nodes = (
"396 188 OFFCURVE",
"420 182 OFFCURVE",
"445 182 CURVE SMOOTH",
"496 182 OFFCURVE",
"541 205 OFFCURVE",
"569 245 CURVE SMOOTH",
"597 284 OFFCURVE",
"617 318 OFFCURVE",
"630 367 CURVE SMOOTH",
"642 416 OFFCURVE",
"645 432 OFFCURVE",
"649 459 CURVE",
"558 459 LINE",
"533 334 OFFCURVE",
"495 272 OFFCURVE",
"445 272 CURVE SMOOTH",
"395 272 OFFCURVE",
"357 334 OFFCURVE",
"332 459 CURVE",
"241 459 LINE",
"245 432 OFFCURVE",
"248 416 OFFCURVE",
"261 367 CURVE SMOOTH",
"273 318 OFFCURVE",
"293 284 OFFCURVE",
"321 245 CURVE SMOOTH",
"335 225 OFFCURVE",
"353 210 OFFCURVE",
"375 199 CURVE SMOOTH"
);
},
{
closed = 1;
nodes = (
"93 550 LINE",
"797 550 LINE",
"687 665 LINE",
"203 665 LINE"
);
}
);
width = 890;
}
);
unicode = E73D;
},
{
glyphname = uniE73E;
layers = (
{
layerId = "B718D8F3-CB97-43BD-9E0D-52F1AEE8232C";
name = Regular;
paths = (
{
closed = 1;
nodes = (
"744 654 LINE",
"911 654 LINE",
"911 -127 LINE",
"18 -127 LINE",
"18 654 LINE",
"186 654 LINE",
"186 598 LINE SMOOTH",
"186 537 OFFCURVE",
"237 486 OFFCURVE",
"298 486 CURVE SMOOTH",
"358 486 OFFCURVE",
"409 537 OFFCURVE",
"409 598 CURVE SMOOTH",
"409 654 LINE",
"521 654 LINE",
"521 598 LINE SMOOTH",
"521 537 OFFCURVE",
"572 486 OFFCURVE",
"633 486 CURVE SMOOTH",
"693 486 OFFCURVE",
"744 537 OFFCURVE",
"744 598 CURVE SMOOTH"
);
},
{
closed = 1;
nodes = (
"298 -15 LINE",
"298 96 LINE",
"186 96 LINE",
"186 -15 LINE"
);
},
{
closed = 1;
nodes = (
"298 208 LINE",
"298 320 LINE",
"186 320 LINE",
"186 208 LINE"
);
},
{
closed = 1;
nodes = (
"521 -15 LINE",
"521 96 LINE",
"409 96 LINE",
"409 -15 LINE"
);
},
{
closed = 1;
nodes = (
"521 208 LINE",
"521 320 LINE",
"409 320 LINE",
"409 208 LINE"
);
},
{
closed = 1;
nodes = (
"632 -15 LINE",
"744 96 LINE",
"632 96 LINE"
);
},
{
closed = 1;
nodes = (
"744 208 LINE",
"744 320 LINE",
"632 320 LINE",
"632 208 LINE"
);
},
{
closed = 1;
nodes = (
"241 711 LINE SMOOTH",
"241 742 OFFCURVE",
"266 766 OFFCURVE",
"298 766 CURVE SMOOTH",
"330 766 OFFCURVE",
"353 743 OFFCURVE",
"353 711 CURVE SMOOTH",
"353 599 LINE SMOOTH",
"353 567 OFFCURVE",
"327 543 OFFCURVE",
"298 543 CURVE SMOOTH",
"266 543 OFFCURVE",
"241 568 OFFCURVE",
"241 599 CURVE SMOOTH"
);
},
{
closed = 1;
nodes = (
"576 711 LINE SMOOTH",
"576 742 OFFCURVE",
"600 766 OFFCURVE",
"632 766 CURVE SMOOTH",
"663 766 OFFCURVE",
"688 743 OFFCURVE",
"688 711 CURVE SMOOTH",
"688 599 LINE SMOOTH",
"688 567 OFFCURVE",
"663 543 OFFCURVE",
"633 543 CURVE SMOOTH",
"603 543 OFFCURVE",
"576 568 OFFCURVE",
"576 599 CURVE SMOOTH"
);
}
);
width = 928;
}
);
unicode = E73E;
},
{
glyphname = uniE742;
layers = (
{
layerId = "B718D8F3-CB97-43BD-9E0D-52F1AEE8232C";
name = Regular;
paths = (
{
closed = 1;
nodes = (
"912 127 LINE SMOOTH",
"912 83 OFFCURVE",
"876 47 OFFCURVE",
"832 47 CURVE SMOOTH",
"52 47 LINE SMOOTH",
"8 47 OFFCURVE",
"3 65 OFFCURVE",
"40 88 CURVE",
"843 541 LINE SMOOTH",
"882 564 OFFCURVE",
"912 546 OFFCURVE",
"912 502 CURVE SMOOTH"
);
}
);
width = 927;
}
);
unicode = E742;
},
{
glyphname = uniE744;
layers = (
{
layerId = "B718D8F3-CB97-43BD-9E0D-52F1AEE8232C";
name = Regular;
paths = (
{
closed = 1;
nodes = (
"539 678 LINE",
"815 700 LINE",
"794 420 LINE",
"716 499 LINE",
"574 356 LINE",
"475 456 LINE",
"617 600 LINE"
);
},
{
closed = 1;
nodes = (
"256 244 LINE",
"355 144 LINE",
"213 0 LINE",
"291 -79 LINE",
"15 -100 LINE",
"36 179 LINE",
"114 101 LINE"
);
}
);
width = 830;
}
);
unicode = E744;
},
{
glyphname = uniE746;
layers = (
{
layerId = "B718D8F3-CB97-43BD-9E0D-52F1AEE8232C";
name = Regular;
paths = (
{
closed = 1;
nodes = (
"835 607 LINE",
"690 460 LINE",
"770 379 LINE",
"487 357 LINE",
"509 644 LINE",
"588 563 LINE",
"733 710 LINE"
);
},
{
closed = 1;
nodes = (
"160 140 LINE",
"80 221 LINE",
"363 243 LINE",
"341 -44 LINE",
"262 37 LINE",
"117 -110 LINE",
"15 -7 LINE"
);
}
);
width = 850;
}
);
unicode = E746;
},
{
glyphname = uniE74C;
layers = (
{
layerId = "B718D8F3-CB97-43BD-9E0D-52F1AEE8232C";
name = Regular;
paths = (
{
closed = 1;
nodes = (
"715 700 LINE SMOOTH",
"770 700 OFFCURVE",
"815 655 OFFCURVE",
"815 600 CURVE SMOOTH",
"815 200 LINE SMOOTH",
"815 145 OFFCURVE",
"770 100 OFFCURVE",
"715 100 CURVE SMOOTH",
"315 100 LINE SMOOTH",
"260 100 OFFCURVE",
"215 145 OFFCURVE",
"215 200 CURVE SMOOTH",
"215 601 LINE SMOOTH",
"215 656 OFFCURVE",
"259 700 OFFCURVE",
"314 700 CURVE SMOOTH"
);
},
{
closed = 1;
nodes = (
"715 200 LINE",
"715 600 LINE",
"315 600 LINE",
"315 200 LINE"
);
},
{
closed = 1;
nodes = (
"115 300 LINE",
"115 0 LINE",
"415 0 LINE",
"415 -100 LINE",
"115 -100 LINE SMOOTH",
"60 -100 OFFCURVE",
"15 -55 OFFCURVE",
"15 0 CURVE SMOOTH",
"15 300 LINE"
);
}
);
width = 830;
}
);
unicode = E74C;
},
{
glyphname = uniE74F;
layers = (
{
layerId = "B718D8F3-CB97-43BD-9E0D-52F1AEE8232C";
name = Regular;
paths = (
{
closed = 1;
nodes = (
"245 800 LINE",
"475 435 LINE",
"15 435 LINE"
);
},
{
closed = 1;
nodes = (
"245 -200 LINE",
"15 165 LINE",
"475 165 LINE"
);
}
);
width = 490;
}
);
unicode = E74F;
},
{
glyphname = uniE750;
layers = (
{
layerId = "B718D8F3-CB97-43BD-9E0D-52F1AEE8232C";
name = Regular;
paths = (
{
closed = 1;
nodes = (
"79 242 OFFCURVE",
"50 313 OFFCURVE",
"50 397 CURVE SMOOTH",
"50 564 OFFCURVE",
"184 698 OFFCURVE",
"351 698 CURVE SMOOTH",
"518 698 OFFCURVE",
"645 570 OFFCURVE",
"649 405 CURVE SMOOTH",
"650 322 OFFCURVE",
"627 254 OFFCURVE",
"579 201 CURVE",
"694 161 LINE",
"822 31 LINE",
"846 3 OFFCURVE",
"842 -41 OFFCURVE",
"815 -68 CURVE SMOOTH",
"788 -95 OFFCURVE",
"747 -96 OFFCURVE",
"718 -75 CURVE",
"588 55 LINE",
"548 168 LINE",
"439 72 OFFCURVE",
"247 75 OFFCURVE",
"138 184 CURVE SMOOTH"
);
},
{
closed = 1;
nodes = (
"472 175 OFFCURVE",
"572 274 OFFCURVE",
"572 397 CURVE SMOOTH",
"572 520 OFFCURVE",
"472 620 OFFCURVE",
"351 620 CURVE SMOOTH",
"230 620 OFFCURVE",
"129 520 OFFCURVE",
"129 397 CURVE SMOOTH",
"129 274 OFFCURVE",
"230 175 OFFCURVE",
"351 175 CURVE SMOOTH"
);
},
{
closed = 1;
nodes = (
"218 431 LINE",
"318 431 LINE",
"318 532 LINE",
"385 532 LINE",
"385 431 LINE",
"484 431 LINE",
"484 368 LINE",
"385 368 LINE",
"385 268 LINE",
"318 268 LINE",
"318 368 LINE",
"218 368 LINE"
);
}
);
width = 888;
}
);
unicode = E750;
},
{
glyphname = uniE751;
layers = (
{
layerId = "B718D8F3-CB97-43BD-9E0D-52F1AEE8232C";
name = Regular;
paths = (
{
closed = 1;
nodes = (
"80 243 OFFCURVE",
"50 314 OFFCURVE",
"50 397 CURVE SMOOTH",
"50 564 OFFCURVE",
"186 698 OFFCURVE",
"353 698 CURVE SMOOTH",
"520 698 OFFCURVE",
"645 570 OFFCURVE",
"649 405 CURVE SMOOTH",
"650 322 OFFCURVE",
"627 254 OFFCURVE",
"580 201 CURVE",
"694 161 LINE",
"822 31 LINE",
"846 3 OFFCURVE",
"842 -41 OFFCURVE",
"815 -68 CURVE SMOOTH",
"788 -95 OFFCURVE",
"747 -96 OFFCURVE",
"718 -75 CURVE",
"588 55 LINE",
"548 168 LINE",
"439 72 OFFCURVE",
"247 75 OFFCURVE",
"139 184 CURVE SMOOTH"
);
},
{
closed = 1;
nodes = (
"551 283 OFFCURVE",
"572 336 OFFCURVE",
"572 397 CURVE SMOOTH",
"572 520 OFFCURVE",
"475 620 OFFCURVE",
"352 620 CURVE SMOOTH",
"229 620 OFFCURVE",
"129 520 OFFCURVE",
"129 397 CURVE SMOOTH",
"129 274 OFFCURVE",
"229 175 OFFCURVE",
"352 175 CURVE SMOOTH",
"413 175 OFFCURVE",
"465 197 OFFCURVE",
"508 240 CURVE SMOOTH"
);
},
{
closed = 1;
nodes = (
"218 448 LINE",
"484 448 LINE",
"484 352 LINE",
"218 352 LINE"
);
}
);
width = 888;
}
);
unicode = E751;
},
{
glyphname = uniE75C;
layers = (
{
layerId = "B718D8F3-CB97-43BD-9E0D-52F1AEE8232C";
name = Regular;
paths = (
{
closed = 1;
nodes = (
"344 147 LINE SMOOTH",
"333 136 OFFCURVE",
"320 130 OFFCURVE",
"305 130 CURVE SMOOTH",
"290 130 OFFCURVE",
"277 136 OFFCURVE",
"266 147 CURVE SMOOTH",
"123 283 OFFCURVE",
"44 358 OFFCURVE",
"31 372 CURVE SMOOTH",
"11 393 OFFCURVE",
"10 430 OFFCURVE",
"31 453 CURVE",
"56 478 OFFCURVE",
"82 478 OFFCURVE",
"110 453 CURVE",
"305 265 LINE",
"500 453 LINE",
"528 478 OFFCURVE",
"554 478 OFFCURVE",
"579 453 CURVE",
"600 430 OFFCURVE",
"599 393 OFFCURVE",
"579 372 CURVE"
);
}
);
width = 610;
}
);
unicode = E75C;
},
{
glyphname = uniE75D;
layers = (
{
layerId = "B718D8F3-CB97-43BD-9E0D-52F1AEE8232C";
name = Regular;
paths = (
{
closed = 1;
nodes = (
"278 594 OFFCURVE",
"315 595 OFFCURVE",
"338 574 CURVE",
"363 549 OFFCURVE",
"363 523 OFFCURVE",
"338 495 CURVE",
"150 300 LINE",
"338 105 LINE",
"363 77 OFFCURVE",
"363 51 OFFCURVE",
"338 26 CURVE",
"315 5 OFFCURVE",
"278 6 OFFCURVE",
"257 26 CURVE",
"32 261 LINE SMOOTH",
"21 272 OFFCURVE",
"15 285 OFFCURVE",
"15 300 CURVE SMOOTH",
"15 315 OFFCURVE",
"21 328 OFFCURVE",
"32 339 CURVE SMOOTH",
"168 482 OFFCURVE",
"243 561 OFFCURVE",
"257 574 CURVE SMOOTH"
);
}
);
width = 370;
}
);
unicode = E75D;
},
{
glyphname = uniE75E;
layers = (
{
layerId = "B718D8F3-CB97-43BD-9E0D-52F1AEE8232C";
name = Regular;
paths = (
{
closed = 1;
nodes = (
"338 339 LINE SMOOTH",
"349 328 OFFCURVE",
"355 315 OFFCURVE",
"355 300 CURVE SMOOTH",
"355 285 OFFCURVE",
"349 272 OFFCURVE",
"338 261 CURVE SMOOTH",
"202 118 OFFCURVE",
"127 39 OFFCURVE",
"113 26 CURVE SMOOTH",
"92 6 OFFCURVE",
"55 5 OFFCURVE",
"32 26 CURVE",
"7 51 OFFCURVE",
"7 77 OFFCURVE",
"32 105 CURVE",
"220 300 LINE",
"32 495 LINE",
"7 523 OFFCURVE",
"7 549 OFFCURVE",
"32 574 CURVE",
"55 595 OFFCURVE",
"92 594 OFFCURVE",
"113 574 CURVE"
);
}
);
width = 370;
}
);
unicode = E75E;
},
{
glyphname = uniE75F;
layers = (
{
layerId = "B718D8F3-CB97-43BD-9E0D-52F1AEE8232C";
name = Regular;
paths = (
{
closed = 1;
nodes = (
"599 207 OFFCURVE",
"600 170 OFFCURVE",
"579 147 CURVE",
"554 122 OFFCURVE",
"528 122 OFFCURVE",
"500 147 CURVE",
"305 335 LINE",
"110 147 LINE",
"82 122 OFFCURVE",
"56 122 OFFCURVE",
"31 147 CURVE",
"10 170 OFFCURVE",
"11 207 OFFCURVE",
"31 228 CURVE",
"266 453 LINE SMOOTH",
"277 464 OFFCURVE",
"290 470 OFFCURVE",
"305 470 CURVE SMOOTH",
"320 470 OFFCURVE",
"333 464 OFFCURVE",
"344 453 CURVE SMOOTH",
"487 317 OFFCURVE",
"566 242 OFFCURVE",
"579 228 CURVE SMOOTH"
);
}
);
width = 610;
}
);
unicode = E75F;
},
{
glyphname = uniE760;
layers = (
{
layerId = "B718D8F3-CB97-43BD-9E0D-52F1AEE8232C";
name = Regular;
paths = (
{
closed = 1;
nodes = (
"77 319 LINE SMOOTH",
"80 328 OFFCURVE",
"86 336 OFFCURVE",
"96 341 CURVE",
"107 345 OFFCURVE",
"116 346 OFFCURVE",
"125 343 CURVE SMOOTH",
"342 269 LINE SMOOTH",
"371 260 OFFCURVE",
"372 239 OFFCURVE",
"344 226 CURVE SMOOTH",
"244 176 LINE",
"277 125 OFFCURVE",
"325 87 OFFCURVE",
"384 67 CURVE SMOOTH",
"456 42 OFFCURVE",
"531 49 OFFCURVE",
"595 81 CURVE SMOOTH",
"659 112 OFFCURVE",
"711 168 OFFCURVE",
"736 239 CURVE",
"739 251 OFFCURVE",
"749 255 OFFCURVE",
"760 252 CURVE",
"835 227 LINE",
"847 222 OFFCURVE",
"851 213 OFFCURVE",
"847 202 CURVE SMOOTH",
"812 98 OFFCURVE",
"739 19 OFFCURVE",
"648 -25 CURVE SMOOTH",
"557 -69 OFFCURVE",
"449 -80 OFFCURVE",
"346 -45 CURVE SMOOTH",
"258 -16 OFFCURVE",
"186 44 OFFCURVE",
"138 124 CURVE",
"36 74 LINE",
"8 59 OFFCURVE",
"-8 74 OFFCURVE",
"3 103 CURVE SMOOTH"
);
},
{
closed = 1;
nodes = (
"135 558 OFFCURVE",
"210 638 OFFCURVE",
"300 683 CURVE SMOOTH",
"390 727 OFFCURVE",
"497 738 OFFCURVE",
"601 703 CURVE SMOOTH",
"689 671 OFFCURVE",
"761 613 OFFCURVE",
"809 533 CURVE",
"912 584 LINE SMOOTH",
"940 597 OFFCURVE",
"956 583 OFFCURVE",
"944 554 CURVE",
"871 338 LINE SMOOTH",
"868 329 OFFCURVE",
"861 321 OFFCURVE",
"852 316 CURVE",
"841 312 OFFCURVE",
"831 311 OFFCURVE",
"822 314 CURVE SMOOTH",
"605 388 LINE SMOOTH",
"576 397 OFFCURVE",
"575 418 OFFCURVE",
"603 431 CURVE SMOOTH",
"703 481 LINE",
"670 530 OFFCURVE",
"621 570 OFFCURVE",
"562 590 CURVE SMOOTH",
"490 615 OFFCURVE",
"415 607 OFFCURVE",
"352 576 CURVE SMOOTH",
"288 545 OFFCURVE",
"237 489 OFFCURVE",
"212 417 CURVE SMOOTH",
"208 406 OFFCURVE",
"198 402 OFFCURVE",
"187 405 CURVE",
"113 431 LINE",
"101 434 OFFCURVE",
"97 446 OFFCURVE",
"100 455 CURVE SMOOTH"
);
}
);
width = 947;
}
);
unicode = E760;
},
{
glyphname = uniE765;
layers = (
{
layerId = "B718D8F3-CB97-43BD-9E0D-52F1AEE8232C";
name = Regular;
paths = (
{
closed = 1;
nodes = (
"18 692 OFFCURVE",
"37 711 OFFCURVE",
"74 711 CURVE SMOOTH",
"111 711 OFFCURVE",
"130 692 OFFCURVE",
"130 654 CURVE SMOOTH",
"130 617 OFFCURVE",
"111 599 OFFCURVE",
"74 599 CURVE SMOOTH",
"37 599 OFFCURVE",
"18 617 OFFCURVE",
"18 654 CURVE SMOOTH"
);
},
{
closed = 1;
nodes = (
"18 469 OFFCURVE",
"37 488 OFFCURVE",
"74 488 CURVE SMOOTH",
"111 488 OFFCURVE",
"130 469 OFFCURVE",
"130 431 CURVE SMOOTH",
"130 394 OFFCURVE",
"111 376 OFFCURVE",
"74 376 CURVE SMOOTH",
"37 376 OFFCURVE",
"18 394 OFFCURVE",
"18 431 CURVE SMOOTH"
);
},
{
closed = 1;
nodes = (
"18 245 OFFCURVE",
"37 264 OFFCURVE",
"74 264 CURVE SMOOTH",
"111 264 OFFCURVE",
"130 245 OFFCURVE",
"130 208 CURVE SMOOTH",
"130 171 OFFCURVE",
"111 153 OFFCURVE",
"74 153 CURVE SMOOTH",
"37 153 OFFCURVE",
"18 171 OFFCURVE",
"18 208 CURVE SMOOTH"
);
},
{
closed = 1;
nodes = (
"18 22 OFFCURVE",
"37 41 OFFCURVE",
"74 41 CURVE SMOOTH",
"111 41 OFFCURVE",
"130 22 OFFCURVE",
"130 -15 CURVE SMOOTH",
"130 -52 OFFCURVE",
"111 -70 OFFCURVE",
"74 -70 CURVE SMOOTH",
"37 -70 OFFCURVE",
"18 -52 OFFCURVE",
"18 -15 CURVE SMOOTH"
);
},
{
closed = 1;
nodes = (
"241 599 LINE",
"241 711 LINE",
"911 711 LINE",
"911 599 LINE"
);
},
{
closed = 1;
nodes = (
"241 376 LINE",
"241 488 LINE",
"911 488 LINE",
"911 376 LINE"
);
},
{
closed = 1;
nodes = (
"241 153 LINE",
"241 264 LINE",
"911 264 LINE",
"911 153 LINE"
);
},
{
closed = 1;
nodes = (
"241 -70 LINE",
"241 41 LINE",
"911 41 LINE",
"911 -70 LINE"
);
}
);
width = 928;
}
);
unicode = E765;
},
{
glyphname = uniE768;
layers = (
{
layerId = "B718D8F3-CB97-43BD-9E0D-52F1AEE8232C";
name = Regular;
paths = (
{
closed = 1;
nodes = (
"915 550 LINE SMOOTH",
"970 550 OFFCURVE",
"1015 505 OFFCURVE",
"1015 450 CURVE SMOOTH",
"1015 150 LINE SMOOTH",
"1015 95 OFFCURVE",
"970 50 OFFCURVE",
"915 50 CURVE SMOOTH",
"115 50 LINE SMOOTH",
"60 50 OFFCURVE",
"15 95 OFFCURVE",
"15 150 CURVE SMOOTH",
"15 450 LINE SMOOTH",
"15 505 OFFCURVE",
"60 550 OFFCURVE",
"115 550 CURVE SMOOTH"
);
},
{
closed = 1;
nodes = (
"915 150 LINE",
"915 450 LINE",
"115 450 LINE",
"115 150 LINE"
);
}
);
width = 1030;
}
);
unicode = E768;
},
{
glyphname = uniE769;
layers = (
{
layerId = "B718D8F3-CB97-43BD-9E0D-52F1AEE8232C";
name = Regular;
paths = (
{
closed = 1;
nodes = (
"915 550 LINE SMOOTH",
"970 550 OFFCURVE",
"1015 505 OFFCURVE",
"1015 450 CURVE SMOOTH",
"1015 150 LINE SMOOTH",
"1015 95 OFFCURVE",
"970 50 OFFCURVE",
"915 50 CURVE SMOOTH",
"115 50 LINE SMOOTH",
"60 50 OFFCURVE",
"15 95 OFFCURVE",
"15 150 CURVE SMOOTH",
"15 450 LINE SMOOTH",
"15 505 OFFCURVE",
"60 550 OFFCURVE",
"115 550 CURVE SMOOTH"
);
},
{
closed = 1;
nodes = (
"915 150 LINE",
"915 450 LINE",
"115 450 LINE",
"115 150 LINE"
);
},
{
closed = 1;
nodes = (
"365 400 LINE",
"365 200 LINE",
"165 200 LINE",
"165 400 LINE"
);
}
);
width = 1030;
}
);
unicode = E769;
},
{
glyphname = uniE76A;
layers = (
{
layerId = "B718D8F3-CB97-43BD-9E0D-52F1AEE8232C";
name = Regular;
paths = (
{
closed = 1;
nodes = (
"915 550 LINE SMOOTH",
"970 550 OFFCURVE",
"1015 505 OFFCURVE",
"1015 450 CURVE SMOOTH",
"1015 150 LINE SMOOTH",
"1015 95 OFFCURVE",
"970 50 OFFCURVE",
"915 50 CURVE SMOOTH",
"115 50 LINE SMOOTH",
"60 50 OFFCURVE",
"15 95 OFFCURVE",
"15 150 CURVE SMOOTH",
"15 450 LINE SMOOTH",
"15 505 OFFCURVE",
"60 550 OFFCURVE",
"115 550 CURVE SMOOTH"
);
},
{
closed = 1;
nodes = (
"915 150 LINE",
"915 450 LINE",
"115 450 LINE",
"115 150 LINE"
);
},
{
closed = 1;
nodes = (
"615 400 LINE",
"615 200 LINE",
"415 200 LINE",
"415 400 LINE"
);
},
{
closed = 1;
nodes = (
"365 400 LINE",
"365 200 LINE",
"165 200 LINE",
"165 400 LINE"
);
}
);
width = 1030;
}
);
unicode = E76A;
},
{
glyphname = uniE76B;
layers = (
{
layerId = "B718D8F3-CB97-43BD-9E0D-52F1AEE8232C";
name = Regular;
paths = (
{
closed = 1;
nodes = (
"915 550 LINE SMOOTH",
"970 550 OFFCURVE",
"1015 505 OFFCURVE",
"1015 450 CURVE SMOOTH",
"1015 150 LINE SMOOTH",
"1015 95 OFFCURVE",
"970 50 OFFCURVE",
"915 50 CURVE SMOOTH",
"115 50 LINE SMOOTH",
"60 50 OFFCURVE",
"15 95 OFFCURVE",
"15 150 CURVE SMOOTH",
"15 450 LINE SMOOTH",
"15 505 OFFCURVE",
"60 550 OFFCURVE",
"115 550 CURVE SMOOTH"
);
},
{
closed = 1;
nodes = (
"915 150 LINE",
"915 450 LINE",
"115 450 LINE",
"115 150 LINE"
);
},
{
closed = 1;
nodes = (
"865 400 LINE",
"865 200 LINE",
"665 200 LINE",
"665 400 LINE"
);
},
{
closed = 1;
nodes = (
"365 400 LINE",
"365 200 LINE",
"165 200 LINE",
"165 400 LINE"
);
},
{
closed = 1;
nodes = (
"615 400 LINE",
"615 200 LINE",
"415 200 LINE",
"415 400 LINE"
);
}
);
width = 1030;
}
);
unicode = E76B;
},
{
glyphname = uniE770;
layers = (
{
layerId = "B718D8F3-CB97-43BD-9E0D-52F1AEE8232C";
name = Regular;
paths = (
{
closed = 1;
nodes = (
"454 87 OFFCURVE",
"478 97 OFFCURVE",
"505 97 CURVE SMOOTH",
"560 97 OFFCURVE",
"604 52 OFFCURVE",
"604 -3 CURVE SMOOTH",
"604 -58 OFFCURVE",
"560 -103 OFFCURVE",
"505 -103 CURVE SMOOTH",
"450 -103 OFFCURVE",
"406 -58 OFFCURVE",
"406 -3 CURVE SMOOTH",
"406 24 OFFCURVE",
"416 48 OFFCURVE",
"435 68 CURVE SMOOTH"
);
},
{
closed = 1;
nodes = (
"295 209 LINE",
"353 268 OFFCURVE",
"423 297 OFFCURVE",
"505 297 CURVE SMOOTH",
"587 297 OFFCURVE",
"657 268 OFFCURVE",
"715 209 CURVE",
"645 138 LINE",
"606 177 OFFCURVE",
"560 196 OFFCURVE",
"505 196 CURVE SMOOTH",
"450 196 OFFCURVE",
"404 177 OFFCURVE",
"365 138 CURVE"
);
},
{
closed = 1;
nodes = (
"155 350 LINE",
"252 447 OFFCURVE",
"368 496 OFFCURVE",
"505 496 CURVE SMOOTH",
"642 496 OFFCURVE",
"758 447 OFFCURVE",
"855 350 CURVE",
"785 280 LINE",
"708 358 OFFCURVE",
"614 397 OFFCURVE",
"505 397 CURVE SMOOTH",
"396 397 OFFCURVE",
"302 358 OFFCURVE",
"225 280 CURVE"
);
},
{
closed = 1;
nodes = (
"15 492 LINE",
"192 671 OFFCURVE",
"446 738 OFFCURVE",
"684 674 CURVE SMOOTH",
"803 642 OFFCURVE",
"906 581 OFFCURVE",
"995 492 CURVE",
"925 421 LINE",
"773 574 OFFCURVE",
"556 632 OFFCURVE",
"352 577 CURVE SMOOTH",
"250 550 OFFCURVE",
"161 498 OFFCURVE",
"85 421 CURVE"
);
}
);
width = 1010;
}
);
unicode = E770;
},
{
glyphname = uniE777;
layers = (
{
layerId = "B718D8F3-CB97-43BD-9E0D-52F1AEE8232C";
name = Regular;
paths = (
{
closed = 1;
nodes = (
"1007 321 OFFCURVE",
"1018 296 OFFCURVE",
"1013 275 CURVE",
"985 122 LINE SMOOTH",
"980 97 OFFCURVE",
"951 75 OFFCURVE",
"923 75 CURVE SMOOTH",
"107 75 LINE SMOOTH",
"79 75 OFFCURVE",
"50 97 OFFCURVE",
"45 122 CURVE SMOOTH",
"17 275 LINE",
"12 296 OFFCURVE",
"23 321 OFFCURVE",
"48 348 CURVE SMOOTH",
"63 364 OFFCURVE",
"116 416 OFFCURVE",
"206 504 CURVE SMOOTH",
"220 518 OFFCURVE",
"237 525 OFFCURVE",
"258 525 CURVE SMOOTH",
"772 525 LINE SMOOTH",
"793 525 OFFCURVE",
"810 518 OFFCURVE",
"824 504 CURVE SMOOTH",
"914 416 OFFCURVE",
"967 364 OFFCURVE",
"982 348 CURVE SMOOTH"
);
},
{
closed = 1;
nodes = (
"895 314 LINE",
"793 425 LINE",
"237 425 LINE",
"135 314 LINE",
"313 314 LINE SMOOTH",
"319 314 OFFCURVE",
"323 312 OFFCURVE",
"325 308 CURVE",
"365 206 LINE",
"665 206 LINE",
"705 308 LINE",
"707 312 OFFCURVE",
"711 314 OFFCURVE",
"717 314 CURVE SMOOTH"
);
}
);
width = 1030;
}
);
unicode = E777;
},
{
glyphname = uniE778;
layers = (
{
layerId = "B718D8F3-CB97-43BD-9E0D-52F1AEE8232C";
name = Regular;
paths = (
{
closed = 1;
nodes = (
"899 255 LINE SMOOTH",
"914 222 OFFCURVE",
"919 190 OFFCURVE",
"914 159 CURVE SMOOTH",
"880 -25 LINE SMOOTH",
"875 -53 OFFCURVE",
"848 -75 OFFCURVE",
"820 -75 CURVE SMOOTH",
"110 -75 LINE SMOOTH",
"82 -75 OFFCURVE",
"55 -53 OFFCURVE",
"50 -25 CURVE SMOOTH",
"16 159 LINE SMOOTH",
"11 190 OFFCURVE",
"16 222 OFFCURVE",
"31 255 CURVE SMOOTH",
"188 630 LINE",
"200 655 OFFCURVE",
"234 675 OFFCURVE",
"262 675 CURVE SMOOTH",
"365 675 LINE",
"345 472 LINE",
"210 472 LINE",
"465 260 LINE",
"720 472 LINE",
"585 472 LINE",
"565 675 LINE",
"668 675 LINE SMOOTH",
"696 675 OFFCURVE",
"730 655 OFFCURVE",
"742 630 CURVE"
);
},
{
closed = 1;
nodes = (
"831 118 LINE",
"835 146 OFFCURVE",
"815 169 OFFCURVE",
"787 169 CURVE SMOOTH",
"143 169 LINE SMOOTH",
"115 169 OFFCURVE",
"95 146 OFFCURVE",
"99 118 CURVE",
"112 46 LINE",
"116 18 OFFCURVE",
"142 -4 OFFCURVE",
"170 -4 CURVE SMOOTH",
"760 -4 LINE SMOOTH",
"788 -4 OFFCURVE",
"814 18 OFFCURVE",
"818 46 CURVE"
);
}
);
width = 930;
}
);
unicode = E778;
},
{
glyphname = uniE779;
layers = (
{
layerId = "B718D8F3-CB97-43BD-9E0D-52F1AEE8232C";
name = Regular;
paths = (
{
closed = 1;
nodes = (
"0 -66 LINE",
"1 -25 LINE",
"8 -22 OFFCURVE",
"21 -19 OFFCURVE",
"41 -16 CURVE",
"104 -4 OFFCURVE",
"99 -4 OFFCURVE",
"122 35 CURVE",
"242 351 LINE",
"384 724 LINE",
"422 724 LINE",
"449 724 LINE",
"455 713 LINE",
"559 466 LINE",
"559 466 OFFCURVE",
"570 440 OFFCURVE",
"592 388 CURVE SMOOTH",
"622 313 LINE",
"649 246 LINE",
"671 193 LINE",
"671 193 OFFCURVE",
"676 181 OFFCURVE",
"686 157 CURVE",
"704 109 LINE SMOOTH",
"712 86 OFFCURVE",
"723 61 OFFCURVE",
"737 32 CURVE SMOOTH",
"753 -1 OFFCURVE",
"757 -6 OFFCURVE",
"789 -10 CURVE",
"806 -11 OFFCURVE",
"822 -16 OFFCURVE",
"842 -24 CURVE",
"844 -37 OFFCURVE",
"845 -46 OFFCURVE",
"845 -52 CURVE SMOOTH",
"845 -57 LINE SMOOTH",
"845 -60 OFFCURVE",
"845 -63 OFFCURVE",
"844 -66 CURVE",
"815 -66 OFFCURVE",
"783 -65 OFFCURVE",
"747 -62 CURVE SMOOTH",
"711 -58 OFFCURVE",
"680 -57 OFFCURVE",
"652 -57 CURVE SMOOTH",
"611 -57 LINE SMOOTH",
"600 -57 OFFCURVE",
"590 -57 OFFCURVE",
"583 -58 CURVE",
"481 -64 LINE",
"452 -65 LINE",
"452 -50 OFFCURVE",
"453 -37 OFFCURVE",
"454 -25 CURVE",
"520 -11 LINE",
"539 -6 OFFCURVE",
"551 -2 OFFCURVE",
"555 2 CURVE",
"559 5 OFFCURVE",
"561 9 OFFCURVE",
"561 15 CURVE SMOOTH",
"561 20 OFFCURVE",
"560 26 OFFCURVE",
"558 31 CURVE SMOOTH",
"534 90 LINE",
"487 207 LINE",
"258 208 LINE SMOOTH",
"258 208 OFFCURVE",
"252 191 OFFCURVE",
"239 158 CURVE SMOOTH",
"205 67 LINE",
"198 45 OFFCURVE",
"194 31 OFFCURVE",
"194 24 CURVE SMOOTH",
"194 5 OFFCURVE",
"205 -3 OFFCURVE",
"223 -7 CURVE",
"241 -12 OFFCURVE",
"250 -14 OFFCURVE",
"298 -21 CURVE",
"298 -51 LINE SMOOTH",
"298 -56 OFFCURVE",
"298 -61 OFFCURVE",
"297 -65 CURVE",
"285 -65 OFFCURVE",
"264 -64 OFFCURVE",
"235 -62 CURVE SMOOTH",
"120 -54 LINE",
"95 -58 LINE",
"66 -65 OFFCURVE",
"39 -66 OFFCURVE",
"11 -66 CURVE SMOOTH"
);
},
{
closed = 1;
nodes = (
"282 271 LINE",
"329 270 OFFCURVE",
"366 270 OFFCURVE",
"394 269 CURVE SMOOTH",
"421 268 OFFCURVE",
"439 268 OFFCURVE",
"447 269 CURVE",
"462 270 LINE",
"456 287 OFFCURVE",
"449 306 OFFCURVE",
"441 327 CURVE SMOOTH",
"414 394 LINE",
"388 457 LINE SMOOTH",
"381 475 OFFCURVE",
"374 490 OFFCURVE",
"368 502 CURVE"
);
}
);
width = 845;
}
);
unicode = E779;
},
{
glyphname = uniE77A;
layers = (
{
layerId = "B718D8F3-CB97-43BD-9E0D-52F1AEE8232C";
name = Regular;
paths = (
{
closed = 1;
nodes = (
"1 -17 LINE",
"10 -15 OFFCURVE",
"22 -13 OFFCURVE",
"36 -11 CURVE SMOOTH",
"63 -7 OFFCURVE",
"83 -3 OFFCURVE",
"100 5 CURVE",
"105 14 OFFCURVE",
"108 23 OFFCURVE",
"111 31 CURVE",
"115 54 OFFCURVE",
"116 86 OFFCURVE",
"116 130 CURVE",
"115 386 LINE",
"114 399 OFFCURVE",
"114 423 OFFCURVE",
"114 458 CURVE",
"113 492 OFFCURVE",
"112 537 OFFCURVE",
"111 594 CURVE",
"109 624 OFFCURVE",
"107 643 OFFCURVE",
"104 650 CURVE",
"103 653 OFFCURVE",
"101 654 OFFCURVE",
"98 655 CURVE",
"91 660 OFFCURVE",
"79 663 OFFCURVE",
"62 664 CURVE",
"55 664 OFFCURVE",
"35 666 OFFCURVE",
"3 670 CURVE",
"1 713 LINE",
"136 716 LINE",
"333 723 LINE",
"356 723 LINE",
"359 724 OFFCURVE",
"361 724 OFFCURVE",
"364 724 CURVE SMOOTH",
"371 724 LINE SMOOTH",
"373 724 OFFCURVE",
"377 724 OFFCURVE",
"382 724 CURVE",
"387 723 OFFCURVE",
"393 723 OFFCURVE",
"402 723 CURVE SMOOTH",
"441 723 LINE SMOOTH",
"472 723 OFFCURVE",
"505 718 OFFCURVE",
"540 709 CURVE SMOOTH",
"552 706 OFFCURVE",
"570 700 OFFCURVE",
"589 689 CURVE",
"633 668 OFFCURVE",
"662 636 OFFCURVE",
"677 596 CURVE SMOOTH",
"684 577 OFFCURVE",
"687 557 OFFCURVE",
"687 534 CURVE SMOOTH",
"687 485 OFFCURVE",
"666 446 OFFCURVE",
"622 414 CURVE",
"617 410 OFFCURVE",
"607 405 OFFCURVE",
"594 398 CURVE",
"544 374 LINE",
"667 346 OFFCURVE",
"729 269 OFFCURVE",
"729 178 CURVE SMOOTH",
"729 154 OFFCURVE",
"724 126 OFFCURVE",
"715 95 CURVE",
"699 51 OFFCURVE",
"657 4 OFFCURVE",
"605 -21 CURVE",
"552 -44 OFFCURVE",
"486 -57 OFFCURVE",
"398 -56 CURVE SMOOTH",
"296 -54 LINE SMOOTH",
"252 -53 OFFCURVE",
"201 -56 OFFCURVE",
"141 -61 CURVE SMOOTH",
"132 -62 OFFCURVE",
"116 -62 OFFCURVE",
"93 -63 CURVE SMOOTH",
"70 -64 OFFCURVE",
"39 -65 OFFCURVE",
"0 -66 CURVE"
);
},
{
closed = 1;
nodes = (
"276 655 OFFCURVE",
"277 641 OFFCURVE",
"278 625 CURVE SMOOTH",
"279 589 OFFCURVE",
"281 543 OFFCURVE",
"280 482 CURVE SMOOTH",
"280 431 LINE",
"280 391 LINE",
"297 388 OFFCURVE",
"316 387 OFFCURVE",
"337 387 CURVE SMOOTH",
"457 387 OFFCURVE",
"520 427 OFFCURVE",
"520 536 CURVE SMOOTH",
"520 613 OFFCURVE",
"463 671 OFFCURVE",
"343 671 CURVE SMOOTH",
"325 671 OFFCURVE",
"303 669 OFFCURVE",
"276 664 CURVE"
);
},
{
closed = 1;
nodes = (
"280 169 LINE",
"282 30 LINE SMOOTH",
"282 25 OFFCURVE",
"284 17 OFFCURVE",
"287 8 CURVE",
"312 -3 OFFCURVE",
"337 -9 OFFCURVE",
"360 -9 CURVE SMOOTH",
"449 -9 OFFCURVE",
"508 19 OFFCURVE",
"536 70 CURVE",
"548 95 OFFCURVE",
"556 125 OFFCURVE",
"556 164 CURVE SMOOTH",
"556 241 OFFCURVE",
"517 300 OFFCURVE",
"461 321 CURVE SMOOTH",
"434 332 OFFCURVE",
"391 337 OFFCURVE",
"333 337 CURVE SMOOTH",
"308 337 OFFCURVE",
"291 335 OFFCURVE",
"280 332 CURVE",
"280 258 LINE"
);
}
);
width = 729;
}
);
unicode = E77A;
},
{
glyphname = uniE77B;
layers = (
{
layerId = "B718D8F3-CB97-43BD-9E0D-52F1AEE8232C";
name = Regular;
paths = (
{
closed = 1;
nodes = (
"9 -23 LINE",
"9 -23 OFFCURVE",
"32 -16 OFFCURVE",
"49 -12 CURVE SMOOTH",
"78 -5 OFFCURVE",
"97 1 OFFCURVE",
"112 8 CURVE",
"121 21 OFFCURVE",
"128 39 OFFCURVE",
"133 61 CURVE SMOOTH",
"147 131 LINE",
"177 269 LINE",
"183 302 LINE SMOOTH",
"191 343 OFFCURVE",
"198 373 OFFCURVE",
"205 394 CURVE SMOOTH",
"211 414 OFFCURVE",
"214 425 OFFCURVE",
"214 426 CURVE",
"229 506 LINE",
"238 538 LINE",
"249 608 LINE",
"254 633 LINE",
"254 653 LINE",
"239 661 OFFCURVE",
"213 666 OFFCURVE",
"178 668 CURVE",
"173 668 OFFCURVE",
"169 668 OFFCURVE",
"166 669 CURVE",
"163 669 OFFCURVE",
"160 669 OFFCURVE",
"157 669 CURVE",
"167 723 LINE",
"335 715 LINE",
"346 714 OFFCURVE",
"354 714 OFFCURVE",
"360 714 CURVE SMOOTH",
"374 714 LINE SMOOTH",
"398 714 OFFCURVE",
"434 715 OFFCURVE",
"487 718 CURVE",
"501 720 OFFCURVE",
"513 721 OFFCURVE",
"523 722 CURVE SMOOTH",
"532 723 OFFCURVE",
"539 723 OFFCURVE",
"542 723 CURVE",
"541 719 OFFCURVE",
"541 716 OFFCURVE",
"541 713 CURVE",
"540 710 OFFCURVE",
"540 706 OFFCURVE",
"539 703 CURVE SMOOTH",
"535 691 LINE",
"532 676 LINE",
"515 671 OFFCURVE",
"496 666 OFFCURVE",
"475 661 CURVE SMOOTH",
"452 655 OFFCURVE",
"434 650 OFFCURVE",
"421 645 CURVE",
"417 634 OFFCURVE",
"413 618 OFFCURVE",
"408 599 CURVE SMOOTH",
"404 583 OFFCURVE",
"402 569 OFFCURVE",
"401 557 CURVE",
"401 557 OFFCURVE",
"394 527 OFFCURVE",
"380 467 CURVE SMOOTH",
"366 401 LINE",
"334 241 LINE",
"314 159 LINE",
"292 38 LINE",
"284 15 LINE",
"284 10 LINE SMOOTH",
"284 8 OFFCURVE",
"284 5 OFFCURVE",
"285 2 CURVE",
"309 -5 OFFCURVE",
"329 -7 OFFCURVE",
"348 -10 CURVE",
"350 -10 OFFCURVE",
"354 -10 OFFCURVE",
"360 -11 CURVE SMOOTH",
"365 -12 OFFCURVE",
"373 -13 OFFCURVE",
"383 -14 CURVE",
"382 -21 OFFCURVE",
"382 -26 OFFCURVE",
"382 -31 CURVE",
"381 -40 OFFCURVE",
"379 -46 OFFCURVE",
"378 -53 CURVE",
"377 -56 OFFCURVE",
"376 -60 OFFCURVE",
"375 -65 CURVE",
"372 -65 OFFCURVE",
"370 -65 OFFCURVE",
"368 -65 CURVE",
"365 -66 OFFCURVE",
"363 -66 OFFCURVE",
"362 -66 CURVE",
"356 -67 OFFCURVE",
"351 -67 OFFCURVE",
"347 -67 CURVE SMOOTH",
"340 -67 LINE",
"335 -67 LINE SMOOTH",
"332 -67 OFFCURVE",
"329 -66 OFFCURVE",
"325 -65 CURVE",
"322 -65 OFFCURVE",
"315 -64 OFFCURVE",
"302 -63 CURVE SMOOTH",
"289 -62 OFFCURVE",
"271 -59 OFFCURVE",
"248 -56 CURVE",
"144 -55 LINE SMOOTH",
"123 -55 OFFCURVE",
"93 -57 OFFCURVE",
"52 -62 CURVE",
"39 -63 OFFCURVE",
"28 -64 OFFCURVE",
"19 -65 CURVE SMOOTH",
"10 -66 OFFCURVE",
"4 -66 OFFCURVE",
"0 -66 CURVE"
);
}
);
width = 542;
}
);
unicode = E77B;
},
{
glyphname = uniE77E;
layers = (
{
layerId = "B718D8F3-CB97-43BD-9E0D-52F1AEE8232C";
name = Regular;
paths = (
{
closed = 1;
nodes = (
"0 33 LINE SMOOTH",
"0 54 OFFCURVE",
"17 72 OFFCURVE",
"40 72 CURVE SMOOTH",
"908 72 LINE SMOOTH",
"929 72 OFFCURVE",
"947 54 OFFCURVE",
"947 33 CURVE SMOOTH",
"947 -26 LINE SMOOTH",
"947 -49 OFFCURVE",
"929 -66 OFFCURVE",
"908 -66 CURVE SMOOTH",
"40 -66 LINE SMOOTH",
"17 -66 OFFCURVE",
"0 -49 OFFCURVE",
"0 -26 CURVE SMOOTH"
);
},
{
closed = 1;
nodes = (
"0 250 LINE SMOOTH",
"0 273 OFFCURVE",
"17 290 OFFCURVE",
"40 290 CURVE SMOOTH",
"593 290 LINE SMOOTH",
"613 290 OFFCURVE",
"632 273 OFFCURVE",
"632 250 CURVE SMOOTH",
"632 191 LINE SMOOTH",
"632 168 OFFCURVE",
"613 151 OFFCURVE",
"593 151 CURVE SMOOTH",
"40 151 LINE SMOOTH",
"17 151 OFFCURVE",
"0 168 OFFCURVE",
"0 191 CURVE SMOOTH"
);
},
{
closed = 1;
nodes = (
"0 467 LINE SMOOTH",
"0 490 OFFCURVE",
"17 507 OFFCURVE",
"40 507 CURVE SMOOTH",
"829 507 LINE SMOOTH",
"850 507 OFFCURVE",
"868 490 OFFCURVE",
"868 467 CURVE SMOOTH",
"868 408 LINE SMOOTH",
"868 385 OFFCURVE",
"850 369 OFFCURVE",
"829 369 CURVE SMOOTH",
"40 369 LINE SMOOTH",
"17 369 OFFCURVE",
"0 385 OFFCURVE",
"0 408 CURVE SMOOTH"
);
},
{
closed = 1;
nodes = (
"0 685 LINE SMOOTH",
"0 706 OFFCURVE",
"17 724 OFFCURVE",
"40 724 CURVE SMOOTH",
"514 724 LINE SMOOTH",
"534 724 OFFCURVE",
"553 706 OFFCURVE",
"553 685 CURVE SMOOTH",
"553 625 LINE SMOOTH",
"553 604 OFFCURVE",
"534 586 OFFCURVE",
"514 586 CURVE SMOOTH",
"40 586 LINE SMOOTH",
"17 586 OFFCURVE",
"0 604 OFFCURVE",
"0 625 CURVE SMOOTH"
);
}
);
width = 947;
}
);
unicode = E77E;
},
{
glyphname = uniE77F;
layers = (
{
layerId = "B718D8F3-CB97-43BD-9E0D-52F1AEE8232C";
name = Regular;
paths = (
{
closed = 1;
nodes = (
"0 33 LINE SMOOTH",
"0 54 OFFCURVE",
"17 72 OFFCURVE",
"40 72 CURVE SMOOTH",
"908 72 LINE SMOOTH",
"929 72 OFFCURVE",
"947 54 OFFCURVE",
"947 33 CURVE SMOOTH",
"947 -26 LINE SMOOTH",
"947 -49 OFFCURVE",
"929 -66 OFFCURVE",
"908 -66 CURVE SMOOTH",
"40 -66 LINE SMOOTH",
"17 -66 OFFCURVE",
"0 -49 OFFCURVE",
"0 -26 CURVE SMOOTH"
);
},
{
closed = 1;
nodes = (
"40 467 LINE SMOOTH",
"40 490 OFFCURVE",
"56 507 OFFCURVE",
"79 507 CURVE SMOOTH",
"868 507 LINE SMOOTH",
"891 507 OFFCURVE",
"908 490 OFFCURVE",
"908 467 CURVE SMOOTH",
"908 408 LINE SMOOTH",
"908 385 OFFCURVE",
"891 369 OFFCURVE",
"868 369 CURVE SMOOTH",
"79 369 LINE SMOOTH",
"56 369 OFFCURVE",
"40 385 OFFCURVE",
"40 408 CURVE SMOOTH"
);
},
{
closed = 1;
nodes = (
"158 250 LINE SMOOTH",
"158 273 OFFCURVE",
"175 290 OFFCURVE",
"198 290 CURVE SMOOTH",
"751 290 LINE SMOOTH",
"771 290 OFFCURVE",
"789 273 OFFCURVE",
"789 250 CURVE SMOOTH",
"789 191 LINE SMOOTH",
"789 168 OFFCURVE",
"771 151 OFFCURVE",
"751 151 CURVE SMOOTH",
"198 151 LINE SMOOTH",
"175 151 OFFCURVE",
"158 168 OFFCURVE",
"158 191 CURVE SMOOTH"
);
},
{
closed = 1;
nodes = (
"198 685 LINE SMOOTH",
"198 706 OFFCURVE",
"214 724 OFFCURVE",
"237 724 CURVE SMOOTH",
"711 724 LINE SMOOTH",
"732 724 OFFCURVE",
"751 706 OFFCURVE",
"751 685 CURVE SMOOTH",
"751 625 LINE SMOOTH",
"751 604 OFFCURVE",
"732 586 OFFCURVE",
"711 586 CURVE SMOOTH",
"237 586 LINE SMOOTH",
"214 586 OFFCURVE",
"198 604 OFFCURVE",
"198 625 CURVE SMOOTH"
);
}
);
width = 947;
}
);
unicode = E77F;
},
{
glyphname = uniE780;
layers = (
{
layerId = "B718D8F3-CB97-43BD-9E0D-52F1AEE8232C";
name = Regular;
paths = (
{
closed = 1;
nodes = (
"0 33 LINE SMOOTH",
"0 54 OFFCURVE",
"17 72 OFFCURVE",
"40 72 CURVE SMOOTH",
"908 72 LINE SMOOTH",
"929 72 OFFCURVE",
"947 54 OFFCURVE",
"947 33 CURVE SMOOTH",
"947 -26 LINE SMOOTH",
"947 -49 OFFCURVE",
"929 -66 OFFCURVE",
"908 -66 CURVE SMOOTH",
"40 -66 LINE SMOOTH",
"17 -66 OFFCURVE",
"0 -49 OFFCURVE",
"0 -26 CURVE SMOOTH"
);
},
{
closed = 1;
nodes = (
"79 467 LINE SMOOTH",
"79 490 OFFCURVE",
"96 507 OFFCURVE",
"119 507 CURVE SMOOTH",
"908 507 LINE SMOOTH",
"929 507 OFFCURVE",
"947 490 OFFCURVE",
"947 467 CURVE SMOOTH",
"947 408 LINE SMOOTH",
"947 385 OFFCURVE",
"929 369 OFFCURVE",
"908 369 CURVE SMOOTH",
"119 369 LINE SMOOTH",
"96 369 OFFCURVE",
"79 385 OFFCURVE",
"79 408 CURVE SMOOTH"
);
},
{
closed = 1;
nodes = (
"316 250 LINE SMOOTH",
"316 273 OFFCURVE",
"333 290 OFFCURVE",
"356 290 CURVE SMOOTH",
"908 290 LINE SMOOTH",
"929 290 OFFCURVE",
"947 273 OFFCURVE",
"947 250 CURVE SMOOTH",
"947 191 LINE SMOOTH",
"947 168 OFFCURVE",
"929 151 OFFCURVE",
"908 151 CURVE SMOOTH",
"356 151 LINE SMOOTH",
"333 151 OFFCURVE",
"316 168 OFFCURVE",
"316 191 CURVE SMOOTH"
);
},
{
closed = 1;
nodes = (
"395 685 LINE SMOOTH",
"395 706 OFFCURVE",
"412 724 OFFCURVE",
"435 724 CURVE SMOOTH",
"908 724 LINE SMOOTH",
"929 724 OFFCURVE",
"947 706 OFFCURVE",
"947 685 CURVE SMOOTH",
"947 625 LINE SMOOTH",
"947 604 OFFCURVE",
"929 586 OFFCURVE",
"908 586 CURVE SMOOTH",
"435 586 LINE SMOOTH",
"412 586 OFFCURVE",
"395 604 OFFCURVE",
"395 625 CURVE SMOOTH"
);
}
);
width = 947;
}
);
unicode = E780;
},
{
glyphname = uniE781;
layers = (
{
layerId = "B718D8F3-CB97-43BD-9E0D-52F1AEE8232C";
name = Regular;
paths = (
{
closed = 1;
nodes = (
"0 33 LINE SMOOTH",
"0 54 OFFCURVE",
"17 72 OFFCURVE",
"40 72 CURVE SMOOTH",
"908 72 LINE SMOOTH",
"929 72 OFFCURVE",
"947 54 OFFCURVE",
"947 33 CURVE SMOOTH",
"947 -26 LINE SMOOTH",
"947 -49 OFFCURVE",
"929 -66 OFFCURVE",
"908 -66 CURVE SMOOTH",
"40 -66 LINE SMOOTH",
"17 -66 OFFCURVE",
"0 -49 OFFCURVE",
"0 -26 CURVE SMOOTH"
);
},
{
closed = 1;
nodes = (
"0 250 LINE SMOOTH",
"0 273 OFFCURVE",
"17 290 OFFCURVE",
"40 290 CURVE SMOOTH",
"908 290 LINE SMOOTH",
"929 290 OFFCURVE",
"947 273 OFFCURVE",
"947 250 CURVE SMOOTH",
"947 191 LINE SMOOTH",
"947 168 OFFCURVE",
"929 151 OFFCURVE",
"908 151 CURVE SMOOTH",
"40 151 LINE SMOOTH",
"17 151 OFFCURVE",
"0 168 OFFCURVE",
"0 191 CURVE SMOOTH"
);
},
{
closed = 1;
nodes = (
"0 467 LINE SMOOTH",
"0 490 OFFCURVE",
"17 507 OFFCURVE",
"40 507 CURVE SMOOTH",
"908 507 LINE SMOOTH",
"929 507 OFFCURVE",
"947 490 OFFCURVE",
"947 467 CURVE SMOOTH",
"947 408 LINE SMOOTH",
"947 385 OFFCURVE",
"929 369 OFFCURVE",
"908 369 CURVE SMOOTH",
"40 369 LINE SMOOTH",
"17 369 OFFCURVE",
"0 385 OFFCURVE",
"0 408 CURVE SMOOTH"
);
},
{
closed = 1;
nodes = (
"0 685 LINE SMOOTH",
"0 706 OFFCURVE",
"17 724 OFFCURVE",
"40 724 CURVE SMOOTH",
"908 724 LINE SMOOTH",
"929 724 OFFCURVE",
"947 706 OFFCURVE",
"947 685 CURVE SMOOTH",
"947 625 LINE SMOOTH",
"947 604 OFFCURVE",
"929 586 OFFCURVE",
"908 586 CURVE SMOOTH",
"40 586 LINE SMOOTH",
"17 586 OFFCURVE",
"0 604 OFFCURVE",
"0 625 CURVE SMOOTH"
);
}
);
width = 947;
}
);
unicode = E781;
},
{
glyphname = uniE782;
layers = (
{
layerId = "B718D8F3-CB97-43BD-9E0D-52F1AEE8232C";
name = Regular;
paths = (
{
closed = 1;
nodes = (
"0 33 LINE SMOOTH",
"0 54 OFFCURVE",
"17 72 OFFCURVE",
"40 72 CURVE SMOOTH",
"119 72 LINE SMOOTH",
"140 72 OFFCURVE",
"158 54 OFFCURVE",
"158 33 CURVE SMOOTH",
"158 -26 LINE SMOOTH",
"158 -49 OFFCURVE",
"140 -66 OFFCURVE",
"119 -66 CURVE SMOOTH",
"40 -66 LINE SMOOTH",
"17 -66 OFFCURVE",
"0 -49 OFFCURVE",
"0 -26 CURVE SMOOTH"
);
},
{
closed = 1;
nodes = (
"0 250 LINE SMOOTH",
"0 273 OFFCURVE",
"17 290 OFFCURVE",
"40 290 CURVE SMOOTH",
"119 290 LINE SMOOTH",
"140 290 OFFCURVE",
"158 273 OFFCURVE",
"158 250 CURVE SMOOTH",
"158 191 LINE SMOOTH",
"158 168 OFFCURVE",
"140 151 OFFCURVE",
"119 151 CURVE SMOOTH",
"40 151 LINE SMOOTH",
"17 151 OFFCURVE",
"0 168 OFFCURVE",
"0 191 CURVE SMOOTH"
);
},
{
closed = 1;
nodes = (
"0 467 LINE SMOOTH",
"0 490 OFFCURVE",
"17 507 OFFCURVE",
"40 507 CURVE SMOOTH",
"119 507 LINE SMOOTH",
"140 507 OFFCURVE",
"158 490 OFFCURVE",
"158 467 CURVE SMOOTH",
"158 408 LINE SMOOTH",
"158 385 OFFCURVE",
"140 369 OFFCURVE",
"119 369 CURVE SMOOTH",
"40 369 LINE SMOOTH",
"17 369 OFFCURVE",
"0 385 OFFCURVE",
"0 408 CURVE SMOOTH"
);
},
{
closed = 1;
nodes = (
"0 685 LINE SMOOTH",
"0 706 OFFCURVE",
"17 724 OFFCURVE",
"40 724 CURVE SMOOTH",
"119 724 LINE SMOOTH",
"140 724 OFFCURVE",
"158 706 OFFCURVE",
"158 685 CURVE SMOOTH",
"158 625 LINE SMOOTH",
"158 604 OFFCURVE",
"140 586 OFFCURVE",
"119 586 CURVE SMOOTH",
"40 586 LINE SMOOTH",
"17 586 OFFCURVE",
"0 604 OFFCURVE",
"0 625 CURVE SMOOTH"
);
},
{
closed = 1;
nodes = (
"237 33 LINE SMOOTH",
"237 54 OFFCURVE",
"254 72 OFFCURVE",
"277 72 CURVE SMOOTH",
"908 72 LINE SMOOTH",
"929 72 OFFCURVE",
"947 54 OFFCURVE",
"947 33 CURVE SMOOTH",
"947 -26 LINE SMOOTH",
"947 -49 OFFCURVE",
"929 -66 OFFCURVE",
"908 -66 CURVE SMOOTH",
"277 -66 LINE SMOOTH",
"254 -66 OFFCURVE",
"237 -49 OFFCURVE",
"237 -26 CURVE SMOOTH"
);
},
{
closed = 1;
nodes = (
"237 250 LINE SMOOTH",
"237 273 OFFCURVE",
"254 290 OFFCURVE",
"277 290 CURVE SMOOTH",
"908 290 LINE SMOOTH",
"929 290 OFFCURVE",
"947 273 OFFCURVE",
"947 250 CURVE SMOOTH",
"947 191 LINE SMOOTH",
"947 168 OFFCURVE",
"929 151 OFFCURVE",
"908 151 CURVE SMOOTH",
"277 151 LINE SMOOTH",
"254 151 OFFCURVE",
"237 168 OFFCURVE",
"237 191 CURVE SMOOTH"
);
},
{
closed = 1;
nodes = (
"237 467 LINE SMOOTH",
"237 490 OFFCURVE",
"254 507 OFFCURVE",
"277 507 CURVE SMOOTH",
"908 507 LINE SMOOTH",
"929 507 OFFCURVE",
"947 490 OFFCURVE",
"947 467 CURVE SMOOTH",
"947 408 LINE SMOOTH",
"947 385 OFFCURVE",
"929 369 OFFCURVE",
"908 369 CURVE SMOOTH",
"277 369 LINE SMOOTH",
"254 369 OFFCURVE",
"237 385 OFFCURVE",
"237 408 CURVE SMOOTH"
);
},
{
closed = 1;
nodes = (
"237 685 LINE SMOOTH",
"237 706 OFFCURVE",
"254 724 OFFCURVE",
"277 724 CURVE SMOOTH",
"908 724 LINE SMOOTH",
"929 724 OFFCURVE",
"947 706 OFFCURVE",
"947 685 CURVE SMOOTH",
"947 625 LINE SMOOTH",
"947 604 OFFCURVE",
"929 586 OFFCURVE",
"908 586 CURVE SMOOTH",
"277 586 LINE SMOOTH",
"254 586 OFFCURVE",
"237 604 OFFCURVE",
"237 625 CURVE SMOOTH"
);
}
);
width = 947;
}
);
unicode = E782;
},
{
glyphname = uniE783;
layers = (
{
layerId = "B718D8F3-CB97-43BD-9E0D-52F1AEE8232C";
name = Regular;
paths = (
{
closed = 1;
nodes = (
"0 362 LINE SMOOTH",
"0 375 OFFCURVE",
"7 382 OFFCURVE",
"20 382 CURVE SMOOTH",
"129 382 LINE",
"129 461 LINE SMOOTH",
"129 481 OFFCURVE",
"142 487 OFFCURVE",
"158 471 CURVE SMOOTH",
"268 361 LINE SMOOTH",
"274 355 OFFCURVE",
"277 349 OFFCURVE",
"277 342 CURVE SMOOTH",
"277 335 OFFCURVE",
"274 329 OFFCURVE",
"268 324 CURVE",
"158 213 LINE",
"142 198 OFFCURVE",
"129 202 OFFCURVE",
"129 225 CURVE SMOOTH",
"129 303 LINE",
"20 303 LINE SMOOTH",
"7 303 OFFCURVE",
"0 310 OFFCURVE",
"0 323 CURVE SMOOTH"
);
},
{
closed = 1;
nodes = (
"316 704 LINE SMOOTH",
"316 717 OFFCURVE",
"323 724 OFFCURVE",
"336 724 CURVE SMOOTH",
"375 724 LINE SMOOTH",
"388 724 OFFCURVE",
"395 717 OFFCURVE",
"395 704 CURVE SMOOTH",
"395 -46 LINE SMOOTH",
"395 -59 OFFCURVE",
"388 -66 OFFCURVE",
"375 -66 CURVE SMOOTH",
"336 -66 LINE SMOOTH",
"323 -66 OFFCURVE",
"316 -59 OFFCURVE",
"316 -46 CURVE SMOOTH"
);
},
{
closed = 1;
nodes = (
"474 33 LINE SMOOTH",
"474 54 OFFCURVE",
"491 72 OFFCURVE",
"514 72 CURVE SMOOTH",
"908 72 LINE SMOOTH",
"929 72 OFFCURVE",
"947 54 OFFCURVE",
"947 33 CURVE SMOOTH",
"947 -26 LINE SMOOTH",
"947 -49 OFFCURVE",
"929 -66 OFFCURVE",
"908 -66 CURVE SMOOTH",
"514 -66 LINE SMOOTH",
"491 -66 OFFCURVE",
"474 -49 OFFCURVE",
"474 -26 CURVE SMOOTH"
);
},
{
closed = 1;
nodes = (
"474 250 LINE SMOOTH",
"474 273 OFFCURVE",
"491 290 OFFCURVE",
"514 290 CURVE SMOOTH",
"829 290 LINE SMOOTH",
"850 290 OFFCURVE",
"868 273 OFFCURVE",
"868 250 CURVE SMOOTH",
"868 191 LINE SMOOTH",
"868 168 OFFCURVE",
"850 151 OFFCURVE",
"829 151 CURVE SMOOTH",
"514 151 LINE SMOOTH",
"491 151 OFFCURVE",
"474 168 OFFCURVE",
"474 191 CURVE SMOOTH"
);
},
{
closed = 1;
nodes = (
"474 467 LINE SMOOTH",
"474 490 OFFCURVE",
"491 507 OFFCURVE",
"514 507 CURVE SMOOTH",
"868 507 LINE SMOOTH",
"891 507 OFFCURVE",
"908 490 OFFCURVE",
"908 467 CURVE SMOOTH",
"908 408 LINE SMOOTH",
"908 385 OFFCURVE",
"891 369 OFFCURVE",
"868 369 CURVE SMOOTH",
"514 369 LINE SMOOTH",
"491 369 OFFCURVE",
"474 385 OFFCURVE",
"474 408 CURVE SMOOTH"
);
},
{
closed = 1;
nodes = (
"474 685 LINE SMOOTH",
"474 706 OFFCURVE",
"491 724 OFFCURVE",
"514 724 CURVE SMOOTH",
"789 724 LINE SMOOTH",
"812 724 OFFCURVE",
"829 706 OFFCURVE",
"829 685 CURVE SMOOTH",
"829 625 LINE SMOOTH",
"829 604 OFFCURVE",
"812 586 OFFCURVE",
"789 586 CURVE SMOOTH",
"514 586 LINE SMOOTH",
"491 586 OFFCURVE",
"474 604 OFFCURVE",
"474 625 CURVE SMOOTH"
);
}
);
width = 947;
}
);
unicode = E783;
},
{
glyphname = uniE784;
layers = (
{
layerId = "B718D8F3-CB97-43BD-9E0D-52F1AEE8232C";
name = Regular;
paths = (
{
closed = 1;
nodes = (
"0 33 LINE SMOOTH",
"0 54 OFFCURVE",
"18 72 OFFCURVE",
"39 72 CURVE SMOOTH",
"434 72 LINE SMOOTH",
"457 72 OFFCURVE",
"474 54 OFFCURVE",
"474 33 CURVE SMOOTH",
"474 -26 LINE SMOOTH",
"474 -49 OFFCURVE",
"457 -66 OFFCURVE",
"434 -66 CURVE SMOOTH",
"39 -66 LINE SMOOTH",
"18 -66 OFFCURVE",
"0 -49 OFFCURVE",
"0 -26 CURVE SMOOTH"
);
},
{
closed = 1;
nodes = (
"0 250 LINE SMOOTH",
"0 273 OFFCURVE",
"18 290 OFFCURVE",
"39 290 CURVE SMOOTH",
"355 290 LINE SMOOTH",
"378 290 OFFCURVE",
"395 273 OFFCURVE",
"395 250 CURVE SMOOTH",
"395 191 LINE SMOOTH",
"395 168 OFFCURVE",
"378 151 OFFCURVE",
"355 151 CURVE SMOOTH",
"39 151 LINE SMOOTH",
"18 151 OFFCURVE",
"0 168 OFFCURVE",
"0 191 CURVE SMOOTH"
);
},
{
closed = 1;
nodes = (
"0 467 LINE SMOOTH",
"0 490 OFFCURVE",
"18 507 OFFCURVE",
"39 507 CURVE SMOOTH",
"395 507 LINE SMOOTH",
"416 507 OFFCURVE",
"434 490 OFFCURVE",
"434 467 CURVE SMOOTH",
"434 408 LINE SMOOTH",
"434 385 OFFCURVE",
"416 369 OFFCURVE",
"395 369 CURVE SMOOTH",
"39 369 LINE SMOOTH",
"18 369 OFFCURVE",
"0 385 OFFCURVE",
"0 408 CURVE SMOOTH"
);
},
{
closed = 1;
nodes = (
"0 685 LINE SMOOTH",
"0 706 OFFCURVE",
"18 724 OFFCURVE",
"39 724 CURVE SMOOTH",
"316 724 LINE SMOOTH",
"337 724 OFFCURVE",
"355 706 OFFCURVE",
"355 685 CURVE SMOOTH",
"355 625 LINE SMOOTH",
"355 604 OFFCURVE",
"337 586 OFFCURVE",
"316 586 CURVE SMOOTH",
"39 586 LINE SMOOTH",
"18 586 OFFCURVE",
"0 604 OFFCURVE",
"0 625 CURVE SMOOTH"
);
},
{
closed = 1;
nodes = (
"553 704 LINE SMOOTH",
"553 717 OFFCURVE",
"560 724 OFFCURVE",
"573 724 CURVE SMOOTH",
"612 724 LINE SMOOTH",
"623 724 OFFCURVE",
"632 715 OFFCURVE",
"632 704 CURVE SMOOTH",
"632 -46 LINE SMOOTH",
"632 -57 OFFCURVE",
"623 -66 OFFCURVE",
"612 -66 CURVE SMOOTH",
"573 -66 LINE SMOOTH",
"560 -66 OFFCURVE",
"553 -59 OFFCURVE",
"553 -46 CURVE SMOOTH"
);
},
{
closed = 1;
nodes = (
"671 322 OFFCURVE",
"673 328 OFFCURVE",
"678 334 CURVE",
"789 445 LINE SMOOTH",
"805 460 OFFCURVE",
"817 456 OFFCURVE",
"817 433 CURVE SMOOTH",
"817 355 LINE",
"927 355 LINE SMOOTH",
"939 355 OFFCURVE",
"947 347 OFFCURVE",
"947 335 CURVE SMOOTH",
"947 296 LINE SMOOTH",
"947 285 OFFCURVE",
"939 276 OFFCURVE",
"927 276 CURVE SMOOTH",
"817 276 LINE",
"817 197 LINE SMOOTH",
"817 177 OFFCURVE",
"805 170 OFFCURVE",
"789 186 CURVE SMOOTH",
"678 297 LINE",
"673 304 OFFCURVE",
"671 310 OFFCURVE",
"671 316 CURVE SMOOTH"
);
}
);
width = 947;
}
);
unicode = E784;
},
{
glyphname = uniE78A;
layers = (
{
layerId = "B718D8F3-CB97-43BD-9E0D-52F1AEE8232C";
name = Regular;
paths = (
{
closed = 1;
nodes = (
"470 276 LINE",
"470 176 LINE",
"15 176 LINE",
"20 327 OFFCURVE",
"23 424 OFFCURVE",
"25 468 CURVE SMOOTH",
"28 539 OFFCURVE",
"54 576 OFFCURVE",
"125 576 CURVE SMOOTH",
"285 576 LINE",
"285 576 OFFCURVE",
"344 687 OFFCURVE",
"345 688 CURVE",
"364 721 OFFCURVE",
"368 726 OFFCURVE",
"404 726 CURVE SMOOTH",
"626 726 LINE SMOOTH",
"662 726 OFFCURVE",
"666 721 OFFCURVE",
"685 688 CURVE",
"686 687 OFFCURVE",
"693 673 OFFCURVE",
"708 646 CURVE SMOOTH",
"745 576 LINE",
"905 576 LINE SMOOTH",
"976 576 OFFCURVE",
"1002 539 OFFCURVE",
"1005 468 CURVE SMOOTH",
"1015 176 LINE",
"560 176 LINE",
"560 276 LINE"
);
},
{
closed = 1;
nodes = (
"396 626 OFFCURVE",
"386 608 OFFCURVE",
"369 576 CURVE",
"661 576 LINE",
"644 608 OFFCURVE",
"634 626 OFFCURVE",
"632 630 CURVE SMOOTH",
"621 653 OFFCURVE",
"616 656 OFFCURVE",
"592 656 CURVE SMOOTH",
"438 656 LINE SMOOTH",
"414 656 OFFCURVE",
"409 653 OFFCURVE",
"398 630 CURVE SMOOTH"
);
},
{
closed = 1;
nodes = (
"560 26 LINE",
"560 126 LINE",
"990 126 LINE",
"986 67 OFFCURVE",
"983 11 OFFCURVE",
"980 -41 CURVE SMOOTH",
"979 -61 OFFCURVE",
"976 -75 OFFCURVE",
"965 -94 CURVE",
"953 -113 OFFCURVE",
"927 -124 OFFCURVE",
"890 -124 CURVE SMOOTH",
"140 -124 LINE SMOOTH",
"103 -124 OFFCURVE",
"77 -113 OFFCURVE",
"66 -94 CURVE",
"54 -75 OFFCURVE",
"51 -61 OFFCURVE",
"50 -41 CURVE SMOOTH",
"40 126 LINE",
"470 126 LINE",
"470 26 LINE"
);
}
);
width = 1030;
}
);
unicode = E78A;
},
{
glyphname = uniE78B;
layers = (
{
layerId = "B718D8F3-CB97-43BD-9E0D-52F1AEE8232C";
name = Regular;
paths = (
{
closed = 1;
nodes = (
"68 399 OFFCURVE",
"94 410 OFFCURVE",
"125 410 CURVE SMOOTH",
"186 410 OFFCURVE",
"235 361 OFFCURVE",
"235 300 CURVE SMOOTH",
"235 239 OFFCURVE",
"186 190 OFFCURVE",
"125 190 CURVE SMOOTH",
"64 190 OFFCURVE",
"15 239 OFFCURVE",
"15 300 CURVE SMOOTH",
"15 331 OFFCURVE",
"26 357 OFFCURVE",
"47 378 CURVE SMOOTH"
);
}
);
width = 250;
}
);
unicode = E78B;
},
{
glyphname = uniE78C;
layers = (
{
layerId = "B718D8F3-CB97-43BD-9E0D-52F1AEE8232C";
name = Regular;
paths = (
{
closed = 1;
nodes = (
"68 399 OFFCURVE",
"94 410 OFFCURVE",
"125 410 CURVE SMOOTH",
"186 410 OFFCURVE",
"235 361 OFFCURVE",
"235 300 CURVE SMOOTH",
"235 239 OFFCURVE",
"186 190 OFFCURVE",
"125 190 CURVE SMOOTH",
"64 190 OFFCURVE",
"15 239 OFFCURVE",
"15 300 CURVE SMOOTH",
"15 331 OFFCURVE",
"26 357 OFFCURVE",
"47 378 CURVE SMOOTH"
);
},
{
closed = 1;
nodes = (
"418 399 OFFCURVE",
"444 410 OFFCURVE",
"475 410 CURVE SMOOTH",
"536 410 OFFCURVE",
"585 361 OFFCURVE",
"585 300 CURVE SMOOTH",
"585 239 OFFCURVE",
"536 190 OFFCURVE",
"475 190 CURVE SMOOTH",
"414 190 OFFCURVE",
"365 239 OFFCURVE",
"365 300 CURVE SMOOTH",
"365 331 OFFCURVE",
"376 357 OFFCURVE",
"397 378 CURVE SMOOTH"
);
}
);
width = 600;
}
);
unicode = E78C;
},
{
glyphname = uniE78D;
layers = (
{
layerId = "B718D8F3-CB97-43BD-9E0D-52F1AEE8232C";
name = Regular;
paths = (
{
closed = 1;
nodes = (
"68 399 OFFCURVE",
"94 410 OFFCURVE",
"125 410 CURVE SMOOTH",
"186 410 OFFCURVE",
"235 361 OFFCURVE",
"235 300 CURVE SMOOTH",
"235 239 OFFCURVE",
"186 190 OFFCURVE",
"125 190 CURVE SMOOTH",
"64 190 OFFCURVE",
"15 239 OFFCURVE",
"15 300 CURVE SMOOTH",
"15 331 OFFCURVE",
"26 357 OFFCURVE",
"47 378 CURVE SMOOTH"
);
},
{
closed = 1;
nodes = (
"418 399 OFFCURVE",
"444 410 OFFCURVE",
"475 410 CURVE SMOOTH",
"536 410 OFFCURVE",
"585 361 OFFCURVE",
"585 300 CURVE SMOOTH",
"585 239 OFFCURVE",
"536 190 OFFCURVE",
"475 190 CURVE SMOOTH",
"414 190 OFFCURVE",
"365 239 OFFCURVE",
"365 300 CURVE SMOOTH",
"365 331 OFFCURVE",
"376 357 OFFCURVE",
"397 378 CURVE SMOOTH"
);
},
{
closed = 1;
nodes = (
"768 399 OFFCURVE",
"794 410 OFFCURVE",
"825 410 CURVE SMOOTH",
"886 410 OFFCURVE",
"935 361 OFFCURVE",
"935 300 CURVE SMOOTH",
"935 239 OFFCURVE",
"886 190 OFFCURVE",
"825 190 CURVE SMOOTH",
"764 190 OFFCURVE",
"715 239 OFFCURVE",
"715 300 CURVE SMOOTH",
"715 331 OFFCURVE",
"726 357 OFFCURVE",
"747 378 CURVE SMOOTH"
);
}
);
width = 950;
}
);
unicode = E78D;
},
{
glyphname = uniE798;
layers = (
{
layerId = "B718D8F3-CB97-43BD-9E0D-52F1AEE8232C";
name = Regular;
paths = (
{
closed = 1;
nodes = (
"864 516 LINE",
"895 451 OFFCURVE",
"911 386 OFFCURVE",
"911 320 CURVE SMOOTH",
"911 296 OFFCURVE",
"908 269 OFFCURVE",
"902 238 CURVE",
"586 238 LINE"
);
},
{
closed = 1;
nodes = (
"606 341 LINE",
"606 741 LINE",
"703 709 OFFCURVE",
"779 652 OFFCURVE",
"834 569 CURVE"
);
},
{
closed = 1;
nodes = (
"485 179 LINE",
"886 179 LINE",
"853 82 OFFCURVE",
"795 5 OFFCURVE",
"714 -50 CURVE"
);
},
{
closed = 1;
nodes = (
"547 438 LINE",
"266 718 LINE",
"330 750 OFFCURVE",
"396 766 OFFCURVE",
"464 766 CURVE SMOOTH",
"489 766 OFFCURVE",
"517 763 OFFCURVE",
"547 758 CURVE"
);
},
{
closed = 1;
nodes = (
"383 198 LINE",
"660 -80 LINE",
"595 -111 OFFCURVE",
"530 -127 OFFCURVE",
"464 -127 CURVE SMOOTH",
"441 -127 OFFCURVE",
"414 -124 OFFCURVE",
"383 -118 CURVE"
);
},
{
closed = 1;
nodes = (
"323 298 LINE",
"323 -102 LINE",
"226 -70 OFFCURVE",
"150 -13 OFFCURVE",
"95 70 CURVE"
);
},
{
closed = 1;
nodes = (
"343 402 LINE",
"65 124 LINE",
"34 189 OFFCURVE",
"18 254 OFFCURVE",
"18 320 CURVE SMOOTH",
"18 344 OFFCURVE",
"21 371 OFFCURVE",
"26 402 CURVE"
);
},
{
closed = 1;
nodes = (
"442 461 LINE",
"43 461 LINE",
"75 558 OFFCURVE",
"132 634 OFFCURVE",
"214 689 CURVE"
);
}
);
width = 928;
}
);
unicode = E798;
},
{
glyphname = uniE799;
layers = (
{
layerId = "B718D8F3-CB97-43BD-9E0D-52F1AEE8232C";
name = Regular;
paths = (
{
closed = 1;
nodes = (
"236 722 OFFCURVE",
"342 766 OFFCURVE",
"465 766 CURVE SMOOTH",
"711 766 OFFCURVE",
"911 566 OFFCURVE",
"911 320 CURVE SMOOTH",
"911 74 OFFCURVE",
"711 -127 OFFCURVE",
"465 -127 CURVE SMOOTH",
"219 -127 OFFCURVE",
"18 74 OFFCURVE",
"18 320 CURVE SMOOTH",
"18 443 OFFCURVE",
"62 548 OFFCURVE",
"149 635 CURVE SMOOTH"
);
},
{
closed = 1;
nodes = (
"600 633 OFFCURVE",
"536 654 OFFCURVE",
"465 654 CURVE SMOOTH",
"323 654 OFFCURVE",
"198 563 OFFCURVE",
"150 431 CURVE",
"779 431 LINE",
"755 497 OFFCURVE",
"714 551 OFFCURVE",
"657 592 CURVE SMOOTH"
);
},
{
closed = 1;
nodes = (
"496 264 OFFCURVE",
"521 289 OFFCURVE",
"521 320 CURVE SMOOTH",
"521 352 OFFCURVE",
"495 376 OFFCURVE",
"465 376 CURVE SMOOTH",
"435 376 OFFCURVE",
"409 352 OFFCURVE",
"409 320 CURVE SMOOTH",
"409 288 OFFCURVE",
"435 264 OFFCURVE",
"464 264 CURVE SMOOTH"
);
},
{
closed = 1;
nodes = (
"130 155 OFFCURVE",
"248 18 OFFCURVE",
"408 -9 CURVE",
"405 174 OFFCURVE",
"282 320 OFFCURVE",
"130 320 CURVE"
);
},
{
closed = 1;
nodes = (
"681 18 OFFCURVE",
"799 155 OFFCURVE",
"799 320 CURVE",
"647 320 OFFCURVE",
"524 174 OFFCURVE",
"521 -9 CURVE"
);
}
);
width = 928;
}
);
unicode = E799;
},
{
glyphname = uniE7A2;
layers = (
{
layerId = "B718D8F3-CB97-43BD-9E0D-52F1AEE8232C";
name = Regular;
paths = (
{
closed = 1;
nodes = (
"205 345 OFFCURVE",
"227 410 OFFCURVE",
"271 468 CURVE SMOOTH",
"316 530 OFFCURVE",
"370 571 OFFCURVE",
"435 591 CURVE",
"512 243 LINE",
"809 74 LINE",
"782 37 OFFCURVE",
"742 3 OFFCURVE",
"691 -28 CURVE",
"644 -52 OFFCURVE",
"593 -64 OFFCURVE",
"538 -64 CURVE SMOOTH",
"354 -64 OFFCURVE",
"205 83 OFFCURVE",
"205 274 CURVE SMOOTH"
);
},
{
closed = 1;
nodes = (
"491 735 LINE",
"522 748 OFFCURVE",
"560 755 OFFCURVE",
"604 755 CURVE SMOOTH",
"645 755 OFFCURVE",
"687 746 OFFCURVE",
"732 729 CURVE",
"574 356 LINE"
);
},
{
closed = 1;
nodes = (
"625 264 LINE",
"788 642 LINE",
"932 581 OFFCURVE",
"1024 445 OFFCURVE",
"1024 294 CURVE SMOOTH",
"1024 212 OFFCURVE",
"1000 139 OFFCURVE",
"952 74 CURVE"
);
}
);
width = 1228;
}
);
unicode = E7A2;
},
{
glyphname = uniE7AC;
layers = (
{
layerId = "B718D8F3-CB97-43BD-9E0D-52F1AEE8232C";
name = Regular;
paths = (
{
closed = 1;
nodes = (
"144 329 LINE",
"429 451 LINE",
"429 537 LINE",
"144 658 LINE",
"144 569 LINE",
"332 493 LINE",
"144 418 LINE"
);
},
{
closed = 1;
nodes = (
"470 260 LINE",
"756 260 LINE",
"756 329 LINE",
"470 329 LINE"
);
},
{
closed = 1;
nodes = (
"1224 800 LINE",
"1224 -100 LINE",
"0 -100 LINE",
"0 800 LINE"
);
}
);
width = 1224;
}
);
unicode = E7AC;
},
{
glyphname = uniE7AD;
layers = (
{
layerId = "B718D8F3-CB97-43BD-9E0D-52F1AEE8232C";
name = Regular;
paths = (
{
closed = 1;
nodes = (
"210 -70 OFFCURVE",
"181 -91 OFFCURVE",
"146 -91 CURVE SMOOTH",
"107 -91 OFFCURVE",
"82 -69 OFFCURVE",
"82 -32 CURVE SMOOTH",
"82 -29 LINE",
"116 -29 LINE",
"116 -51 OFFCURVE",
"126 -62 OFFCURVE",
"145 -62 CURVE SMOOTH",
"162 -62 OFFCURVE",
"174 -52 OFFCURVE",
"174 -35 CURVE SMOOTH",
"174 -19 OFFCURVE",
"161 -9 OFFCURVE",
"142 -10 CURVE",
"134 -10 LINE",
"134 14 LINE",
"158 13 OFFCURVE",
"170 20 OFFCURVE",
"170 36 CURVE SMOOTH",
"170 49 OFFCURVE",
"161 58 OFFCURVE",
"146 58 CURVE SMOOTH",
"129 58 OFFCURVE",
"120 48 OFFCURVE",
"120 28 CURVE",
"86 28 LINE",
"87 64 OFFCURVE",
"110 85 OFFCURVE",
"146 85 CURVE SMOOTH",
"177 85 OFFCURVE",
"203 68 OFFCURVE",
"203 39 CURVE SMOOTH",
"203 23 OFFCURVE",
"194 8 OFFCURVE",
"179 4 CURVE",
"200 -1 OFFCURVE",
"210 -14 OFFCURVE",
"210 -35 CURVE SMOOTH"
);
},
{
closed = 1;
nodes = (
"209 238 LINE",
"209 208 LINE",
"82 208 LINE",
"83 241 OFFCURVE",
"107 267 OFFCURVE",
"129 279 CURVE",
"151 290 OFFCURVE",
"173 307 OFFCURVE",
"173 327 CURVE SMOOTH",
"173 340 OFFCURVE",
"163 351 OFFCURVE",
"148 351 CURVE SMOOTH",
"131 351 OFFCURVE",
"121 339 OFFCURVE",
"120 314 CURVE",
"86 314 LINE",
"86 355 OFFCURVE",
"109 382 OFFCURVE",
"149 382 CURVE SMOOTH",
"184 382 OFFCURVE",
"208 361 OFFCURVE",
"208 328 CURVE SMOOTH",
"208 299 OFFCURVE",
"185 281 OFFCURVE",
"157 264 CURVE SMOOTH",
"143 255 OFFCURVE",
"133 247 OFFCURVE",
"127 238 CURVE"
);
},
{
closed = 1;
nodes = (
"900 93 LINE",
"900 -99 LINE",
"298 -99 LINE",
"298 93 LINE"
);
},
{
closed = 1;
nodes = (
"176 676 LINE",
"176 503 LINE",
"139 503 LINE",
"139 616 LINE",
"97 616 LINE",
"97 642 LINE",
"126 642 OFFCURVE",
"143 653 OFFCURVE",
"148 676 CURVE"
);
},
{
closed = 1;
nodes = (
"900 394 LINE",
"900 202 LINE",
"298 202 LINE",
"298 394 LINE"
);
},
{
closed = 1;
nodes = (
"900 695 LINE",
"900 503 LINE",
"298 503 LINE",
"298 695 LINE"
);
}
);
width = 900;
}
);
unicode = E7AD;
},
{
glyphname = uniE7AE;
layers = (
{
layerId = "B718D8F3-CB97-43BD-9E0D-52F1AEE8232C";
name = Regular;
paths = (
{
closed = 1;
nodes = (
"386 -43 OFFCURVE",
"394 -23 OFFCURVE",
"394 0 CURVE SMOOTH",
"394 47 OFFCURVE",
"357 84 OFFCURVE",
"310 84 CURVE SMOOTH",
"263 84 OFFCURVE",
"226 47 OFFCURVE",
"226 0 CURVE SMOOTH",
"226 -47 OFFCURVE",
"263 -84 OFFCURVE",
"310 -84 CURVE SMOOTH",
"333 -84 OFFCURVE",
"353 -76 OFFCURVE",
"370 -59 CURVE SMOOTH"
);
},
{
closed = 1;
nodes = (
"798 47 OFFCURVE",
"762 84 OFFCURVE",
"715 84 CURVE SMOOTH",
"670 84 OFFCURVE",
"632 47 OFFCURVE",
"632 0 CURVE SMOOTH",
"632 -47 OFFCURVE",
"670 -84 OFFCURVE",
"715 -84 CURVE SMOOTH",
"762 -84 OFFCURVE",
"799 -47 OFFCURVE",
"799 0 CURVE"
);
},
{
closed = 1;
nodes = (
"792 525 LINE",
"821 524 OFFCURVE",
"841 502 OFFCURVE",
"841 475 CURVE SMOOTH",
"841 194 LINE SMOOTH",
"841 165 OFFCURVE",
"818 142 OFFCURVE",
"790 142 CURVE SMOOTH",
"312 142 LINE SMOOTH",
"289 142 OFFCURVE",
"267 162 OFFCURVE",
"264 185 CURVE",
"175 502 LINE SMOOTH",
"165 541 OFFCURVE",
"151 563 OFFCURVE",
"134 568 CURVE",
"127 569 OFFCURVE",
"114 570 OFFCURVE",
"93 571 CURVE SMOOTH",
"51 572 OFFCURVE",
"35 582 OFFCURVE",
"35 622 CURVE SMOOTH",
"35 647 OFFCURVE",
"52 661 OFFCURVE",
"65 664 CURVE",
"74 665 LINE",
"76 665 LINE SMOOTH",
"78 665 OFFCURVE",
"81 665 OFFCURVE",
"84 666 CURVE",
"87 666 OFFCURVE",
"89 666 OFFCURVE",
"92 666 CURVE SMOOTH",
"175 666 OFFCURVE",
"228 632 OFFCURVE",
"251 564 CURVE"
);
},
{
closed = 1;
nodes = (
"751 358 LINE",
"751 439 LINE",
"638 448 LINE",
"638 358 LINE"
);
},
{
closed = 1;
nodes = (
"472 358 LINE",
"598 358 LINE",
"598 450 LINE",
"472 459 LINE"
);
},
{
closed = 1;
nodes = (
"598 329 LINE",
"472 329 LINE",
"472 232 LINE",
"598 232 LINE"
);
},
{
closed = 1;
nodes = (
"432 461 LINE",
"272 471 LINE",
"310 358 LINE",
"432 358 LINE"
);
},
{
closed = 1;
nodes = (
"320 329 LINE",
"350 232 LINE",
"432 232 LINE",
"432 329 LINE"
);
},
{
closed = 1;
nodes = (
"638 232 LINE",
"751 232 LINE",
"751 329 LINE",
"638 329 LINE"
);
}
);
width = 956;
}
);
unicode = E7AE;
},
{
glyphname = uniE7B3;
layers = (
{
layerId = "B718D8F3-CB97-43BD-9E0D-52F1AEE8232C";
name = Regular;
paths = (
{
closed = 1;
nodes = (
"635 695 LINE",
"858 472 LINE",
"858 159 LINE",
"635 -62 LINE",
"321 -62 LINE",
"100 159 LINE",
"100 472 LINE",
"321 695 LINE"
);
},
{
closed = 1;
nodes = (
"824 172 LINE",
"824 459 LINE",
"621 661 LINE",
"335 661 LINE",
"134 459 LINE",
"134 172 LINE",
"335 -29 LINE",
"621 -29 LINE"
);
},
{
closed = 1;
nodes = (
"354 619 LINE",
"604 619 LINE",
"781 441 LINE",
"781 190 LINE",
"604 14 LINE",
"354 14 LINE",
"176 190 LINE",
"176 441 LINE"
);
}
);
width = 957;
}
);
unicode = E7B3;
},
